<svg xmlns="http://www.w3.org/2000/svg" width="19" height="22" fill="none" viewBox="0 0 19 22"><path fill="#b42cf6" fill-rule="evenodd" d="M6.837 1.433a.23.23 0 0 0 0 .399l8.725 4.972c.07.04.157.04.228 0L18.25 5.4a.23.23 0 0 0 0-.399L9.523.031a.23.23 0 0 0-.227 0zm5.527 6.924a.23.23 0 0 1 0 .399l-2.84 1.618a.23.23 0 0 1-.227 0L.572 5.401a.23.23 0 0 1 0-.398l2.84-1.619a.23.23 0 0 1 .227 0zm-8.046-5.09a.23.23 0 0 1 0-.399l1.614-.919a.23.23 0 0 1 .227 0l8.725 4.972a.23.23 0 0 1 0 .399l-1.613.919a.23.23 0 0 1-.228 0zm5.428 15.731a.23.23 0 0 0-.116.2v1.697c0 .176.19.287.344.2l3.066-1.748.03-.017 2.51-1.432.031-.017 3.095-1.764a.23.23 0 0 0 .115-.199v-1.697a.23.23 0 0 0-.343-.2zm-.555-.832a.23.23 0 0 1-.343.2L.116 13.388a.23.23 0 0 1-.116-.2V5.974a.23.23 0 0 1 .343-.2l8.732 4.977a.23.23 0 0 1 .116.2zm-.343 2.929a.23.23 0 0 0 .343-.2v-1.697a.23.23 0 0 0-.116-.2L.343 14.023a.23.23 0 0 0-.343.2v1.697a.23.23 0 0 0 .116.2zm6.95-10.026a.22.22 0 0 0 .126-.199V7.364a.23.23 0 0 1 .116-.2l2.439-1.389a.23.23 0 0 1 .343.2v7.215a.23.23 0 0 1-.116.199l-8.732 4.976a.23.23 0 0 1-.344-.2v-7.214a.23.23 0 0 1 .116-.2l2.855-1.627a.23.23 0 0 1 .343.2v2.994a.22.22 0 0 0 .343.182zm-2.415.478c0 .176.19.286.343.199l1.643-.936a.23.23 0 0 0 .116-.2V7.876a.23.23 0 0 0-.343-.2l-1.643.936a.23.23 0 0 0-.116.2z" clip-rule="evenodd"/></svg>