<svg xmlns="http://www.w3.org/2000/svg" width="24" height="24" fill="none" viewBox="0 0 24 24"><path stroke="#141b34" stroke-width="1.5" d="M5.667 10H4.333C3.597 10 3 10.597 3 11.333v1.334C3 13.403 3.597 14 4.333 14h1.334C6.403 14 7 13.403 7 12.667v-1.334C7 10.597 6.403 10 5.667 10ZM12.667 10h-1.334c-.736 0-1.333.597-1.333 1.333v1.334c0 .736.597 1.333 1.333 1.333h1.334c.736 0 1.333-.597 1.333-1.333v-1.334c0-.736-.597-1.333-1.333-1.333ZM19.667 10h-1.334c-.736 0-1.333.597-1.333 1.333v1.334c0 .736.597 1.333 1.333 1.333h1.334c.736 0 1.333-.597 1.333-1.333v-1.334c0-.736-.597-1.333-1.333-1.333Z"/></svg>