<svg xmlns="http://www.w3.org/2000/svg" width="162" height="155" fill="none" viewBox="0 0 162 155"><path fill="#fff" fill-opacity=".15" d="M42.865 3.525C22.598 12.19 12.48 34.145 20.314 52.468c7.833 18.323 30.696 26.18 50.963 17.515s30.384-30.62 22.55-48.943S63.133-5.14 42.866 3.525M80.783 29.64c1.206 2.82-.352 6.197-3.47 7.53l-8.481 3.626 3.278 7.668c1.205 2.82-.352 6.197-3.47 7.53l-5.654 2.417c-3.118 1.333-6.636.125-7.841-2.694l-3.278-7.668-8.483 3.626c-3.117 1.333-6.635.125-7.84-2.694l-2.186-5.113c-1.205-2.819.352-6.197 3.47-7.53l8.482-3.626-3.278-7.668c-1.205-2.82.352-6.197 3.47-7.53l5.654-2.417c3.118-1.333 6.635-.125 7.84 2.694l3.279 7.669 8.482-3.627c3.118-1.332 6.635-.125 7.84 2.695zm-6.218 81.46 3.294-17.9 24.119 56.418-68.66 4.4c-3.772.242-7.085-1.657-8.444-4.836l-11.588-27.106 52.281-3.35a10.1 10.1 0 0 0 3.33-.794c2.903-1.242 5.107-3.786 5.668-6.832m-71.543 5.994c-.908.058-1.727-.244-2.31-.853-.584-.607-.819-1.405-.664-2.246l4.376-23.778 68.717-4.403-4.55 24.728c-.253 1.378-1.513 2.444-3 2.543zm119.474-80.271L75.567 80.019l-63.652 4.079 17.53-11.943c12.168 7.82 28.717 9.481 44.017 2.94 15.3-6.54 25.534-19.652 28.288-33.852zm-12.037 62.711 38.545-35.48 11.588 27.106c1.359 3.179.442 6.886-2.337 9.446L107.633 147.2l-24.12-56.417 15.215 9.987c2.59 1.699 5.951 1.864 8.856.622a10.1 10.1 0 0 0 2.875-1.858m43.015-48.601c.037.842-.313 1.644-.982 2.26l-46.128 42.462c-1.096 1.005-2.742 1.18-3.912.411L81.432 82.27l50.664-46.634L152.308 48.9c.715.47 1.13 1.192 1.166 2.033"/></svg>