<svg xmlns="http://www.w3.org/2000/svg" width="141" height="110" fill="none" viewBox="0 0 141 110"><g clip-path="url(#a)"><rect width="141" height="110" fill="#f3faeb" fill-opacity=".5" rx="5"/><path fill="#669934" fill-opacity=".6" d="M89.103 13.993c-11.426-5.03-24.422-.718-28.969 9.612-4.546 10.33 1.051 22.826 12.478 27.855 11.426 5.03 24.421.718 28.968-9.613s-1.051-22.825-12.477-27.854m3.872 25.787c-.7 1.59-2.699 2.253-4.456 1.48l-4.782-2.106-1.903 4.323c-.7 1.59-2.7 2.253-4.457 1.48l-3.188-1.404c-1.758-.773-2.62-2.696-1.92-4.285l1.903-4.324-4.782-2.104c-1.758-.774-2.62-2.696-1.92-4.286l1.269-2.882c.7-1.59 2.7-2.252 4.457-1.479l4.782 2.105 1.903-4.323c.7-1.59 2.699-2.252 4.456-1.479l3.189 1.404c1.757.773 2.619 2.695 1.92 4.285l-1.904 4.323 4.782 2.105c1.758.773 2.62 2.696 1.92 4.285zM56.88 68.731l8.677-5.564-14 31.806L23.167 68.28c-1.559-1.467-2.056-3.572-1.267-5.364l6.726-15.282L50.243 67.96a5.7 5.7 0 0 0 1.617 1.07c1.637.72 3.542.648 5.019-.299m-30.164-27.27c-.375-.353-.567-.809-.542-1.285.026-.476.265-.883.673-1.144l11.527-7.391 28.413 26.716-11.988 7.688c-.668.428-1.597.32-2.213-.257zm79.431 18.35-36.025-2.693L43.803 32.37 55.526 35C57 43.058 62.717 50.545 71.343 54.342s18.009 2.956 24.947-1.4zm-30.594 19.29 29.589 2.211-6.726 15.282c-.789 1.792-2.677 2.848-4.81 2.689l-38.86-2.906L68.743 64.57l1.757 10.157c.3 1.729 1.532 3.182 3.17 3.903.583.257 1.218.42 1.88.47m36.746-1.017c-.334.34-.801.506-1.315.468l-35.412-2.647c-.84-.063-1.549-.676-1.683-1.458L71.46 60.415l38.892 2.907 2.335 13.493a1.42 1.42 0 0 1-.389 1.269"/><rect width="67.261" height="67.261" x="37.37" y="25.37" fill="#fff" fill-opacity=".4" rx="33.63"/><rect width="67.261" height="67.261" x="37.37" y="25.37" stroke="#f5ad7c" stroke-width=".739" rx="33.63"/><path fill="#f08047" d="M88.838 57.837a1.478 1.478 0 0 1-.017 2.56L63.224 74.95a1.478 1.478 0 0 1-2.209-1.295l.196-29.444a1.478 1.478 0 0 1 2.226-1.265z"/></g><rect width="140" height="109" x=".5" y=".5" stroke="#e6f2d5" rx="4.5"/><defs><clipPath id="a"><rect width="141" height="110" fill="#fff" rx="5"/></clipPath></defs></svg>