<svg xmlns="http://www.w3.org/2000/svg" width="18" height="18" fill="none" viewBox="0 0 18 18"><path stroke="#0b0b0b" stroke-linecap="round" stroke-linejoin="round" d="M12.75 7.875s.75 1.875.75 4.313c0 .878-.097 1.683-.222 2.354-.157.843-.235 1.265-.652 1.611s-.913.347-1.907.347H7.28c-.994 0-1.49 0-1.907-.347-.417-.346-.495-.768-.652-1.611a13 13 0 0 1-.222-2.354c0-2.438.75-4.313.75-4.313"/><path stroke="#0b0b0b" stroke-linecap="round" stroke-linejoin="round" d="M5.25 7.883h7.5c.111-.612-.059-1.791-1.53-2.258-.349-.11-.758-.318-.942-.666a1.23 1.23 0 0 1 .005-1.19 1.55 1.55 0 0 0-.921-2.204A1.3 1.3 0 0 0 9 1.5a1.3 1.3 0 0 0-.386.065 1.55 1.55 0 0 0-.922 2.204c.244.464.168.881.005 1.19-.178.337-.567.637-.93.752-1.014.322-1.713 1.09-1.517 2.172M11.25 10.5h1.875m-1.875 3h1.875"/></svg>