<svg xmlns="http://www.w3.org/2000/svg" width="20" height="20" fill="none" viewBox="0 0 20 20"><path stroke="#7f7f7f" stroke-width="1.5" d="M1.668 7.141c0-.997.402-1.607 1.234-2.07l3.424-1.906c1.795-.999 2.692-1.498 3.675-1.498.984 0 1.881.5 3.675 1.498l3.425 1.906c.832.463 1.234 1.073 1.234 2.07 0 .27 0 .406-.03.517-.155.584-.684.676-1.195.676H2.892c-.51 0-1.04-.092-1.195-.676-.029-.111-.029-.246-.029-.517Z"/><path stroke="#7f7f7f" stroke-linecap="round" stroke-linejoin="round" stroke-width="2" d="M9.996 5.833h.008"/><path stroke="#7f7f7f" stroke-width="1.5" d="M3.332 8.333v7.083m3.333-7.083v7.083m6.667-7.083v7.083m3.333-7.083v7.083m-.83.001H4.168a2.5 2.5 0 0 0-2.5 2.5c0 .23.187.417.417.417h15.833c.23 0 .417-.187.417-.417a2.5 2.5 0 0 0-2.5-2.5Z"/></svg>