<svg xmlns="http://www.w3.org/2000/svg" width="20" height="21" fill="none" viewBox="0 0 20 21"><path stroke="#7f7f7f" stroke-linecap="round" stroke-linejoin="round" stroke-width="1.25" d="M5 17.166a3.33 3.33 0 0 0 3.333-3.327 3.33 3.33 0 0 0-3.334-3.327 3.33 3.33 0 0 0-3.333 3.327 3.33 3.33 0 0 0 3.333 3.327m10.001 0a3.33 3.33 0 0 0 3.333-3.327 3.33 3.33 0 0 0-3.334-3.327 3.33 3.33 0 0 0-3.333 3.327 3.33 3.33 0 0 0 3.333 3.327"/><path stroke="#7f7f7f" stroke-linecap="round" stroke-linejoin="round" stroke-width="1.25" d="M5 13.838h3.642c.3 0 .577-.161.725-.421l3.55-6.233M10 11.344l-4.167-4.99m0 0H4.166m1.667 0h1.666m7.547 7.456L12.34 3.86c1.209-.059 3.794-.167 4.32 1.816"/></svg>