<svg xmlns="http://www.w3.org/2000/svg" width="30" height="30" fill="none" viewBox="0 0 30 30"><rect width="30" height="30" fill="#007aff" fill-opacity=".15" rx="15"/><path stroke="#007aff" stroke-linejoin="round" stroke-width="1.125" d="m10 12 3.457 1.959c1.274.722 1.812.722 3.087 0L20 12"/><path stroke="#007aff" stroke-linejoin="round" stroke-width="1.125" d="M10.008 15.738c.033 1.533.049 2.299.615 2.867.565.567 1.352.587 2.926.627.97.024 1.931.024 2.902 0 1.574-.04 2.361-.06 2.927-.627.565-.568.581-1.334.614-2.867q.015-.738 0-1.476c-.033-1.533-.049-2.299-.614-2.867-.566-.567-1.353-.587-2.927-.627a58 58 0 0 0-2.902 0c-1.574.04-2.361.06-2.926.627-.566.568-.582 1.334-.615 2.867q-.015.738 0 1.476Z"/></svg>