<svg xmlns="http://www.w3.org/2000/svg" width="61" height="61" fill="none" viewBox="0 0 61 61"><rect width="60" height="60" x=".5" y=".5" fill="#fde9d7" rx="30"/><path stroke="#141b34" stroke-linecap="round" stroke-linejoin="round" stroke-width="1.5" d="M17.582 32c0-4.422 0-6.633 1.36-8.109q.326-.355.716-.652C21.278 22 23.706 22 28.561 22h3.875c4.855 0 7.282 0 8.903 1.239q.39.297.717.652c1.36 1.476 1.36 3.687 1.36 8.109s0 6.633-1.36 8.109a5.6 5.6 0 0 1-.717.652C39.719 42 37.291 42 32.436 42h-3.875c-4.855 0-7.282 0-8.903-1.239a5.6 5.6 0 0 1-.716-.652c-1.36-1.476-1.36-3.687-1.36-8.109"/><path stroke="#141b34" stroke-linecap="round" stroke-linejoin="round" stroke-miterlimit="10" stroke-width="1.5" d="M27.918 37h1.938M33.73 37h4.521"/><path stroke="#141b34" stroke-linejoin="round" stroke-width="1.5" d="M17.582 28.25h25.833"/></svg>