<svg xmlns="http://www.w3.org/2000/svg" width="20" height="21" fill="none" viewBox="0 0 20 21"><path stroke="#7f7f7f" stroke-linecap="round" stroke-linejoin="round" stroke-width="1.25" d="M5.004 8.833V4.666M9.17 8.833V4.666m4.166 4.167v-3.75M4.18 14.666c-1.183 0-1.775 0-2.142-.366-.368-.366-.368-.956-.368-2.134v-5c0-1.178 0-1.768.368-2.134.367-.366.959-.366 2.142-.366h5.904c2.895 0 4.342 0 5.45.589a5 5 0 0 1 1.964 1.876c.636 1.078.696 2.518.817 5.398.032.777.049 1.165-.103 1.459a1.25 1.25 0 0 1-.496.515c-.289.163-.679.163-1.459.163h-.42m-8.334 0h5"/><path stroke="#7f7f7f" stroke-width="1.25" d="M5.837 16.333a1.667 1.667 0 1 0 0-3.333 1.667 1.667 0 0 0 0 3.333Zm8.333 0a1.667 1.667 0 1 0 0-3.333 1.667 1.667 0 0 0 0 3.333Z"/><path stroke="#7f7f7f" stroke-linecap="round" stroke-width="1.25" d="M1.664 8.834h11.14c.523 0 .7.306 1.1.786.46.45.771.766 1.2.83.6.09 2.82.045 2.82.045"/></svg>