<svg xmlns="http://www.w3.org/2000/svg" width="49" height="43" fill="none" viewBox="0 0 49 43"><rect width="49" height="42.764" fill="#fde9d7" rx="7.127"/><path fill="#f08047" d="M34.019 7.127H14.37l-3.68 7.308h27.007zm-2.763 14.667a3.72 3.72 0 0 0 2.677 1.138c.36 0 .699-.066 1.028-.16v6.714H22.106v-6.757a3.8 3.8 0 0 0 1.454-.871V15.66h-5.244v6.176a3.73 3.73 0 0 0 1.951 1.027v11.73H13.43v-11.82c.329.093.669.16 1.027.16a3.7 3.7 0 0 0 2.632-1.095v-6.176h-6.397v3.506c0 .923.346 1.759.898 2.415v13.933c0 .508.412.92.92.92h23.372a.92.92 0 0 0 .92-.92V21.58c.551-.655.897-1.49.897-2.414V15.66h-6.442z"/><path fill="#f08047" d="M27.44 22.931a3.71 3.71 0 0 0 2.589-1.055v-6.215h-5.244v6.158a3.72 3.72 0 0 0 2.654 1.112m-11.747 7.432a1.184 1.184 0 1 0 0-2.367 1.184 1.184 0 0 0 0 2.367"/></svg>