<svg xmlns="http://www.w3.org/2000/svg" width="44" height="44" fill="none" viewBox="0 0 44 44"><rect width="44" height="44" fill="#cee7af" rx="22"/><path fill="#56862a" fill-rule="evenodd" d="M17.316 25.932a2.102 2.102 0 0 0 1.008 3.943h.179a1.84 1.84 0 0 0 1.659 2.625 1.84 1.84 0 0 0 1.658-2.625h3.507a1.84 1.84 0 0 0 1.659 2.625 1.84 1.84 0 0 0 1.658-2.625h.704a.526.526 0 0 0 .524-.525.526.526 0 0 0-.524-.525H18.324c-.577 0-1.05-.473-1.05-1.05 0-.278.11-.546.31-.74.194-.2.462-.31.74-.31h9.417c.872 0 1.649-.54 1.953-1.355.835-2.236 2.772-6.867 2.772-6.867a.53.53 0 0 0-.058-.483.52.52 0 0 0-.43-.225H15.705l-.777-2.856a1.9 1.9 0 0 0-1.817-1.344h-1.086a.527.527 0 0 0-.525.525c0 .289.236.525.525.525h1.081c.373 0 .704.247.814.604l3.04 9.995q.119.381.356.683zm8.772-6.93-5.25 5.25a.53.53 0 0 0 0 .746.53.53 0 0 0 .746 0l5.25-5.25a.53.53 0 0 0 0-.746.53.53 0 0 0-.746 0m2.362 1.575-3.674 3.675a.53.53 0 0 0 0 .746.53.53 0 0 0 .745 0l3.674-3.675a.53.53 0 0 0 0-.746.53.53 0 0 0-.745 0m-6.3-1.575-3.674 3.675a.53.53 0 0 0 0 .746.53.53 0 0 0 .746 0l3.674-3.675a.53.53 0 0 0 0-.746.53.53 0 0 0-.745 0m-6.409-2.252h5.16c-.068-1.024-.252-2.578-.719-3.68-.404-.95-1.039-1.57-1.863-1.57s-1.46.614-1.864 1.57c-.467 1.102-.65 2.662-.719 3.68zm5.344 0h5.502c-.163-.562-.442-.956-.71-1.344-.24-.352-.466-.698-.493-1.281h-3.097c-.02.578-.252.93-.493 1.281-.268.388-.551.782-.709 1.344m5.69 0h5.145a2.63 2.63 0 0 0-1.926-3.066c.12-.257.335-.483.671-.677a.524.524 0 0 0 .19-.72.524.524 0 0 0-.72-.189 3.4 3.4 0 0 0-.625.468l-.073-.09c-.347-.372-.903-.572-1.738-.446a.52.52 0 0 0-.425.373c-.2.693-.11 1.186.12 1.533.074.105.158.2.263.284a2.63 2.63 0 0 0-.876 2.525zm-8.74-.52 1.05-.525a.53.53 0 0 0 .236-.703.53.53 0 0 0-.703-.237l-1.05.525a.53.53 0 0 0-.236.704.53.53 0 0 0 .703.236m.263-1.837.525-.263a.53.53 0 0 0 .236-.703.53.53 0 0 0-.703-.236l-.525.262a.53.53 0 0 0-.237.704.53.53 0 0 0 .704.236m7.375-2.368a.526.526 0 0 0-.525-.525h-2.625a.526.526 0 0 0-.524.525v.525c0 .289.236.525.524.525h2.625a.526.526 0 0 0 .525-.525z" clip-rule="evenodd"/></svg>