<svg xmlns="http://www.w3.org/2000/svg" width="19" height="19" fill="none" viewBox="0 0 19 19"><path stroke="#7f7f7f" stroke-linecap="round" stroke-linejoin="round" stroke-width="1.125" d="M12.5 2v3m-6-3v3m3.75-1.5h-1.5c-2.828 0-4.243 0-5.121.879-.879.878-.879 2.293-.879 5.121V11c0 2.828 0 4.243.879 5.121C4.507 17 5.922 17 8.75 17h1.5c2.828 0 4.243 0 5.121-.879.879-.878.879-2.293.879-5.121V9.5c0-2.828 0-4.243-.879-5.121-.878-.879-2.293-.879-5.121-.879M2.75 8h13.5"/><path stroke="#7f7f7f" stroke-linecap="round" stroke-linejoin="round" stroke-width="1.5" d="M9.497 11h.006m-.006 3h.006m2.99-3h.007m-6 0h.007M6.5 14h.007"/></svg>