<svg xmlns="http://www.w3.org/2000/svg" width="21" height="21" fill="none" viewBox="0 0 21 21"><path stroke="#7f7f7f" stroke-width="1.25" d="M8.005 14.667a1.667 1.667 0 1 1-3.333 0 1.667 1.667 0 0 1 3.333 0Zm8.336 0a1.667 1.667 0 1 1-3.333 0 1.667 1.667 0 0 1 3.333 0Z"/><path stroke="#7f7f7f" stroke-linecap="round" stroke-width="1.25" d="M2.174 8.834h13.334m-13.334 0c0 .65-.016 2.533.004 4.383.03.6.13 1.1 2.498 1.45M2.174 8.834c.18-1.45.963-3.167 1.363-3.817m4.47 3.817V4.667m4.993 10H8.002m-5.815-10H10.7s.45 0 .85.04c.75.07 1.379.41 2.008 1.26.667.9 1.18 2.04 1.859 2.65 1.129 1.014 3.277.7 3.397 2.85.03 1.1.03 2.3-.02 2.5-.08.589-.534.685-1.099.7-.49.013-1.081-.023-1.369 0"/></svg>