<svg xmlns="http://www.w3.org/2000/svg" width="50" height="50" fill="none" viewBox="0 0 50 50"><rect width="50" height="50" fill="#f3faeb" rx="25"/><path stroke="#56862a" stroke-linecap="round" stroke-width="1.5" d="M21 29h7.263c4.488 0 5.17-2.82 5.998-6.93.239-1.187.358-1.78.071-2.175s-.837-.395-1.938-.395H19"/><path stroke="#56862a" stroke-linecap="round" stroke-width="1.5" d="m21 29-2.621-12.485A2 2 0 0 0 16.439 15H15.5"/><path stroke="#56862a" stroke-linecap="round" stroke-linejoin="round" stroke-width="1.5" d="M21.88 29h-.411C20.105 29 19 30.151 19 31.571a.42.42 0 0 0 .411.429H30.5"/><path stroke="#56862a" stroke-width="1.5" d="M23.5 35a1.5 1.5 0 1 0 0-3 1.5 1.5 0 0 0 0 3Zm7 0a1.5 1.5 0 1 0 0-3 1.5 1.5 0 0 0 0 3Z"/><rect width="7" height="7" x="30.91" y="14" fill="#e61601" rx="3.5"/></svg>