<svg xmlns="http://www.w3.org/2000/svg" width="17" height="18" fill="none" viewBox="0 0 17 18"><path fill="#d85583" d="M4.949 13.61a1.693 1.693 0 0 0-1.705 1.678 1.693 1.693 0 0 0 1.669 1.714 1.7 1.7 0 0 0 1.713-1.678 1.7 1.7 0 0 0-1.677-1.713M-.001.84a.85.85 0 0 0 .838.857l.848.009 2.983 6.467L3.5 10.23c-.63 1.13.169 2.52 1.457 2.534l9.323.1a.85.85 0 0 0 .857-.84.85.85 0 0 0-.838-.857l-9.324-.099.95-1.686 6.315.068a1.69 1.69 0 0 0 1.492-.858l3.094-5.47a.845.845 0 0 0-.725-1.262L3.558 1.725 3.003.506a.84.84 0 0 0-.758-.49L.855 0A.85.85 0 0 0 0 .84m13.426 12.862a1.693 1.693 0 0 0-1.705 1.678 1.693 1.693 0 0 0 1.669 1.713 1.7 1.7 0 0 0 1.713-1.677 1.7 1.7 0 0 0-1.677-1.714"/></svg>