<svg xmlns="http://www.w3.org/2000/svg" width="18" height="18" fill="none" viewBox="0 0 18 18"><path stroke="#56862a" stroke-linecap="round" stroke-width="1.25" d="m6 12 6.54-.545c2.047-.17 2.506-.617 2.733-2.658L15.75 4.5M4.5 4.5h12"/><path stroke="#56862a" stroke-width="1.25" d="M4.5 16.5a1.5 1.5 0 1 0 0-3 1.5 1.5 0 0 0 0 3Zm8.25 0a1.5 1.5 0 1 0 0-3 1.5 1.5 0 0 0 0 3Z"/><path stroke="#56862a" stroke-linecap="round" stroke-width="1.25" d="M6 15h5.25M1.5 1.5h.724c.709 0 1.327.468 1.498 1.136l2.232 8.671c.113.439.016.903-.263 1.264l-.717.929"/></svg>