<svg xmlns="http://www.w3.org/2000/svg" width="18" height="18" fill="none" viewBox="0 0 18 18"><path stroke="#0b0b0b" stroke-linecap="round" stroke-linejoin="round" d="m6 12.75-.75 3.75M12 12.75l.75 3.75"/><path stroke="#0b0b0b" stroke-linecap="round" d="M9 9.75c-1.141 0-2.348.22-3.294.513-.712.22-1.285 1.229-1.197 2.047.033.303.268.44.515.44h7.952c.247 0 .482-.137.515-.44.088-.819-.485-1.826-1.197-2.047A11.6 11.6 0 0 0 9 9.75Z"/><path stroke="#0b0b0b" d="M11.83 10.5c.93-1.176 1.67-2.724 1.67-4.234C13.5 3.23 11.485 1.5 9 1.5S4.5 3.229 4.5 6.266c0 1.51.74 3.058 1.67 4.234"/><path stroke="#0b0b0b" d="M10.252 1.5c.157.85.248 1.926.248 3.205 0 1.815-.273 3.678-.605 5.045M7.748 1.5C7.59 2.35 7.5 3.426 7.5 4.705c0 1.815.273 3.678.605 5.045"/></svg>