<svg xmlns="http://www.w3.org/2000/svg" width="15" height="14" fill="none" viewBox="0 0 15 14"><path fill="#fff" d="M4.855 11.281h-1.12C2.02 11.16 1.25 9.841 1.25 8.668c0-1.172.77-2.497 2.456-2.613a.43.43 0 0 1 .466.408.437.437 0 0 1-.408.467c-1.131.081-1.639.933-1.639 1.744s.507 1.662 1.64 1.744h1.09a.44.44 0 0 1 .438.438.43.43 0 0 1-.438.425"/><path fill="#fff" d="M10.223 11.283h-.03c-.238 0-.46-.199-.46-.438 0-.25.187-.437.432-.437.717 0 1.359-.251 1.86-.7.91-.794.969-1.937.724-2.742-.245-.8-.928-1.715-2.118-1.86a.44.44 0 0 1-.379-.362c-.233-1.4-.986-2.369-2.129-2.719-1.178-.367-2.555-.006-3.412.893-.835.869-1.027 2.088-.543 3.43a.437.437 0 1 1-.822.297c-.59-1.645-.321-3.22.735-4.328C5.16 1.185 6.892.737 8.38 1.19c1.365.42 2.327 1.546 2.677 3.11 1.19.268 2.147 1.172 2.526 2.42.414 1.36.04 2.76-.98 3.646a3.56 3.56 0 0 1-2.38.916"/><path fill="#fff" d="M7.503 12.997a3.35 3.35 0 0 1-2.87-1.633 2 2 0 0 1-.181-.344 3.2 3.2 0 0 1-.304-1.377A3.36 3.36 0 0 1 7.503 6.29a3.36 3.36 0 0 1 3.354 3.354q0 .746-.315 1.394a2.4 2.4 0 0 1-.181.339 3.33 3.33 0 0 1-2.858 1.621m0-5.833a2.485 2.485 0 0 0-2.48 2.48c0 .36.076.7.222 1.008a2.47 2.47 0 0 0 2.252 1.47 2.46 2.46 0 0 0 2.111-1.201q.081-.13.135-.251.234-.48.233-1.02a2.477 2.477 0 0 0-2.473-2.486"/><path fill="#fff" d="M7.166 10.658a.43.43 0 0 1-.31-.128l-.577-.578a.44.44 0 0 1 0-.618.44.44 0 0 1 .619 0l.28.28.933-.864a.44.44 0 0 1 .618.024.44.44 0 0 1-.023.618l-1.243 1.15a.46.46 0 0 1-.297.116"/></svg>