<svg xmlns="http://www.w3.org/2000/svg" width="20" height="20" fill="none" viewBox="0 0 20 20"><path fill="#7f7f7f" d="M6.216 16.117h-1.6c-2.45-.175-3.55-2.058-3.55-3.733s1.1-3.567 3.509-3.734a.62.62 0 0 1 .666.584.625.625 0 0 1-.583.666c-1.617.117-2.342 1.334-2.342 2.492s.725 2.375 2.342 2.492h1.558a.63.63 0 0 1 .625.625.615.615 0 0 1-.625.608"/><path fill="#7f7f7f" d="M13.892 16.118h-.042c-.342 0-.658-.284-.658-.625 0-.359.266-.626.616-.626a3.92 3.92 0 0 0 2.659-1c1.3-1.133 1.383-2.766 1.033-3.916-.35-1.142-1.325-2.45-3.025-2.659a.63.63 0 0 1-.542-.516c-.333-2-1.408-3.384-3.041-3.884-1.684-.525-3.65-.008-4.875 1.275-1.192 1.242-1.467 2.984-.775 4.9a.624.624 0 1 1-1.175.425c-.842-2.35-.459-4.6 1.05-6.183 1.541-1.617 4.016-2.258 6.141-1.608 1.95.6 3.325 2.208 3.825 4.441 1.7.384 3.067 1.675 3.609 3.459.591 1.941.058 3.941-1.4 5.208a5.08 5.08 0 0 1-3.4 1.309"/><path fill="#7f7f7f" d="M10.003 18.567a4.79 4.79 0 0 1-4.1-2.334 3 3 0 0 1-.259-.491 4.56 4.56 0 0 1-.433-1.967 4.8 4.8 0 0 1 4.792-4.792 4.8 4.8 0 0 1 4.791 4.792 4.5 4.5 0 0 1-.45 1.992 3.4 3.4 0 0 1-.258.483 4.76 4.76 0 0 1-4.083 2.317m0-8.334a3.55 3.55 0 0 0-3.542 3.542q.002.777.317 1.442c.066.141.125.258.191.366a3.52 3.52 0 0 0 3.025 1.734 3.52 3.52 0 0 0 3.017-1.717c.075-.125.142-.242.192-.358.225-.459.333-.942.333-1.459a3.54 3.54 0 0 0-3.533-3.55"/><path fill="#7f7f7f" d="M9.522 15.225a.62.62 0 0 1-.441-.183l-.826-.825a.63.63 0 0 1 0-.884.63.63 0 0 1 .884 0l.4.4 1.333-1.233a.63.63 0 0 1 .883.033.63.63 0 0 1-.033.884l-1.775 1.641a.65.65 0 0 1-.425.167"/></svg>