<svg xmlns="http://www.w3.org/2000/svg" width="12" height="12" fill="none" viewBox="0 0 12 12"><circle cx="6" cy="6" r="6" fill="#53b483" fill-opacity=".2"/><path stroke="#53b483" stroke-linecap="round" stroke-linejoin="round" stroke-width=".655" d="M9.602 4.048c.117.326-.046.55-.362.77-.255.177-.58.37-.925.699a10 10 0 0 0-.96 1.093c-.354.463-.69.947-.984 1.45a.6.6 0 0 1-.527.304.6.6 0 0 1-.518-.318c-.272-.495-.482-.69-.579-.761-.268-.195-.561-.229-.561-.654 0-.348.27-.63.606-.63.24.009.458.112.65.251.125.09.256.21.394.368.16-.237.354-.512.572-.796a11 11 0 0 1 1.087-1.236c.393-.375.847-.726 1.328-.912a.6.6 0 0 1 .78.372m-6.349 1.98a1 1 0 0 0-.218-.045l-.051-.002a.627.627 0 0 0-.618.635.63.63 0 0 0 .523.628.4.4 0 0 1 .05.032c.098.07.312.268.59.768a.607.607 0 0 0 .933.172m2.631-4.58c-.49.188-.953.542-1.353.92q-.21.2-.409.415"/></svg>