<svg xmlns="http://www.w3.org/2000/svg" width="18" height="18" fill="none" viewBox="0 0 18 18"><path stroke="#0b0b0b" stroke-linecap="round" stroke-linejoin="round" d="M10.5 15.75H12m-1.5 0a1.125 1.125 0 0 1-1.125-1.125V12.75H9m1.5 3h-3m1.5-3h-.375v1.875c0 .621-.504 1.125-1.125 1.125m1.5-3v3m-1.5 0H6"/><path stroke="#0b0b0b" stroke-linecap="round" stroke-linejoin="round" d="M12 2.25H6c-2.121 0-3.182 0-3.841.659S1.5 4.629 1.5 6.75v1.5c0 2.121 0 3.182.659 3.841s1.72.659 3.841.659h6c2.121 0 3.182 0 3.841-.659.659-.66.659-1.72.659-3.841v-1.5c0-2.121 0-3.182-.659-3.841-.66-.659-1.72-.659-3.841-.659"/></svg>