<svg xmlns="http://www.w3.org/2000/svg" width="20" height="20" fill="none" viewBox="0 0 20 20"><path stroke="#626262" stroke-width="1.5" d="M3.332 8.333c0-3.143 0-4.714.976-5.69.977-.977 2.548-.977 5.69-.977h1.25c3.143 0 4.715 0 5.691.976.976.977.976 2.548.976 5.69v3.334c0 3.143 0 4.714-.976 5.69-.976.977-2.548.977-5.69.977h-1.25c-3.143 0-4.714 0-5.69-.977-.977-.976-.977-2.547-.977-5.69z"/><path stroke="#626262" stroke-linejoin="round" stroke-width="1.5" d="M8.167 9.978a5.2 5.2 0 0 1-.631-1.639c-.153-.759.197-1.5.778-1.973.245-.2.526-.132.671.129l.327.587c.26.466.39.699.364.945-.026.247-.2.448-.55.85zm0 0a8.63 8.63 0 0 0 3.105 3.105m0 0c.62.356 1.126.528 1.639.631.759.153 1.5-.197 1.973-.777.2-.246.132-.527-.129-.672l-.587-.327c-.466-.26-.698-.39-.945-.364s-.448.2-.85.55z"/><path stroke="#626262" stroke-linecap="round" stroke-linejoin="round" stroke-width="1.5" d="M4.165 5H2.082m2.083 5H2.082m2.083 5H2.082"/></svg>