<svg xmlns="http://www.w3.org/2000/svg" width="24" height="24" fill="none" viewBox="0 0 24 24"><path stroke="#fff" stroke-linecap="round" stroke-width="1.5" d="M8 16h7.263c4.488 0 5.17-2.82 5.998-6.93.239-1.187.358-1.78.071-2.175s-.837-.395-1.938-.395H6"/><path stroke="#fff" stroke-linecap="round" stroke-width="1.5" d="M8 16 5.379 3.515A2 2 0 0 0 3.439 2H2.5"/><path stroke="#fff" stroke-linecap="round" stroke-linejoin="round" stroke-width="1.5" d="M8.88 16h-.411C7.105 16 6 17.151 6 18.571a.42.42 0 0 0 .411.429H17.5"/><path stroke="#fff" stroke-width="1.5" d="M10.5 22a1.5 1.5 0 1 0 0-3 1.5 1.5 0 0 0 0 3Zm7 0a1.5 1.5 0 1 0 0-3 1.5 1.5 0 0 0 0 3Z"/></svg>