<svg xmlns="http://www.w3.org/2000/svg" width="55" height="18" fill="none" viewBox="0 0 55 18"><rect width="54" height="17" x=".5" y=".5" fill="#007aff" fill-opacity=".1" rx="8.5"/><path fill="#007aff" d="M15.924 10.804h.848q.92 0 1.4-.576t.48-1.48q0-.832-.52-1.384t-1.384-.552h-.824zm-.84-4.696h1.68q1.2 0 1.968.744t.768 1.896q0 1.2-.728 1.976-.72.776-1.992.776h-1.696zm7.824 3.072v-.144q-.015-.456-.248-.72-.232-.272-.664-.272a.93.93 0 0 0-.688.296q-.288.288-.36.84zm.504 1.4v.704q-.448.256-1.184.256-.944 0-1.504-.568-.56-.569-.56-1.488 0-.975.512-1.528.512-.56 1.304-.56.776 0 1.232.488.456.48.456 1.392 0 .248-.048.52h-2.664q.08.528.448.808t.928.28q.648 0 1.08-.304m3.267-4.744v.688a1 1 0 0 0-.384-.08q-.585 0-.584.696v.304h.856v.608h-.856V11.5h-.784V8.052h-.648v-.608h.648v-.312q0-.632.336-.992.345-.368.96-.368.224 0 .456.064m2.72 3.856h-.608q-.448 0-.68.176a.55.55 0 0 0-.224.448q0 .28.176.44t.512.16q.384 0 .6-.208a.74.74 0 0 0 .224-.56zm-2.04-1.28v-.76q.472-.272 1.248-.272 1.592 0 1.592 1.544V11.5h-.776v-.48q-.312.512-1.096.512-.576 0-.928-.328a1.14 1.14 0 0 1-.344-.848q0-.584.44-.904.44-.328 1.232-.328h.672v-.232q0-.415-.2-.624-.2-.216-.664-.216-.648 0-1.176.36m6.416-.968h.784V11.5h-.784v-.696q-.32.744-1.264.744-.6 0-.952-.352-.352-.36-.352-.984V7.444H32v2.576q0 .415.2.64.208.216.568.216.456 0 .728-.32.28-.32.28-.904zm1.918 4.056V5.844h.792V11.5zm2.945-3.448v2.232q0 .585.56.584a.87.87 0 0 0 .552-.176v.704a1.34 1.34 0 0 1-.648.144q-1.256 0-1.256-1.272V8.052h-.632v-.608h.632v-.992h.792v.992h1.064v.608z"/></svg>