<svg xmlns="http://www.w3.org/2000/svg" width="80" height="80" fill="none" viewBox="0 0 80 80"><circle cx="40" cy="40" r="40" fill="#fbe9e9"/><circle cx="39.997" cy="39.999" r="33.333" fill="#f4bdbd"/><path stroke="#c62020" stroke-linecap="round" stroke-width="2.5" d="M52.859 28.856 51.797 46.04c-.272 4.391-.408 6.587-1.508 8.165a6.9 6.9 0 0 1-2.058 1.934c-1.643 1.001-3.843 1.001-8.242 1.001-4.405 0-6.607 0-8.252-1.003a6.9 6.9 0 0 1-2.058-1.937c-1.1-1.581-1.233-3.78-1.498-8.177l-1.037-17.168"/><path stroke="#c62020" stroke-linecap="round" stroke-width="2.5" d="M24.57 28.856h30.858m-8.476 0-1.17-2.415c-.778-1.603-1.167-2.405-1.837-2.905a3.4 3.4 0 0 0-.471-.295c-.743-.386-1.634-.386-3.416-.386-1.827 0-2.74 0-3.495.402a3.4 3.4 0 0 0-.477.307c-.679.52-1.057 1.351-1.815 3.014l-1.038 2.278m2.482 18.857V37.428m8.57 10.285V37.428"/></svg>