<svg xmlns="http://www.w3.org/2000/svg" width="18" height="18" fill="none" viewBox="0 0 18 18"><path stroke="#f22525" stroke-linecap="round" d="m14.625 4.125-.465 7.519c-.119 1.92-.178 2.881-.66 3.572a3 3 0 0 1-.9.846c-.718.438-1.68.438-3.605.438-1.928 0-2.891 0-3.61-.439a3 3 0 0 1-.901-.847c-.481-.692-.54-1.654-.656-3.578l-.453-7.511m-1.125 0h13.5m-3.708 0-.512-1.056c-.34-.702-.51-1.053-.804-1.271a1.5 1.5 0 0 0-.206-.13C10.195 1.5 9.806 1.5 9.026 1.5c-.8 0-1.199 0-1.53.176a1.5 1.5 0 0 0-.208.134c-.297.228-.463.591-.794 1.318l-.454.997m1.085 8.25v-4.5m3.75 4.5v-4.5"/></svg>