<svg xmlns="http://www.w3.org/2000/svg" width="30" height="30" fill="none" viewBox="0 0 30 30"><rect width="30" height="30" fill="#f7f9c8" rx="15"/><path stroke="#bb9913" stroke-linecap="round" stroke-width="1.125" d="m12.869 10.284-.302-.68c-.198-.444-.296-.666-.444-.836a1.5 1.5 0 0 0-.696-.452c-.216-.066-.459-.066-.945-.066-.711 0-1.067 0-1.365.137-.352.16-.67.51-.796.876-.107.31-.077.63-.015 1.267q.982 10.183 11.164 11.164c.638.062.957.092 1.267-.015.366-.127.715-.444.876-.796.137-.298.137-.654.137-1.365 0-.486 0-.73-.066-.945a1.5 1.5 0 0 0-.452-.696c-.17-.147-.392-.246-.837-.444l-.68-.302c-.48-.214-.72-.32-.965-.344-.234-.022-.47.01-.69.096-.228.09-.43.258-.835.595-.402.335-.604.503-.85.593a1.6 1.6 0 0 1-.736.075c-.259-.038-.457-.144-.854-.356-1.235-.66-1.915-1.34-2.575-2.575-.212-.397-.318-.595-.356-.854a1.6 1.6 0 0 1 .075-.736c.09-.246.258-.448.593-.85.337-.405.506-.607.595-.836.085-.219.118-.455.096-.689-.023-.244-.13-.485-.344-.966Z"/></svg>