<svg xmlns="http://www.w3.org/2000/svg" width="107" height="23" fill="none" viewBox="0 0 107 23"><g fill="#53b483" clip-path="url(#a)"><rect width="10" height="10" x=".5" y="6.5" rx="5"/><path d="M16.636 13.956h1.272q1.38 0 2.1-.864t.72-2.22q0-1.248-.78-2.076t-2.076-.828h-1.236zm-1.26-7.044h2.52q1.8 0 2.952 1.116T22 10.872q0 1.8-1.092 2.964Q19.828 15 17.92 15h-2.544zm11.736 4.608v-.216q-.024-.684-.372-1.08-.348-.408-.996-.408-.6 0-1.032.444-.432.432-.54 1.26zm.756 2.1v1.056q-.672.384-1.776.384-1.416 0-2.256-.852t-.84-2.232q0-1.464.768-2.292.768-.84 1.956-.84 1.164 0 1.848.732.684.72.684 2.088 0 .372-.072.78h-3.996q.12.792.672 1.212t1.392.42q.972 0 1.62-.456M29.685 15V6.516h1.188V15zm2.941 0V8.916h1.188V15zm.06-7.416a.74.74 0 0 1-.204-.528.74.74 0 0 1 .204-.528.72.72 0 0 1 .528-.216q.312 0 .528.216t.216.528q0 .3-.216.516a.72.72 0 0 1-.528.216.74.74 0 0 1-.528-.204M37.079 15l-2.16-6.084h1.236l.828 2.568q.288.888.48 1.536.204.648.252.852l.048.204q.108-.588.792-2.592l.852-2.568h1.224L38.423 15zm8.385-3.48v-.216q-.025-.684-.372-1.08-.349-.408-.996-.408-.6 0-1.032.444-.432.432-.54 1.26zm.755 2.1v1.056q-.671.384-1.776.384-1.416 0-2.255-.852-.84-.852-.84-2.232 0-1.464.767-2.292.768-.84 1.956-.84 1.165 0 1.849.732.684.72.683 2.088 0 .372-.072.78h-3.995q.12.792.672 1.212.55.42 1.392.42.972 0 1.62-.456m2.945-4.704v1.068q.444-1.128 1.596-1.128.168 0 .372.036v1.152a1.4 1.4 0 0 0-.564-.108q-.612 0-1.008.54t-.396 1.284V15h-1.176V8.916zm6.67 2.604v-.216q-.024-.684-.371-1.08-.348-.408-.996-.408-.6 0-1.032.444-.432.432-.54 1.26zm.757 2.1v1.056q-.672.384-1.776.384-1.416 0-2.256-.852t-.84-2.232q0-1.464.768-2.292.768-.84 1.956-.84 1.164 0 1.848.732.684.72.684 2.088 0 .372-.072.78h-3.996q.12.792.672 1.212t1.392.42q.972 0 1.62-.456m4.228.432q.696 0 1.176-.528t.48-1.608q0-1.044-.504-1.548-.492-.504-1.116-.504-.708 0-1.164.564-.456.552-.456 1.584 0 .912.444 1.476.456.564 1.14.564m1.656-7.536h1.188V15h-1.188v-.924q-.636 1.008-1.86 1.008-1.2 0-1.896-.9-.696-.912-.696-2.196 0-1.428.732-2.292t1.884-.864q1.188 0 1.836 1.008z"/></g><defs><clipPath id="a"><rect width="106" height="23" x=".5" fill="#fff" rx="11.5"/></clipPath></defs></svg>