<svg xmlns="http://www.w3.org/2000/svg" width="18" height="18" fill="none" viewBox="0 0 18 18"><path stroke="#0b0b0b" stroke-linecap="round" stroke-linejoin="round" d="M3.375 7.699V4.5h11.25v3.199c0 2.381 0 3.572-.732 4.311-.732.74-1.911.74-4.268.74h-1.25c-2.357 0-3.536 0-4.268-.74s-.732-1.93-.732-4.311"/><path stroke="#0b0b0b" stroke-linecap="round" d="m3.375 4.5.54-1.154c.42-.895.63-1.342 1.055-1.594S5.94 1.5 7.031 1.5h3.938c1.09 0 1.636 0 2.06.252.426.252.636.7 1.055 1.594l.541 1.154M7.875 6.75h2.25"/><path stroke="#0b0b0b" stroke-linecap="round" stroke-linejoin="round" d="M3 16.5h6m0 0h6m-6 0v-1.875"/></svg>