<svg xmlns="http://www.w3.org/2000/svg" width="52" height="52" fill="none" viewBox="0 0 52 52"><path stroke="#53b483" stroke-linecap="round" stroke-linejoin="round" stroke-width="3.9" d="M47.471 14.366c.694 1.945-.279 3.276-2.162 4.587-1.52 1.059-3.455 2.205-5.506 4.165-2.011 1.92-3.974 4.235-5.718 6.512-2.113 2.76-4.112 5.643-5.87 8.645-.664 1.136-1.857 1.825-3.136 1.808-1.279-.018-2.454-.738-3.088-1.892-1.622-2.953-2.874-4.119-3.45-4.538-1.596-1.162-3.346-1.363-3.346-3.898 0-2.074 1.617-3.755 3.612-3.755 1.427.057 2.734.668 3.876 1.5.741.54 1.527 1.253 2.344 2.193a101 101 0 0 1 3.408-4.742c1.88-2.455 4.1-5.09 6.481-7.364 2.34-2.236 5.046-4.329 7.913-5.435 1.87-.722 3.949.27 4.642 2.214M9.641 26.163a6 6 0 0 0-.925-.226 5 5 0 0 0-.374-.044l-.306-.012c-2.033 0-3.68 1.696-3.68 3.787 0 1.893 1.35 3.461 3.112 3.742.062.033.162.091.298.19.586.421 1.862 1.597 3.516 4.575a3.67 3.67 0 0 0 3.148 1.908 3.62 3.62 0 0 0 2.41-.883m15.682-27.284c-2.923 1.116-5.68 3.226-8.066 5.48a52 52 0 0 0-2.433 2.47"/></svg>