<svg xmlns="http://www.w3.org/2000/svg" width="18" height="18" fill="none" viewBox="0 0 18 18"><path stroke="#0b0b0b" stroke-linecap="round" stroke-linejoin="round" d="M5.8 10.3s.68-.917 1.126-1.126c1.346-.63 1.62-.904 2.25-2.25.209-.447 1.125-1.126 1.125-1.126m-2.625 6.377s.916-.68 1.125-1.126c.63-1.346.904-1.62 2.25-2.25.446-.209 1.125-1.126 1.125-1.126"/><path stroke="#0b0b0b" d="M10.823 2.169a.975.975 0 0 1 1.38-.003l3.608 3.599c.381.38.382.998.002 1.38l-1.146 1.15a.975.975 0 0 1-1.38.002L9.68 4.698a.976.976 0 0 1-.002-1.379zM3.31 9.676a.975.975 0 0 1 1.38-.002l3.608 3.599c.381.38.382.998.002 1.38l-1.146 1.15a.975.975 0 0 1-1.38.002l-3.608-3.599a.975.975 0 0 1-.002-1.38z"/><path stroke="#0b0b0b" stroke-linecap="round" stroke-linejoin="round" d="M13.453 2.59c1.412-1.85 3.902.29 1.954 1.932M2.534 13.483c-1.785 1.493.464 3.886 2.017 1.866"/></svg>