<svg xmlns="http://www.w3.org/2000/svg" width="114" height="112" fill="none" viewBox="0 0 114 112"><path fill="#b9b9b9" fill-rule="evenodd" d="M43.672 9.78a8.2 8.2 0 0 1 7.886-5.96h30.225a21 21 0 0 0-6.37 5.96zm30.009 2.98H29.953a8.94 8.94 0 0 0-8.94 8.94v55.13h46.935c.823 0 1.49.668 1.49 1.49v7.823c0 6.378 5.17 11.548 11.548 11.548 6.377 0 11.547-5.17 11.547-11.548V42.561c-11.52 0-20.86-9.34-20.86-20.86 0-3.2.72-6.23 2.008-8.94m21.832 29.59v41.807a8.94 8.94 0 0 0 7.45-8.816V39.77a20.7 20.7 0 0 1-7.45 2.579m10.43-4.67v37.66c0 6.092-4.568 11.116-10.465 11.833-.529 7.543-6.815 13.498-14.492 13.498q-.195 0-.389-.005l.016.005h-53.64c-8.229 0-14.9-6.671-14.9-14.9v-2.98a5.96 5.96 0 0 1 5.96-5.96V21.7c0-6.583 5.337-11.92 11.92-11.92h10.654C41.642 4.68 46.152.84 51.558.84h39.485v.052q.74-.052 1.49-.052c11.521 0 20.86 9.34 20.86 20.86 0 6.414-2.895 12.152-7.45 15.979M3.878 91.358a1.117 1.117 0 1 1 2.235 0v.373c0 8.229 6.671 14.9 14.9 14.9h3.427a1.043 1.043 0 1 1 0 2.086h-3.427c-9.89 0-17.135-7.127-17.135-16.986zm1.118-4.097a4.097 4.097 0 0 0-4.098 4.097v.373c0 11.536 8.61 19.966 20.115 19.966h3.427a4.023 4.023 0 1 0 0-8.046h-3.427c-6.583 0-11.92-5.337-11.92-11.92v-.373a4.097 4.097 0 0 0-4.097-4.097m23.467-35.015a3.725 3.725 0 0 1 3.725-3.725h22.35a3.725 3.725 0 0 1 0 7.45h-22.35a3.725 3.725 0 0 1-3.725-3.725m3.725-.745a.745.745 0 0 0 0 1.49h22.35a.745.745 0 1 0 0-1.49zm8.872-8.706q.17.17.537.17.315 0 .458-.17.157-.17.157-.537v-1.06a5.7 5.7 0 0 0 2.214-.695q.995-.576 1.597-1.676.615-1.113.616-2.75 0-1.414-.642-2.331-.641-.93-1.493-1.428-.85-.497-2.291-1.126v-3.535a5.2 5.2 0 0 1 1.1.143q.457.12.93.302.327.13.431.13.262 0 .55-.366.302-.366.511-.851.21-.498.21-.812 0-.354-.485-.707-.471-.354-1.336-.603a8 8 0 0 0-1.912-.288v-.72q0-.38-.157-.537-.156-.157-.537-.157-.314 0-.471.17-.157.158-.157.524v.733a6.6 6.6 0 0 0-2.331.694 4.36 4.36 0 0 0-1.69 1.572q-.628 1.008-.628 2.475 0 1.545.668 2.514.681.956 1.584 1.454.916.485 2.397 1.035v3.837a4.8 4.8 0 0 1-1.493-.223q-.668-.223-1.375-.576-.498-.262-.655-.262-.235 0-.59.366-.352.354-.615.852-.249.496-.249.838 0 .405.59.864.602.459 1.728.799 1.14.327 2.659.38v1.021q0 .368.17.537m-1.113-14.484q.261-.353.943-.524v2.803q-.59-.34-.904-.707a1.32 1.32 0 0 1-.301-.865q0-.366.262-.707m2.999 9.089a1.7 1.7 0 0 1-.733.537V34.99q1.008.575 1.008 1.52 0 .536-.275.89M28.463 64.166a3.725 3.725 0 0 1 3.725-3.725h44.7a3.725 3.725 0 0 1 0 7.45h-44.7a3.725 3.725 0 0 1-3.725-3.725m3.725-.745a.745.745 0 0 0 0 1.49h44.7a.745.745 0 1 0 0-1.49zM74.653 21.7c0-9.875 8.006-17.88 17.88-17.88 9.875 0 17.88 8.005 17.88 17.88s-8.005 17.88-17.88 17.88-17.88-8.005-17.88-17.88m14.155-9.685a3.725 3.725 0 0 1 7.45 0v8.94a3.725 3.725 0 1 1-7.45 0zm3.725-.745a.745.745 0 0 0-.745.745v8.94a.745.745 0 0 0 1.49 0v-8.94a.745.745 0 0 0-.745-.745m0 23.84a3.725 3.725 0 1 1 0-7.45 3.725 3.725 0 0 1 0 7.45m-.745-3.725a.745.745 0 1 0 1.49 0 .745.745 0 0 0-1.49 0" clip-rule="evenodd"/></svg>