<svg xmlns="http://www.w3.org/2000/svg" width="159" height="114" fill="none" viewBox="0 0 159 114"><circle cx="85.5" cy="57" r="57" fill="#f3faeb"/><circle cx="86" cy="57" r="47" fill="#e6f2d5"/><circle cx="85.5" cy="57.5" r="37.5" fill="#cee7af"/><path fill="#436724" d="M86.283 69.437H69.786V42.75h16.497v2.408h2.826v-5.194A2.96 2.96 0 0 0 86.144 37H69.965A2.96 2.96 0 0 0 67 39.965V74.71a2.977 2.977 0 0 0 2.965 2.985h16.178a2.977 2.977 0 0 0 2.965-2.985V63.227H86.28v6.208zM75.557 39.189h4.915c.378 0 .696.298.696.696a.704.704 0 0 1-.696.696h-4.915a.69.69 0 0 1-.696-.696.68.68 0 0 1 .696-.696m4.836 35.024a.603.603 0 0 1-.617.597h-3.424a.603.603 0 0 1-.617-.597v-1.314a.62.62 0 0 1 .617-.616h3.424a.62.62 0 0 1 .617.616z"/><path fill="#436724" d="M102.827 47.344H75.865a2.675 2.675 0 0 0-2.674 2.672v8.343a2.674 2.674 0 0 0 2.674 2.672h2.882l-.42 3.6c-.102.87.974 1.355 1.56.702l3.863-4.302h19.077a2.67 2.67 0 0 0 2.672-2.672v-8.343a2.674 2.674 0 0 0-2.674-2.674zm-19.852 7.688a.795.795 0 0 1-.795 1.375l-1.46-.843v1.687a.794.794 0 0 1-1.586 0v-1.687l-1.462.844a.796.796 0 0 1-1.163-.895.8.8 0 0 1 .37-.48l1.46-.844-1.46-.843a.8.8 0 0 1-.37-.484.79.79 0 0 1 .56-.972.78.78 0 0 1 .603.08l1.46.843v-1.686a.793.793 0 1 1 1.587 0v1.685l1.461-.844a.793.793 0 0 1 1.084.291.796.796 0 0 1-.29 1.087l-1.46.843 1.46.843m9.42 0a.795.795 0 0 1-.795 1.375l-1.46-.843v1.687a.795.795 0 0 1-1.588 0v-1.687l-1.461.844a.8.8 0 0 1-1.086-.291.794.794 0 0 1 .291-1.085l1.46-.843-1.46-.843a.8.8 0 0 1-.37-.484.8.8 0 0 1 .079-.602.796.796 0 0 1 1.084-.292l1.461.844v-1.685a.795.795 0 0 1 1.588 0v1.685l1.46-.844a.793.793 0 0 1 1.085.291.796.796 0 0 1-.291 1.087l-1.46.843 1.46.843zm9.419 0a.793.793 0 0 1-.398 1.483.8.8 0 0 1-.397-.107l-1.46-.844v1.687a.795.795 0 0 1-.793.793.795.795 0 0 1-.794-.793v-1.687l-1.46.844a.797.797 0 0 1-1.166-.895.8.8 0 0 1 .369-.48l1.46-.844-1.46-.843a.8.8 0 0 1-.37-.484.78.78 0 0 1 .08-.602.78.78 0 0 1 .483-.37.78.78 0 0 1 .602.08l1.46.843v-1.685a.793.793 0 1 1 1.587 0v1.685l1.461-.843a.79.79 0 0 1 1.084.291.797.797 0 0 1-.291 1.086l-1.459.844 1.459.843z"/><circle cx="153" cy="14" r="6" fill="#56862a"/><circle cx="6" cy="89" r="6" fill="#56862a"/></svg>