<svg xmlns="http://www.w3.org/2000/svg" width="20" height="21" fill="none" viewBox="0 0 20 21"><g clip-path="url(#a)"><path fill="#1877f2" d="M20 10.5c0-5.523-4.477-10-10-10S0 4.977 0 10.5c0 4.991 3.657 9.128 8.438 9.878v-6.987h-2.54V10.5h2.54V8.297c0-2.506 1.492-3.89 3.777-3.89 1.094 0 2.238.195 2.238.195v2.46h-1.26c-1.243 0-1.63.771-1.63 1.562V10.5h2.773l-.443 2.89h-2.33v6.988C16.343 19.629 20 15.491 20 10.5"/><path fill="#fff" d="m13.893 13.39.443-2.89h-2.774V8.624c0-.79.388-1.562 1.63-1.562h1.261v-2.46s-1.144-.196-2.238-.196c-2.285 0-3.777 1.385-3.777 3.89V10.5h-2.54v2.89h2.54v6.988a10 10 0 0 0 3.124 0v-6.987z"/></g><defs><clipPath id="a"><path fill="#fff" d="M0 .5h20v20H0z"/></clipPath></defs></svg>