<svg xmlns="http://www.w3.org/2000/svg" width="18" height="18" fill="none" viewBox="0 0 18 18"><path stroke="#0b0b0b" stroke-linecap="round" stroke-linejoin="round" d="M8.25 5.25h4.5m-4.5-1.5v3a2.25 2.25 0 1 0 4.5 0v-3a2.25 2.25 0 1 0-4.5 0M3 10.5h1.796c.22 0 .438.05.636.145l1.531.741c.197.096.415.145.636.145h.782c.756 0 1.369.594 1.369 1.326 0 .03-.02.055-.05.063l-1.905.527a1.46 1.46 0 0 1-1.026-.092l-1.637-.792"/><path stroke="#0b0b0b" stroke-linecap="round" stroke-linejoin="round" d="m9.75 12.375 3.445-1.058c.61-.19 1.27.035 1.653.565a.807.807 0 0 1-.24 1.164l-5.636 3.252a1.5 1.5 0 0 1-1.176.14L3 15.015"/></svg>