<svg xmlns="http://www.w3.org/2000/svg" width="20" height="21" fill="none" viewBox="0 0 20 21"><path fill="#ffc107" d="M18.17 8.868h-.67v-.034H10v3.333h4.709a4.998 4.998 0 0 1-9.71-1.667 5 5 0 0 1 5-5c1.275 0 2.435.481 3.317 1.267l2.358-2.358a8.3 8.3 0 0 0-5.675-2.242 8.334 8.334 0 1 0 8.172 6.701"/><path fill="#ff3d00" d="m2.627 6.622 2.738 2.007A5 5 0 0 1 9.999 5.5c1.275 0 2.435.481 3.317 1.267l2.358-2.358a8.3 8.3 0 0 0-5.675-2.242 8.33 8.33 0 0 0-7.372 4.455"/><path fill="#4caf50" d="M10 18.834a8.3 8.3 0 0 0 5.588-2.164l-2.58-2.182a4.96 4.96 0 0 1-3.007 1.012A5 5 0 0 1 5.3 12.19l-2.718 2.093a8.33 8.33 0 0 0 7.419 4.55"/><path fill="#1976d2" d="M18.171 8.868H17.5v-.035H10v3.333h4.71a5 5 0 0 1-1.703 2.322v-.001l2.58 2.182c-.182.166 2.746-2.003 2.746-6.17 0-.558-.057-1.103-.162-1.631"/></svg>