<svg xmlns="http://www.w3.org/2000/svg" width="18" height="18" fill="none" viewBox="0 0 18 18"><path stroke="#56862a" stroke-linecap="round" stroke-linejoin="round" d="m10.332 1.71 1.475 2.975c.2.414.737.811 1.19.888l2.673.447c1.71.288 2.113 1.538.88 2.772l-2.078 2.096c-.352.355-.545 1.04-.436 1.53l.595 2.594c.47 2.053-.612 2.848-2.414 1.775L9.711 15.29c-.452-.27-1.198-.27-1.66 0l-2.505 1.496c-1.794 1.073-2.884.27-2.414-1.775l.595-2.594c.109-.49-.084-1.175-.436-1.53L1.213 8.792c-1.224-1.234-.83-2.484.88-2.772l2.673-.447c.444-.077.98-.474 1.182-.888l1.475-2.974c.805-1.615 2.112-1.615 2.909 0"/></svg>