<svg xmlns="http://www.w3.org/2000/svg" width="25" height="16" fill="none" viewBox="0 0 25 16"><path fill="#7f7f7f" d="M20.258 0H4.207A4.213 4.213 0 0 0 0 4.209v7.584A4.21 4.21 0 0 0 4.207 16h16.05a4.21 4.21 0 0 0 4.207-4.207V4.21A4.21 4.21 0 0 0 20.258 0m3.727 11.793a3.73 3.73 0 0 1-3.728 3.728H4.207a3.73 3.73 0 0 1-3.728-3.728L.48 4.21A3.733 3.733 0 0 1 4.208.479h16.05a3.734 3.734 0 0 1 3.727 3.73z"/><path fill="#7f7f7f" d="M12.231 1.96a4.166 4.166 0 0 0-4.16 4.16 4.16 4.16 0 0 0 4.16 4.162 4.16 4.16 0 0 0 4.164-4.161 4.17 4.17 0 0 0-4.164-4.161m0 7.843c-.736 0-1.499-.23-2.137-.686a2.6 2.6 0 0 1 2.137-1.125c.89 0 1.672.443 2.14 1.125a3.74 3.74 0 0 1-2.14.686m2.507-.989a3.03 3.03 0 0 0-2.507-1.302c-1 0-1.935.49-2.506 1.3A3.66 3.66 0 0 1 8.55 6.12a3.687 3.687 0 0 1 3.68-3.68 3.69 3.69 0 0 1 3.685 3.681 3.68 3.68 0 0 1-1.178 2.694"/><path fill="#7f7f7f" d="M12.23 3.54c-.978 0-1.775.797-1.775 1.775a1.775 1.775 0 0 0 3.55 0c0-.98-.796-1.775-1.775-1.775m0 3.067c-.714 0-1.294-.58-1.294-1.293a1.296 1.296 0 0 1 2.589 0c0 .713-.58 1.293-1.295 1.293m6.643 4.387H5.59a1.452 1.452 0 0 0 0 2.903h13.284c.799 0 1.452-.653 1.452-1.452s-.652-1.45-1.452-1.45m-11.186 1.69a.24.24 0 0 1 0 .339.24.24 0 0 1-.339 0l-.24-.24-.237.24a.24.24 0 0 1-.34 0 .24.24 0 0 1 0-.339l.24-.24-.24-.24a.24.24 0 0 1 0-.338.24.24 0 0 1 .34 0l.238.24.24-.24a.24.24 0 0 1 .338 0 .24.24 0 0 1 0 .339l-.238.24zm2.561 0a.24.24 0 0 1 0 .339.24.24 0 0 1-.338 0l-.24-.24-.24.24a.24.24 0 0 1-.339 0 .24.24 0 0 1 0-.339l.24-.24-.24-.24a.24.24 0 0 1 0-.338.24.24 0 0 1 .339 0l.24.24.24-.24a.24.24 0 0 1 .338 0 .24.24 0 0 1 0 .339l-.24.24zm2.562 0a.24.24 0 0 1 0 .339.24.24 0 0 1-.34 0l-.238-.241-.24.24a.24.24 0 0 1-.338 0 .24.24 0 0 1 0-.339l.237-.24-.237-.24a.24.24 0 0 1 0-.338.24.24 0 0 1 .338 0l.24.24.238-.24a.24.24 0 0 1 .34 0 .24.24 0 0 1 0 .339l-.24.24zm2.561 0a.24.24 0 0 1 0 .339.24.24 0 0 1-.34 0l-.24-.24-.238.24a.24.24 0 0 1-.34 0 .24.24 0 0 1 0-.339l.24-.24-.24-.24a.24.24 0 0 1 0-.338.24.24 0 0 1 .34 0l.238.24.24-.24a.24.24 0 0 1 .34 0 .24.24 0 0 1 0 .339l-.24.24zm2.56 0a.24.24 0 0 1 0 .339.24.24 0 0 1-.34 0l-.239-.24-.238.24a.24.24 0 0 1-.34 0 .24.24 0 0 1 0-.339l.24-.24-.24-.24a.24.24 0 0 1 0-.338.24.24 0 0 1 .34 0l.238.24.24-.24a.24.24 0 0 1 .338 0 .24.24 0 0 1 0 .339l-.237.24z"/></svg>