<svg xmlns="http://www.w3.org/2000/svg" width="80" height="80" fill="none" viewBox="0 0 80 80"><circle cx="40" cy="40" r="40" fill="#f3faeb"/><circle cx="40.189" cy="40.191" r="33.333" fill="#e6f2d5"/><path fill="#56862a" d="m48.35 53.27-9.752 4.88V39.46l17.41-8.704v9.774c0 .4.078-.118.479-.118s.972.938.972.538V29.582a.72.72 0 0 0-.4-.648l-18.861-9.43a.73.73 0 0 0-.649 0l-18.863 9.428a.73.73 0 0 0-.4.649v20.313c0 .275.154.525.4.648l18.861 9.43a.72.72 0 0 0 .65 0l10.155-5.033c.357-.179-.295-.18-.474-.538-.179-.357-.538 0-.242-.774zM29.338 33.935l17.24-8.62 8.534 4.267-17.24 8.619zm8.535-12.974 7.083 3.541-17.24 8.619-7.083-3.54zm-18.136 9.795 7.253 3.627v3.179a.726.726 0 0 0 1.452 0v-2.453l8.704 4.352V58.15l-17.41-8.705z"/><path fill="#56862a" d="M47.956 39.05a.73.73 0 0 0-.974-.324l-6.53 3.265a.726.726 0 1 0 .648 1.296l6.53-3.265a.727.727 0 0 0 .325-.973z"/><circle cx="53.486" cy="48.169" r="8.565" stroke="#56862a" stroke-width="1.614"/><path fill="#56862a" d="M47.371 48.3a.5.5 0 0 1 0-.353 6.66 6.66 0 0 1 6.226-4.337c.878 0 1.746.176 2.555.517l-1.831 1.831a2.284 2.284 0 0 0-2.89 2.89l-2.17 2.171a6.6 6.6 0 0 1-1.89-2.718m12.451-.353a6.6 6.6 0 0 0-1.885-2.714l-2.173 2.172a2.283 2.283 0 0 1-2.886 2.886l-1.831 1.832c.807.34 1.674.515 2.55.515a6.66 6.66 0 0 0 6.225-4.337.5.5 0 0 0 0-.354m-4.29-1.032 2.003-2.002.939-.939a.51.51 0 1 0-.723-.723l-1.107 1.107-1.833 1.833-3.148 3.148-2 2-.94.942a.51.51 0 1 0 .721.721l1.11-1.11 1.832-1.832z"/></svg>