<svg xmlns="http://www.w3.org/2000/svg" width="20" height="20" fill="none" viewBox="0 0 20 20"><circle cx="10" cy="10" r="9.139" stroke="#626262" stroke-width="1.722"/><path fill="#626262" d="M3.479 10.139a.55.55 0 0 1 0-.378 7.11 7.11 0 0 1 6.642-4.627c.936 0 1.863.188 2.726.552L10.893 7.64a2.437 2.437 0 0 0-3.083 3.083L5.495 13.04a7.05 7.05 0 0 1-2.016-2.9m13.284-.378a7.06 7.06 0 0 0-2.011-2.895l-2.32 2.318a2.435 2.435 0 0 1-3.078 3.079L7.4 14.216c.861.364 1.786.55 2.72.55a7.105 7.105 0 0 0 6.643-4.627.55.55 0 0 0 0-.378m-4.577-1.1 2.137-2.137 1.001-1.001a.545.545 0 1 0-.771-.771l-1.181 1.18-1.955 1.956-3.359 3.358-2.133 2.134-1.005 1.005a.544.544 0 1 0 .77.77l1.184-1.184 1.955-1.955z"/></svg>