<svg xmlns="http://www.w3.org/2000/svg" width="20" height="20" fill="none" viewBox="0 0 20 20"><path stroke="#7f7f7f" stroke-width="1.5" d="m7.501 18.333-.209-2.924a2.716 2.716 0 1 1 5.418 0l-.209 2.924"/><path stroke="#7f7f7f" stroke-linejoin="round" stroke-width="1.5" d="M1.96 11.012c-.293-1.915-.44-2.872-.079-3.72.362-.85 1.165-1.43 2.771-2.59l1.2-.868c1.998-1.445 2.997-2.167 4.15-2.167 1.152 0 2.15.722 4.148 2.167l1.2.867c1.606 1.161 2.41 1.742 2.771 2.59.362.849.215 1.806-.08 3.72l-.25 1.633c-.417 2.714-.626 4.07-1.599 4.88s-2.396.81-5.242.81H9.052c-2.845 0-4.268 0-5.242-.81-.973-.81-1.181-2.166-1.598-4.88z"/></svg>