<svg xmlns="http://www.w3.org/2000/svg" width="18" height="18" fill="none" viewBox="0 0 18 18"><path stroke="#0b0b0b" stroke-linecap="round" stroke-linejoin="round" d="M16.5 7.875 9.662 2.117a1.03 1.03 0 0 0-1.324 0L1.5 7.875"/><path stroke="#0b0b0b" stroke-linecap="round" stroke-linejoin="round" d="M15.375 7.125V12c0 1.76 0 2.639-.465 3.245a2.3 2.3 0 0 1-.415.415c-.606.465-1.486.465-3.245.465V12.75c0-1.06 0-1.591-.33-1.92-.329-.33-.86-.33-1.92-.33s-1.591 0-1.92.33c-.33.329-.33.86-.33 1.92v3.375c-1.76 0-2.639 0-3.245-.465a2.3 2.3 0 0 1-.415-.415c-.465-.606-.465-1.486-.465-3.245V7.125"/></svg>