<svg xmlns="http://www.w3.org/2000/svg" width="50" height="50" fill="none" viewBox="0 0 50 50"><path fill="#436724" d="M20.839 25.064a4.17 4.17 0 1 1 8.338 0 4.17 4.17 0 1 1-8.338 0m-2.254 0a6.423 6.423 0 1 0 12.845 0 6.423 6.423 0 1 0-12.845 0m11.598-6.68a1.502 1.502 0 1 0 3.005.002 1.502 1.502 0 0 0-3.005-.001M19.955 35.249c-1.22-.056-1.883-.26-2.323-.43a3.9 3.9 0 0 1-1.439-.937 3.86 3.86 0 0 1-.935-1.438c-.172-.44-.375-1.103-.43-2.323-.061-1.319-.073-1.715-.073-5.056s.013-3.736.072-5.056c.056-1.22.26-1.882.43-2.323a3.9 3.9 0 0 1 .936-1.44 3.86 3.86 0 0 1 1.439-.935c.44-.172 1.103-.375 2.322-.43 1.319-.061 1.715-.074 5.054-.074 3.338 0 3.735.014 5.054.073 1.22.056 1.881.26 2.323.43.584.227 1 .499 1.438.936s.709.855.936 1.44c.172.44.375 1.103.43 2.323.06 1.32.073 1.715.073 5.056s-.012 3.736-.073 5.056c-.055 1.22-.26 1.883-.43 2.323a3.9 3.9 0 0 1-.936 1.438 3.9 3.9 0 0 1-1.438.936c-.44.172-1.103.375-2.323.43-1.318.061-1.714.073-5.055.073s-3.735-.012-5.053-.072m-.104-22.62c-1.332.061-2.241.272-3.036.582a6.1 6.1 0 0 0-2.216 1.443 6.1 6.1 0 0 0-1.442 2.216c-.31.795-.52 1.705-.581 3.037-.062 1.334-.076 1.76-.076 5.158s.014 3.824.076 5.158c.06 1.332.271 2.241.58 3.037.32.822.747 1.521 1.443 2.216a6.15 6.15 0 0 0 2.216 1.443c.796.31 1.704.52 3.036.581 1.334.06 1.76.076 5.157.076 3.396 0 3.823-.014 5.156-.076 1.332-.06 2.24-.272 3.036-.581a6.15 6.15 0 0 0 2.216-1.443 6.1 6.1 0 0 0 1.442-2.216c.31-.796.522-1.705.581-3.037.06-1.335.075-1.76.075-5.158s-.014-3.824-.075-5.158c-.06-1.332-.272-2.242-.58-3.037a6.15 6.15 0 0 0-1.443-2.216A6.1 6.1 0 0 0 33.2 13.21c-.796-.31-1.705-.522-3.036-.582-1.334-.06-1.76-.075-5.156-.075s-3.824.014-5.158.075"/><path fill="#436724" d="M20.839 25.064a4.17 4.17 0 1 1 8.338 0 4.17 4.17 0 1 1-8.338 0m-2.254 0a6.423 6.423 0 1 0 12.845 0 6.423 6.423 0 1 0-12.845 0m11.598-6.68a1.502 1.502 0 1 0 3.005.002 1.502 1.502 0 0 0-3.005-.001M19.955 35.249c-1.22-.056-1.883-.26-2.323-.43a3.9 3.9 0 0 1-1.439-.937 3.86 3.86 0 0 1-.935-1.438c-.172-.44-.375-1.103-.43-2.323-.061-1.319-.073-1.715-.073-5.056s.013-3.736.072-5.056c.056-1.22.26-1.882.43-2.323a3.9 3.9 0 0 1 .936-1.44 3.86 3.86 0 0 1 1.439-.935c.44-.172 1.103-.375 2.322-.43 1.319-.061 1.715-.074 5.054-.074 3.338 0 3.735.014 5.054.073 1.22.056 1.881.26 2.323.43.584.227 1 .499 1.438.936s.709.855.936 1.44c.172.44.375 1.103.43 2.323.06 1.32.073 1.715.073 5.056s-.012 3.736-.073 5.056c-.055 1.22-.26 1.883-.43 2.323a3.9 3.9 0 0 1-.936 1.438 3.9 3.9 0 0 1-1.438.936c-.44.172-1.103.375-2.323.43-1.318.061-1.714.073-5.055.073s-3.735-.012-5.053-.072m-.104-22.62c-1.332.061-2.241.272-3.036.582a6.1 6.1 0 0 0-2.216 1.443 6.1 6.1 0 0 0-1.442 2.216c-.31.795-.52 1.705-.581 3.037-.062 1.334-.076 1.76-.076 5.158s.014 3.824.076 5.158c.06 1.332.271 2.241.58 3.037.32.822.747 1.521 1.443 2.216a6.15 6.15 0 0 0 2.216 1.443c.796.31 1.704.52 3.036.581 1.334.06 1.76.076 5.157.076 3.396 0 3.823-.014 5.156-.076 1.332-.06 2.24-.272 3.036-.581a6.15 6.15 0 0 0 2.216-1.443 6.1 6.1 0 0 0 1.442-2.216c.31-.796.522-1.705.581-3.037.06-1.335.075-1.76.075-5.158s-.014-3.824-.075-5.158c-.06-1.332-.272-2.242-.58-3.037a6.15 6.15 0 0 0-1.443-2.216A6.1 6.1 0 0 0 33.2 13.21c-.796-.31-1.705-.522-3.036-.582-1.334-.06-1.76-.075-5.156-.075s-3.824.014-5.158.075"/></svg>