<svg xmlns="http://www.w3.org/2000/svg" width="50" height="50" fill="none" viewBox="0 0 50 50"><path fill="#436724" d="M19.248 35.133V21.626h-4.486v13.506zm-2.242-15.35c1.564 0 2.538-1.038 2.538-2.334-.03-1.326-.974-2.334-2.508-2.334s-2.538 1.008-2.538 2.334c0 1.296.973 2.333 2.479 2.333zm4.724 15.35h4.485V27.59c0-.404.03-.808.148-1.096.324-.806 1.062-1.642 2.302-1.642 1.622 0 2.272 1.239 2.272 3.055v7.224h4.485v-7.744c0-4.148-2.213-6.079-5.164-6.079-2.42 0-3.482 1.354-4.072 2.276h.03v-1.959H21.73c.058 1.268 0 13.506 0 13.506"/></svg>