<svg xmlns="http://www.w3.org/2000/svg" width="40" height="40" fill="none" viewBox="0 0 40 40"><rect width="40" height="40" fill="#e6f2d5" rx="20"/><path fill="#669934" d="M13.519 18.978a.55.55 0 0 1-.408-.178l-.74-.8a.556.556 0 0 1 .815-.755l.333.36.704-.76a.556.556 0 0 1 .814.755l-1.11 1.2a.55.55 0 0 1-.408.178m10.371-.4h-7.41a.556.556 0 0 1 0-1.111h7.408a.556.556 0 0 1 0 1.111m-10.369 4.8a.55.55 0 0 1-.408-.178l-.74-.8a.556.556 0 0 1 .815-.756l.333.36.704-.76a.556.556 0 0 1 .814.756l-1.11 1.2a.55.55 0 0 1-.408.178m7.037-.401H16.48a.556.556 0 0 1 0-1.11h4.075a.556.556 0 0 1 0 1.11m-7.036 4.802a.56.56 0 0 1-.408-.178l-.74-.8a.556.556 0 0 1 .815-.756l.333.36.704-.76a.557.557 0 0 1 .814.756l-1.11 1.2a.56.56 0 0 1-.408.178m7.037-.4H16.48a.556.556 0 0 1 0-1.111h4.075a.556.556 0 0 1 0 1.11"/><path fill="#669934" d="M23.47 31.112H11.668c-.92 0-1.667-.747-1.667-1.667V13.148c0-.92.747-1.666 1.667-1.666h4.706A2.04 2.04 0 0 1 18.333 10a2.04 2.04 0 0 1 1.96 1.482H25c.92 0 1.667.747 1.667 1.666v7.408a.556.556 0 0 1-1.111 0v-7.408a.556.556 0 0 0-.556-.555h-5.185a.556.556 0 0 1-.556-.556.94.94 0 0 0-.273-.658.956.956 0 0 0-1.311.005.93.93 0 0 0-.268.653.556.556 0 0 1-.555.556h-5.186a.556.556 0 0 0-.555.555v16.297c0 .307.249.556.555.556h11.805a.556.556 0 0 1 0 1.111"/><path fill="#669934" d="M20.557 14.815h-4.445c-.92 0-1.667-.747-1.667-1.667v-1.111a.556.556 0 0 1 1.111 0v1.111c0 .307.25.556.556.556h4.445c.306 0 .555-.25.555-.556v-1.111a.556.556 0 0 1 1.112 0v1.111c0 .92-.748 1.667-1.667 1.667m6.366 9.436.59.342v-2.37h-1.736v2.37l.59-.342a.56.56 0 0 1 .556 0"/><path fill="#669934" d="M29.813 22.223h-1.194v3.333a.557.557 0 0 1-.834.482l-1.144-.663-1.145.663a.558.558 0 0 1-.834-.482v-3.333h-1.194c-.715 0-1.296.581-1.296 1.296v6.296c0 .715.581 1.297 1.296 1.297h6.345c.715 0 1.296-.582 1.296-1.297V23.52c0-.715-.581-1.296-1.296-1.296"/></svg>