<svg xmlns="http://www.w3.org/2000/svg" width="18" height="18" fill="none" viewBox="0 0 18 18"><path stroke="#7f7f7f" stroke-width="1.5" d="M3.2 14.134c.17 1.252 1.207 2.234 2.47 2.292 1.062.049 2.141.074 3.33.074a72 72 0 0 0 3.33-.074c1.263-.058 2.3-1.04 2.47-2.292.11-.818.2-1.656.2-2.509s-.09-1.691-.2-2.509c-.17-1.252-1.207-2.234-2.47-2.292A72 72 0 0 0 9 6.75c-1.189 0-2.268.025-3.33.074-1.263.058-2.3 1.04-2.47 2.292-.11.818-.2 1.656-.2 2.509s.09 1.691.2 2.508Z"/><path stroke="#7f7f7f" stroke-linecap="round" stroke-linejoin="round" stroke-width="1.5" d="M5.625 6.75V4.875a3.375 3.375 0 0 1 6.75 0V6.75"/><path stroke="#7f7f7f" stroke-linecap="round" stroke-linejoin="round" stroke-width="2" d="M12 11.617v.008m-3-.008v.008m-3-.008v.008"/></svg>