<svg xmlns="http://www.w3.org/2000/svg" width="230" height="78" fill="none" viewBox="0 0 230 78"><path fill="#669934" d="M16.002 23.265c2.945-2.932 7.037-5.6 12.468-7.853-7.745 5.76-12.384 11.534-14.59 16.965-2.012 6.01-2.706 11.289-1.84 15.776 1.362 7.745 5.163 13.624 9.22 17.36C35.53 78.662 70.833 81.639 81.5 38.927c-.805 11.013-3.825 19.383-8.642 25.448-15.129 19.05-44.388 17.264-57.642 0C9.442 57.642 6.438 48.74 8.44 38.628c.982-4.958 2.905-10.269 7.562-15.363"/><path fill="#669934" d="M25.466 62.737c7.51 6.251 16.94 8.38 24.643 7.229 12.142-1.814 20.518-10.747 24.34-21.218 3.883-10.64 1.974-22.125-3.285-30.833C66.327 9.905 59.567 4.148 46.648.972 38.682-.987 29.518-.218 19.457 5.44c32.93-9.406 45.491 8.482 50.496 18.38l.14.28c9.447 19.34-6.803 55.225-44.627 38.636"/><path fill="#669934" d="M66.585 23.904c1.806 3.858 2.446 9.217 1.57 15.67-1.562-9.354-5-17.09-9.11-21.297-4.724-4.265-9.31-7.04-13.8-8.08-7.695-1.919-15.565-.275-20.66 1.876-17.93 7.569-35.033 38.308.016 65.334C14.772 72.199 8.282 66.06 4.648 59.234-6.765 37.794 6.783 12.041 28.093 7.068c8.557-2.488 18.89-2.181 27.4 3.744 4.173 2.905 8.288 6.805 11.092 13.092"/><path fill="#d9d9d9" fill-rule="evenodd" d="M29.822 41.605c-.72.714-1.802.297-2.253 0-.3-3.572-3.005-5.06-5.408-4.912-2.5.155-2.734 1.337-2.922 2.295a8 8 0 0 1-.083.384c-2.403.714-3.104 2.084-3.154 2.679-.1.645-.301 2.351-.301 4.018-.721 2.381-2.504 2.084-3.305 1.637 1.082 2.024 2.854.943 3.605.149.12.357-.65 1.34-1.051 1.786.841 0 1.452-.695 1.652-1.042 0 1.072 1.202 2.332 1.803 2.828.601 2.232-1.803 2.53-1.352-.149l-.45 1.19c-.301 1.191.45 1.638 1.351 1.638.34 0 1.102-.596 1.503-1.191.12 2.024-2.053 2.232-3.155 2.084l.3-.893c-1.081 0-1.201-1.34-.3-2.233-.1-.099-.751.15-1.052.596-1.652 3.72 2.254 4.755 3.756 4.613 2.524-.238 3.055-3.473 3.005-5.209.6.715.25 2.68 0 3.572-.194.27-.478.597-.785.95-.65.746-1.403 1.61-1.62 2.324-.45 1.488 1.353 3.125 2.404 2.53-.45 1.042.2 2.58.752 2.977v-1.191c0-.357.901-1.637 1.352-2.232.6-.238 1.552-3.076 1.953-4.465.36.595-.651 3.224-1.202 4.465l.3 1.934c-.1.199-.36.685-.6 1.042-.241.357.1.843.3 1.042h2.704c.414-.74.131-1.297-.174-1.899-.248-.489-.511-1.006-.427-1.673.1-.794.63-2.44 1.953-2.679s1.452-2.678 1.352-3.87c.05-.198.18-.535.3-.297.721.12.601 1.736.451 2.53 1.035-.615.93-2.642.861-3.942-.03-.587-.053-1.025.04-1.118 2.164-.833 4.107-3.522 4.808-4.762l-.3 1.935c-1.052 1.041-3.456 3.869-2.555 4.613l4.357 4.614.3.893 1.953 1.19.3 1.19c.1-.098.391-.237.752 0 .36.239 2.053-.098 2.854-.297 0-1.19-2.404-2.48-3.605-2.976-.842-.358-3.005-3.275-3.005-4.912-.25-.446-.45-1.369.751-1.488 1.503-.149 3.155-2.38 3.305-3.423.12-.833.45-3.026.601-4.018 6.49-2.024 10.917-7.094 12.018-9.376h.601l5.108-5.209 2.253 4.019-.3.446c-.254.167-.3.54-.356 1.006a8 8 0 0 1-.095.631c.5.199 2.854.595 2.854.595s0-.894-.084-1.637c-.03-.26-.204-.37-.348-.46a.6.6 0 0 1-.169-.135c-.037-.184-.013-.37.01-.555.027-.213.054-.427-.01-.64-.327-.555-.64-1.151-.948-1.737-.682-1.297-1.337-2.84-2.056-3.467-.074-.064-.054-.048-.256-.3-.168-.21-.345-.43-.345-.593-.841-.953-1.953-.397-2.253 0l-3.606 2.827c0-.833-2.103-4.117-3.155-5.655l1.803 1.935c.842 0 1.653-.893 1.953-1.34v-2.083c-1.202-1.19-1.803-3.87-1.953-5.06l7.662-6.697-8.112 4.762c-1.322-.952-5.058-.794-6.76-.595-.722-.715-1.803-.397-2.254-.149.48-.238.701.595.751 1.042-.12-.238-1.752-.1-2.554 0 .481 0 .601.793.601 1.19-4.326 1.31-2.804 3.027-1.502 3.721-.12-.833.45-.942.751-.893-.6 1.905-1.953 1.39-2.554.893-.24.714.501 1.29.902 1.488-.1.05-.421.179-.902.298-.48.119-.901.744-1.051 1.042.36-.357 1.252-.15 1.652 0l-.276 1.367a.4.4 0 0 0-.024.12l.024-.12c.136-.37.803-.92 1.027-.92-.72 3.333.601 4.464 1.352 4.613-.521-.517-.283-2.155-.183-2.773-.135 1.12.454 2.203.784 2.624.12.476-1.252.893-1.953 1.042-.35.099-1.111.446-1.352 1.041-.24.596.3 1.042.601 1.191.24-.953 1.002-1.29 1.352-1.34-.48.239-.4.993-.3 1.34.3-.198 1.051-.566 1.652-.447.601.12 1.552-.843 1.953-1.339.12.714-.65 1.786-1.051 2.232l1.051-.595-.15.744c-.751 1.786-3.005 3.274-6.46 4.316-.065.02-.209.03-.413.046-.697.052-2.099.157-3.493.847-2.373 1.175-2.965 2.19-3.438 2.998-.19.325-.36.616-.618.872m-.6 1.934c-1.202-.297-3.005-.09-3.005.744 0 1.406 1.179 2.35 2.145 3.125.261.209.507.406.71.596z" clip-rule="evenodd"/><path fill="#d9d9d9" d="M64.675 29.4c-.601-.594-3.255-1.438-4.507-1.636l1.051 2.232c.481-.238 2.805.893 4.057 1.637l.3.744v1.34h2.554l-.3-1.786c-.301-.248-.962-.744-1.202-.744-.361-.476-.551-.794-.601-1.19z"/><path fill="#f3faeb" d="m111.324 34-1.968-7.056h-.096L107.268 34h-4.656L97.98 21.328h5.136l1.92 7.488h.168l1.992-7.488h4.752l1.92 7.488h.168l1.944-7.488h4.656L115.98 34zm9.728-14.16V16.6h4.776v3.24zm0 14.16V21.328h4.776V34zm15.264-16.8q2.376 0 4.272.72t3 2.136q1.128 1.392 1.128 3.408h-5.064q0-1.032-.912-1.656-.912-.648-2.208-.648-1.872 0-2.832 1.008-.96.984-.96 2.808v1.536q0 1.824.96 2.832.96.984 2.832.984 1.296 0 2.208-.6.912-.624.912-1.584h-3.744v-3.36h8.808V34h-2.736l-.528-1.632q-2.256 1.92-5.904 1.92-4.104 0-6.168-2.136-2.064-2.16-2.064-6.408 0-4.2 2.328-6.36 2.352-2.184 6.672-2.184m18.696 0q4.272 0 6.6 2.184t2.328 6.36-2.328 6.36-6.6 2.184-6.6-2.16q-2.304-2.184-2.304-6.384t2.304-6.36q2.328-2.184 6.6-2.184m0 3.96q-1.704 0-2.592 1.032t-.888 2.784v1.536q0 1.752.888 2.784t2.592 1.032 2.592-1.032q.912-1.032.912-2.784v-1.536q0-1.752-.912-2.784-.888-1.032-2.592-1.032M111.46 57v-5.952q0-1.104.072-2.256.096-1.176.192-1.968t.12-1.008h-.096L108.7 57h-4.152l-3.072-11.16h-.096q.024.216.12 1.008.12.768.216 1.944.096 1.152.096 2.256V57H96.94V40.488h7.488l2.496 9.528h.096l2.472-9.528h7.224V57zm18.344 0-.696-2.328h-5.784L122.628 57h-5.424l6.024-16.512h6.168L135.42 57zm-5.376-6.024h3.576l-1.728-5.88h-.096zm27.464-5.424q0 1.512-.816 2.736t-2.376 1.8L152.372 57h-5.952l-2.928-6.024h-1.968V57h-5.304V40.488h10.104q1.776 0 3.024.696 1.272.672 1.896 1.848.648 1.152.648 2.52m-5.4.216q0-.648-.432-1.08a1.44 1.44 0 0 0-1.056-.432h-3.48v3.048h3.48q.624 0 1.056-.432.432-.456.432-1.104m18.391-5.28h6.576l-5.928 6.792 6.048 9.72h-6.264l-3.432-6.048-2.88 2.352V57h-5.304V40.488h5.304v7.056zm7.609 0h14.28v3.96h-8.976v2.28h7.68v3.792h-7.68v2.52h9.144V57h-14.448zm25.624 4.224V57h-5.304V44.712h-5.424v-4.224h16.128v4.224z"/></svg>