<svg xmlns="http://www.w3.org/2000/svg" width="144" height="49" fill="none" viewBox="0 0 144 49"><path fill="#669934" d="M9.808 14.615c1.85-1.841 4.422-3.517 7.833-4.933-4.866 3.619-7.78 7.246-9.166 10.658-1.263 3.775-1.7 7.09-1.155 9.91.856 4.865 3.243 8.559 5.791 10.906 8.966 8.26 31.143 10.13 37.844-16.703-.505 6.92-2.403 12.177-5.43 15.987-9.503 11.967-27.884 10.845-36.21 0-3.627-4.229-5.515-9.822-4.257-16.174.617-3.115 1.825-6.45 4.75-9.65"/><path fill="#669934" d="M15.754 39.412c4.719 3.927 10.642 5.264 15.48 4.54 7.629-1.139 12.89-6.75 15.291-13.328 2.44-6.685 1.24-13.9-2.063-19.37C41.423 6.222 37.176 2.606 29.06.61 24.056-.62 18.3-.137 11.98 3.418 32.665-2.491 40.557 8.747 43.7 14.965q.045.087.087.176c5.936 12.149-4.273 34.692-28.034 24.271"/><path fill="#669934" d="M41.585 15.017c1.134 2.423 1.537 5.79.986 9.843-.98-5.876-3.14-10.736-5.722-13.378-2.968-2.68-5.849-4.423-8.67-5.077-4.834-1.204-9.777-.172-12.979 1.18-11.263 4.754-22.007 24.065.01 41.042C9.037 45.356 4.96 41.5 2.677 37.211c-7.17-13.468 1.341-29.647 14.729-32.77C22.78 2.876 29.27 3.07 34.617 6.79c2.622 1.826 5.207 4.276 6.968 8.226"/><path fill="#314720" fill-rule="evenodd" d="M18.49 26.136c-.452.449-1.132.187-1.415 0-.189-2.244-1.887-3.179-3.397-3.085-1.57.097-1.717.84-1.836 1.441q-.024.126-.052.242c-1.51.448-1.95 1.309-1.982 1.683a19 19 0 0 0-.188 2.524c-.453 1.496-1.573 1.309-2.077 1.028.68 1.272 1.794.592 2.265.094.076.224-.409.841-.66 1.122.528 0 .912-.437 1.038-.655 0 .673.755 1.465 1.132 1.777.378 1.402-1.132 1.589-.849-.094l-.283.748c-.189.748.283 1.028.85 1.028.213 0 .691-.373.943-.747.076 1.271-1.29 1.402-1.982 1.308l.189-.56c-.68 0-.755-.842-.189-1.403-.063-.062-.472.093-.66.374-1.039 2.337 1.415 2.987 2.359 2.898 1.585-.15 1.919-2.181 1.887-3.272.378.449.158 1.683 0 2.244-.12.17-.3.375-.492.596-.409.469-.882 1.012-1.018 1.46-.283.936.85 1.964 1.51 1.59-.283.655.126 1.62.472 1.87v-.748c0-.224.566-1.028.85-1.402.377-.15.975-1.933 1.226-2.805.227.374-.409 2.025-.755 2.804l.19 1.216c-.064.125-.227.43-.378.654s.063.53.188.655h1.7c.26-.465.082-.815-.11-1.193-.156-.307-.321-.632-.268-1.051.063-.499.396-1.533 1.226-1.683s.913-1.683.85-2.43c.031-.125.113-.337.188-.188.454.075.378 1.091.284 1.59.65-.387.583-1.66.54-2.477-.019-.368-.033-.644.026-.702 1.359-.524 2.58-2.213 3.02-2.992l-.189 1.216c-.66.654-2.17 2.43-1.604 2.898l2.736 2.898.19.561 1.226.748.189.748c.063-.062.245-.15.472 0s1.29-.062 1.793-.187c0-.748-1.51-1.558-2.265-1.87-.529-.224-1.888-2.057-1.888-3.085-.157-.28-.283-.86.472-.935.944-.093 1.982-1.496 2.077-2.15.075-.524.283-1.901.377-2.524 4.077-1.272 6.858-4.457 7.55-5.89h.377l3.209-3.273 1.415 2.525-.188.28c-.16.105-.188.34-.224.632a5 5 0 0 1-.06.396c.315.125 1.794.374 1.794.374s0-.562-.053-1.028c-.019-.164-.129-.233-.219-.29a.4.4 0 0 1-.106-.084c-.023-.116-.008-.232.006-.349.017-.134.034-.268-.006-.402-.205-.348-.402-.723-.596-1.091-.428-.815-.84-1.784-1.291-2.178-.047-.04-.034-.03-.16-.188-.107-.133-.218-.27-.218-.373-.528-.598-1.227-.25-1.415 0l-2.265 1.776c0-.523-1.321-2.586-1.982-3.552l1.132 1.215c.529 0 1.038-.561 1.227-.841v-1.31c-.755-.747-1.132-2.43-1.227-3.178l4.813-4.207-5.096 2.992c-.83-.599-3.177-.5-4.247-.374-.452-.45-1.132-.25-1.415-.094.302-.15.44.374.472.655-.076-.15-1.101-.063-1.604 0 .302 0 .377.498.377.748-2.718.822-1.762 1.9-.944 2.337-.075-.524.283-.592.472-.561-.377 1.197-1.227.872-1.604.56-.151.45.314.811.566.936a3 3 0 0 1-.566.187c-.302.075-.566.467-.66.654.226-.224.786-.093 1.037 0l-.173.86a.2.2 0 0 0-.015.075l.015-.076c.085-.233.504-.578.645-.578-.453 2.094.378 2.804.85 2.898-.328-.325-.178-1.354-.115-1.742-.086.704.284 1.384.492 1.648.076.3-.787.561-1.227.655-.22.062-.698.28-.85.654-.15.374.19.655.378.748.151-.598.63-.81.85-.841-.302.15-.252.623-.19.841.19-.125.662-.355 1.039-.28.378.075.975-.53 1.227-.842.075.449-.41 1.122-.66 1.403l.66-.374-.095.467c-.471 1.122-1.887 2.057-4.058 2.711-.04.013-.13.02-.26.03-.437.032-1.318.098-2.193.531-1.49.739-1.863 1.376-2.16 1.884-.12.204-.226.387-.388.547m-.377 1.216c-.755-.187-1.887-.057-1.887.467 0 .883.74 1.477 1.347 1.963.164.131.319.255.446.374z" clip-rule="evenodd"/><path fill="#314720" d="M40.385 18.47c-.377-.374-2.045-.904-2.831-1.029l.66 1.403c.303-.15 1.762.56 2.549 1.028l.188.468v.841h1.605l-.189-1.122c-.189-.156-.604-.467-.755-.467-.227-.3-.346-.499-.378-.748z"/><path fill="#669934" d="m69.831 21.219-1.236-4.433h-.06l-1.252 4.433h-2.925l-2.91-7.96h3.227l1.206 4.703h.105l1.252-4.704h2.985l1.206 4.704h.106l1.22-4.704h2.926l-2.925 7.96zm6.111-8.896v-2.035h3v2.035zm0 8.896v-7.96h3v7.96zm9.59-10.554q1.491 0 2.683.452 1.19.453 1.885 1.342.708.875.708 2.141h-3.181q0-.648-.573-1.04-.573-.407-1.387-.407-1.176 0-1.78.633-.602.618-.602 1.764v.965q0 1.146.603 1.779.603.618 1.779.618.814 0 1.387-.377.573-.392.573-.995h-2.352v-2.11h5.533v5.789H89.09l-.331-1.026Q87.34 21.4 85.048 21.4q-2.578 0-3.874-1.342-1.297-1.358-1.297-4.026 0-2.638 1.463-3.995 1.477-1.372 4.191-1.372m11.744 0q2.684 0 4.146 1.372 1.463 1.372 1.463 3.995t-1.463 3.996-4.146 1.372-4.146-1.357q-1.447-1.373-1.447-4.01 0-2.64 1.447-3.996 1.463-1.372 4.146-1.372m0 2.488q-1.07 0-1.628.648t-.558 1.749v.965q0 1.1.558 1.749.558.648 1.628.648 1.071 0 1.629-.648.573-.648.573-1.75v-.964q0-1.1-.573-1.75-.558-.647-1.629-.647M69.776 35.782v-3.739q0-.694.045-1.417.06-.74.121-1.236l.075-.634h-.06l-1.915 7.026h-2.608l-1.93-7.01h-.06l.075.633q.075.482.136 1.22.06.725.06 1.418v3.74h-3.06V25.408h4.704l1.568 5.986h.06l1.553-5.986h4.538v10.373zm11.524 0-.437-1.462h-3.634l-.437 1.462h-3.407l3.784-10.373h3.875l3.784 10.373zm-3.377-3.784h2.246l-1.085-3.694h-.06zm17.253-3.408a3.03 3.03 0 0 1-.513 1.72q-.513.768-1.493 1.13l2.307 4.342h-3.739l-1.84-3.784h-1.236v3.784H85.33V25.41h6.348q1.115 0 1.9.438.799.422 1.19 1.16.408.724.408 1.583m-3.393.136a.92.92 0 0 0-.271-.678.9.9 0 0 0-.663-.272h-2.187v1.915h2.186q.393 0 .664-.271a.97.97 0 0 0 .271-.694m11.554-3.317h4.131l-3.724 4.267 3.799 6.106h-3.935l-2.156-3.8-1.809 1.478v2.322h-3.332V25.41h3.332v4.433zm4.78 0h8.97v2.488h-5.638v1.432h4.824v2.383h-4.824v1.582h5.744v2.488h-9.076zm16.097 2.654v7.72h-3.332v-7.72h-3.408V25.41h10.132v2.654z"/></svg>