<svg xmlns="http://www.w3.org/2000/svg" width="18" height="18" fill="none" viewBox="0 0 18 18"><path stroke="#7f7f7f" stroke-linejoin="round" stroke-width="1.5" d="m1.5 4.5 5.185 2.938c1.911 1.083 2.719 1.083 4.63 0L16.5 4.5"/><path stroke="#7f7f7f" stroke-linejoin="round" stroke-width="1.5" d="M1.512 10.107c.049 2.299.073 3.448.922 4.3.848.852 2.029.881 4.39.94 1.455.037 2.897.037 4.352 0 2.361-.059 3.542-.088 4.39-.94.849-.852.873-2.001.922-4.3a51 51 0 0 0 0-2.214c-.049-2.299-.073-3.448-.922-4.3-.848-.852-2.029-.881-4.39-.94a86 86 0 0 0-4.352 0c-2.361.059-3.542.088-4.39.94-.849.852-.873 2.001-.922 4.3-.016.74-.016 1.474 0 2.214Z"/></svg>