<svg xmlns="http://www.w3.org/2000/svg" width="56" height="57" fill="none" viewBox="0 0 56 57"><circle cx="27.807" cy="28.532" r="27.407" fill="#f3faeb" stroke="#56862a" stroke-width=".8"/><path fill="#669934" d="M33.239 19.734H22.376c-3.258 0-5.43 1.63-5.43 5.432v7.603c0 3.802 2.172 5.431 5.43 5.431H33.24c3.258 0 5.43-1.63 5.43-5.431v-7.603c0-3.802-2.172-5.432-5.43-5.432m.51 6.615-3.4 2.716c-.717.576-1.63.858-2.541.858-.913 0-1.836-.282-2.542-.858l-3.4-2.716a.836.836 0 0 1-.13-1.15.81.81 0 0 1 1.14-.131l3.4 2.715c.826.663 2.227.663 3.052 0l3.4-2.715a.8.8 0 0 1 1.14.13.824.824 0 0 1-.119 1.151"/></svg>