<svg xmlns="http://www.w3.org/2000/svg" width="22" height="22" fill="none" viewBox="0 0 22 22"><path fill="#d85583" d="M3.519 8.978a.55.55 0 0 1-.407-.178L2.37 8a.556.556 0 0 1 .815-.755l.333.36.704-.76a.556.556 0 0 1 .815.755L3.926 8.8a.55.55 0 0 1-.407.178m10.371-.399H6.48a.556.556 0 0 1 0-1.111h7.408a.556.556 0 0 1 0 1.111M3.519 13.378a.55.55 0 0 1-.407-.178l-.741-.8a.556.556 0 0 1 .815-.756l.333.36.704-.76a.556.556 0 0 1 .815.756l-1.112 1.2a.55.55 0 0 1-.407.178m7.037-.401H6.48a.556.556 0 0 1 0-1.11h4.075a.556.556 0 0 1 0 1.11m-7.036 4.802a.56.56 0 0 1-.407-.178l-.741-.8a.556.556 0 0 1 .815-.756l.333.36.704-.76a.557.557 0 0 1 .815.756l-1.112 1.2a.56.56 0 0 1-.407.178m7.037-.4H6.48a.556.556 0 0 1 0-1.111h4.075a.556.556 0 0 1 0 1.11"/><path fill="#d85583" d="M13.47 21.112H1.668c-.92 0-1.667-.747-1.667-1.667V3.148c0-.92.747-1.666 1.667-1.666h4.706A2.04 2.04 0 0 1 8.333 0a2.04 2.04 0 0 1 1.96 1.482H15c.92 0 1.667.747 1.667 1.666v7.408a.556.556 0 0 1-1.111 0V3.148A.556.556 0 0 0 15 2.593H9.815a.556.556 0 0 1-.556-.556.94.94 0 0 0-.273-.658.955.955 0 0 0-1.311.005.93.93 0 0 0-.268.653.556.556 0 0 1-.555.556H1.666a.556.556 0 0 0-.555.555v16.297c0 .307.249.556.555.556h11.805a.556.556 0 0 1 0 1.111"/><path fill="#d85583" d="M10.557 4.815H6.112c-.92 0-1.667-.747-1.667-1.667V2.037a.556.556 0 0 1 1.111 0v1.111c0 .307.25.556.556.556h4.445c.306 0 .555-.25.555-.556V2.037a.556.556 0 0 1 1.111 0v1.111c0 .92-.747 1.667-1.666 1.667m6.366 9.436.59.342v-2.37h-1.736v2.37l.59-.342a.56.56 0 0 1 .556 0"/><path fill="#d85583" d="M19.813 12.223h-1.194v3.333a.557.557 0 0 1-.834.482l-1.144-.664-1.145.664a.558.558 0 0 1-.834-.482v-3.333h-1.194c-.715 0-1.296.581-1.296 1.296v6.296c0 .715.581 1.297 1.296 1.297h6.345c.715 0 1.296-.582 1.296-1.297V13.52c0-.715-.581-1.296-1.296-1.296"/></svg>