<svg xmlns="http://www.w3.org/2000/svg" width="141" height="110" fill="none" viewBox="0 0 141 110"><rect width="140" height="109" x=".5" y=".5" fill="#f3faeb" fill-opacity=".5" rx="4.5"/><rect width="140" height="109" x=".5" y=".5" stroke="#e6f2d5" rx="4.5"/><path fill="#669934" fill-opacity=".6" fill-rule="evenodd" d="M52.507 71.33a7.3 7.3 0 0 0-1.443 1.472 7.27 7.27 0 0 0-1.312 5.4 7.256 7.256 0 0 0 8.284 6.06l.61-.094a6.2 6.2 0 0 0-.193 2.784 6.36 6.36 0 0 0 7.248 5.303 6.357 6.357 0 0 0 5.304-7.249 6.2 6.2 0 0 0-1.027-2.595l11.978-1.856a6.2 6.2 0 0 0-.193 2.784 6.36 6.36 0 0 0 7.248 5.303 6.36 6.36 0 0 0 5.304-7.248 6.2 6.2 0 0 0-1.027-2.595l2.403-.373a1.82 1.82 0 0 0 1.515-2.07 1.82 1.82 0 0 0-2.071-1.516L57.48 80.676a3.64 3.64 0 0 1-4.141-3.03 3.57 3.57 0 0 1 .666-2.693 3.57 3.57 0 0 1 2.364-1.45l32.168-4.985a7.2 7.2 0 0 0 5.953-5.66c1.667-8.08 5.832-24.92 5.832-24.92a1.82 1.82 0 0 0-.453-1.62 1.78 1.78 0 0 0-1.59-.543L42.696 44.39l-4.166-9.343a6.56 6.56 0 0 0-6.916-3.629l-3.711.576a1.82 1.82 0 0 0-1.515 2.07 1.82 1.82 0 0 0 2.07 1.516l3.694-.573a2.96 2.96 0 0 1 3.1 1.632l15.672 32.53a7.3 7.3 0 0 0 1.58 2.143zM78.8 43.017l-15.152 20.71a1.83 1.83 0 0 0 .394 2.546c.808.591 1.938.416 2.547-.394l15.151-20.71a1.83 1.83 0 0 0-.394-2.546 1.83 1.83 0 0 0-2.546.394m8.902 4.13L77.097 61.642a1.83 1.83 0 0 0 .395 2.546c.807.59 1.937.416 2.546-.395l10.606-14.496a1.83 1.83 0 0 0-.395-2.547 1.83 1.83 0 0 0-2.546.395m-22.35-2.045L54.746 59.598a1.83 1.83 0 0 0 .395 2.547c.808.59 1.937.415 2.546-.395l10.606-14.497a1.83 1.83 0 0 0-.394-2.546 1.83 1.83 0 0 0-2.546.395m-23.086-4.3 17.626-2.731c-.775-3.46-2.225-8.67-4.405-12.189-1.883-3.031-4.38-4.811-7.196-4.375-2.815.437-4.66 2.87-5.535 6.348-1.012 4.013-.814 9.436-.508 12.95zm18.253-2.828 18.792-2.913c-.853-1.832-2.012-3.03-3.132-4.215-1.011-1.073-1.966-2.137-2.364-4.114l-.161.025-10.257 1.59-.16.025c.233 1.983-.37 3.307-1.008 4.636-.71 1.469-1.469 2.963-1.71 4.965m19.437-3.013 17.572-2.723a9.7 9.7 0 0 0-.095-1.803c-.65-4.196-4.082-7.263-8.108-7.649.276-.943.892-1.827 1.937-2.669.782-.635.9-1.773.264-2.556a1.81 1.81 0 0 0-2.556-.265c-.765.633-1.399 1.282-1.887 1.927-.106-.094-.192-.173-.298-.266-1.38-1.09-3.387-1.477-6.171-.605a1.8 1.8 0 0 0-1.255 1.499c-.315 2.472.251 4.11 1.224 5.171.306.32.643.598 1.046.83a9.09 9.09 0 0 0-2.112 7.341c.094.61.24 1.193.454 1.747zm-30.13 2.852 3.309-2.349a1.834 1.834 0 0 0 .434-2.528 1.834 1.834 0 0 0-2.527-.434l-3.309 2.349a1.834 1.834 0 0 0-.434 2.527 1.834 1.834 0 0 0 2.528.435m-.075-6.415 1.654-1.174a1.834 1.834 0 0 0 .434-2.528 1.834 1.834 0 0 0-2.528-.434l-1.654 1.174a1.834 1.834 0 0 0-.434 2.528 1.834 1.834 0 0 0 2.528.434m23.939-11.99a1.82 1.82 0 0 0-2.071-1.516l-8.966 1.39a1.82 1.82 0 0 0-1.515 2.07l.278 1.793a1.82 1.82 0 0 0 2.071 1.516l8.966-1.39a1.82 1.82 0 0 0 1.515-2.07z" clip-rule="evenodd"/></svg>