<svg xmlns="http://www.w3.org/2000/svg" width="25" height="25" fill="none" viewBox="0 0 25 25"><path stroke="#7f7f7f" stroke-width="1.5" d="M15.629 14.247a.906.906 0 0 1-1.258 0c-1.544-1.497-3.613-3.168-2.604-5.595A3.53 3.53 0 0 1 15 6.5c1.378 0 2.688.84 3.233 2.152 1.008 2.424-1.056 4.104-2.604 5.595Z"/><path stroke="#7f7f7f" stroke-linecap="round" stroke-linejoin="round" stroke-width="2" d="M15 10h.009"/><path stroke="#7f7f7f" stroke-width="1.5" d="M3 12.5c0-4.478 0-6.718 1.391-8.109S8.021 3 12.5 3c4.478 0 6.718 0 8.109 1.391S22 8.021 22 12.5c0 4.478 0 6.718-1.391 8.109S16.979 22 12.5 22c-4.478 0-6.718 0-8.109-1.391S3 16.979 3 12.5Z"/><path stroke="#7f7f7f" stroke-linecap="round" stroke-linejoin="round" stroke-width="1.5" d="m17.5 21.5-14-14m7 7-6 6"/></svg>