<svg xmlns="http://www.w3.org/2000/svg" width="24" height="24" fill="none" viewBox="0 0 24 24"><path stroke="#314720" stroke-linecap="square" stroke-linejoin="round" stroke-width="1.5" d="M13.69 19.457c-.19-.46-.19-1.042-.19-2.207s0-1.747.19-2.207a2.5 2.5 0 0 1 1.353-1.353c.46-.19 1.042-.19 2.207-.19s1.747 0 2.207.19a2.5 2.5 0 0 1 1.353 1.353c.19.46.19 1.042.19 2.207s0 1.747-.19 2.207a2.5 2.5 0 0 1-1.353 1.353c-.46.19-1.042.19-2.207.19s-1.747 0-2.207-.19a2.5 2.5 0 0 1-1.353-1.353ZM13.69 8.957c-.19-.46-.19-1.042-.19-2.207s0-1.747.19-2.207a2.5 2.5 0 0 1 1.353-1.353C15.503 3 16.085 3 17.25 3s1.747 0 2.207.19a2.5 2.5 0 0 1 1.353 1.353c.19.46.19 1.042.19 2.207s0 1.747-.19 2.207a2.5 2.5 0 0 1-1.353 1.353c-.46.19-1.042.19-2.207.19s-1.747 0-2.207-.19a2.5 2.5 0 0 1-1.353-1.353ZM3.19 19.457C3 18.997 3 18.415 3 17.25s0-1.747.19-2.207a2.5 2.5 0 0 1 1.353-1.353c.46-.19 1.042-.19 2.207-.19s1.747 0 2.207.19a2.5 2.5 0 0 1 1.353 1.353c.19.46.19 1.042.19 2.207s0 1.747-.19 2.207a2.5 2.5 0 0 1-1.353 1.353c-.46.19-1.042.19-2.207.19s-1.747 0-2.207-.19a2.5 2.5 0 0 1-1.353-1.353ZM3.19 8.957C3 8.497 3 7.915 3 6.75s0-1.747.19-2.207A2.5 2.5 0 0 1 4.543 3.19C5.003 3 5.585 3 6.75 3s1.747 0 2.207.19a2.5 2.5 0 0 1 1.353 1.353c.19.46.19 1.042.19 2.207s0 1.747-.19 2.207a2.5 2.5 0 0 1-1.353 1.353c-.46.19-1.042.19-2.207.19s-1.747 0-2.207-.19A2.5 2.5 0 0 1 3.19 8.957Z"/></svg>