<svg xmlns="http://www.w3.org/2000/svg" width="25" height="25" fill="none" viewBox="0 0 25 25"><path stroke="#7f7f7f" stroke-linecap="square" stroke-linejoin="round" stroke-width="1.5" d="M14.19 19.957c-.19-.46-.19-1.042-.19-2.207s0-1.747.19-2.207a2.5 2.5 0 0 1 1.353-1.353c.46-.19 1.042-.19 2.207-.19s1.747 0 2.207.19a2.5 2.5 0 0 1 1.353 1.353c.19.46.19 1.042.19 2.207s0 1.747-.19 2.207a2.5 2.5 0 0 1-1.353 1.353c-.46.19-1.042.19-2.207.19s-1.747 0-2.207-.19a2.5 2.5 0 0 1-1.353-1.353Zm0-10.5C14 8.997 14 8.415 14 7.25s0-1.747.19-2.207a2.5 2.5 0 0 1 1.353-1.353c.46-.19 1.042-.19 2.207-.19s1.747 0 2.207.19a2.5 2.5 0 0 1 1.353 1.353c.19.46.19 1.042.19 2.207s0 1.747-.19 2.207a2.5 2.5 0 0 1-1.353 1.353c-.46.19-1.042.19-2.207.19s-1.747 0-2.207-.19a2.5 2.5 0 0 1-1.353-1.353Zm-10.5 10.5c-.19-.46-.19-1.042-.19-2.207s0-1.747.19-2.207a2.5 2.5 0 0 1 1.353-1.353C5.503 14 6.085 14 7.25 14s1.747 0 2.207.19a2.5 2.5 0 0 1 1.353 1.353c.19.46.19 1.042.19 2.207s0 1.747-.19 2.207a2.5 2.5 0 0 1-1.353 1.353c-.46.19-1.042.19-2.207.19s-1.747 0-2.207-.19a2.5 2.5 0 0 1-1.353-1.353Zm0-10.5c-.19-.46-.19-1.042-.19-2.207s0-1.747.19-2.207A2.5 2.5 0 0 1 5.043 3.69c.46-.19 1.042-.19 2.207-.19s1.747 0 2.207.19a2.5 2.5 0 0 1 1.353 1.353c.19.46.19 1.042.19 2.207s0 1.747-.19 2.207a2.5 2.5 0 0 1-1.353 1.353c-.46.19-1.042.19-2.207.19s-1.747 0-2.207-.19A2.5 2.5 0 0 1 3.69 9.457Z"/></svg>