<svg xmlns="http://www.w3.org/2000/svg" width="38" height="40" fill="none" viewBox="0 0 38 40"><rect width="36.5" height="38.5" x=".75" y=".75" fill="#ededed" rx="3.25"/><rect width="36.5" height="38.5" x=".75" y=".75" stroke="#56862a" stroke-width="1.5" rx="3.25"/><path stroke="#56862a" stroke-width="1.5" d="M17 26.333v1.334c0 .736.597 1.333 1.333 1.333h1.334c.736 0 1.333-.597 1.333-1.333v-1.334c0-.736-.597-1.333-1.333-1.333h-1.334c-.736 0-1.333.597-1.333 1.333Zm0-7v1.334c0 .736.597 1.333 1.333 1.333h1.334c.736 0 1.333-.597 1.333-1.333v-1.334c0-.736-.597-1.333-1.333-1.333h-1.334c-.736 0-1.333.597-1.333 1.333Zm0-7v1.334c0 .736.597 1.333 1.333 1.333h1.334c.736 0 1.333-.597 1.333-1.333v-1.334c0-.736-.597-1.333-1.333-1.333h-1.334c-.736 0-1.333.597-1.333 1.333Z"/></svg>