<svg xmlns="http://www.w3.org/2000/svg" width="18" height="18" fill="none" viewBox="0 0 18 18"><path stroke="#7f7f7f" stroke-linecap="round" stroke-linejoin="round" stroke-width="1.5" d="M9.75 3h-7.5m6 11.25h-6m13.5 0h-3m3-5.625h-7.5M15.75 3h-1.5M3.75 8.625h-1.5M10.875 1.5c.35 0 .524 0 .662.057a.75.75 0 0 1 .406.406c.057.138.057.313.057.662v.75c0 .35 0 .524-.057.662a.75.75 0 0 1-.406.406c-.138.057-.313.057-.662.057s-.524 0-.662-.057a.75.75 0 0 1-.406-.406c-.057-.138-.057-.313-.057-.662v-.75c0-.35 0-.524.057-.662a.75.75 0 0 1 .406-.406c.138-.057.313-.057.662-.057m-1.5 11.25c.35 0 .524 0 .662.057a.75.75 0 0 1 .406.406c.057.138.057.313.057.662v.75c0 .35 0 .524-.057.662a.75.75 0 0 1-.406.406c-.138.057-.313.057-.662.057s-.524 0-.662-.057a.75.75 0 0 1-.406-.406c-.057-.138-.057-.313-.057-.662v-.75c0-.35 0-.524.057-.662a.75.75 0 0 1 .406-.406c.138-.057.313-.057.662-.057m-2.25-5.625c.35 0 .524 0 .662.057a.75.75 0 0 1 .406.406c.057.138.057.313.057.662V9c0 .35 0 .524-.057.662a.75.75 0 0 1-.406.406c-.138.057-.313.057-.662.057s-.524 0-.662-.057a.75.75 0 0 1-.406-.406C6 9.524 6 9.349 6 9v-.75c0-.35 0-.524.057-.662a.75.75 0 0 1 .406-.406c.138-.057.313-.057.662-.057"/></svg>