<svg xmlns="http://www.w3.org/2000/svg" width="4" height="13" fill="none" viewBox="0 0 4 13"><path stroke="#333" stroke-width=".995" d="m3.198 2.275.005-.885a.885.885 0 0 0-.88-.888L1.437.497a.885.885 0 0 0-.89.88l-.003.885a.885.885 0 0 0 .88.889l.884.004a.885.885 0 0 0 .89-.88ZM3.175 6.92l.004-.885a.885.885 0 0 0-.88-.889l-.885-.004a.885.885 0 0 0-.889.88l-.004.885a.885.885 0 0 0 .88.888l.885.005a.885.885 0 0 0 .889-.88Zm-.024 4.644.005-.884a.885.885 0 0 0-.88-.89l-.885-.004a.885.885 0 0 0-.889.88l-.004.885a.885.885 0 0 0 .88.889l.885.004a.885.885 0 0 0 .888-.88Z"/></svg>