<svg xmlns="http://www.w3.org/2000/svg" width="20" height="20" fill="none" viewBox="0 0 20 20"><path stroke="#7f7f7f" stroke-width="1.25" d="M16.251 15.834a2.083 2.083 0 1 0 0-4.167 2.083 2.083 0 0 0 0 4.167Zm-12.5 0a2.083 2.083 0 1 0 0-4.167 2.083 2.083 0 0 0 0 4.167Z"/><path stroke="#7f7f7f" stroke-linecap="round" stroke-linejoin="round" stroke-width="1.25" d="M16.864 6.558c1.068 1.3 1.439 2.535 1.47 3.189a4.4 4.4 0 0 0-1.848-.399c-2.037 0-3.866 1.355-4.303 3.16-.105.432-.157.647-.27.736-.114.09-.296.09-.662.09h-2.4c-.368 0-.552 0-.666-.09-.114-.091-.163-.306-.263-.736-.413-1.782-2.09-3.33-3.836-3.2-.176.014-.264.02-.324.007a1 1 0 0 1-.242-.117c-.351-.198-.71-.386-1.054-.595a1.67 1.67 0 0 1-.798-1.367c-.01-.32.173-.637.544-.55l5.35 1.26c.403.094.604.142.776.11.173-.033.385-.178.808-.467 1.074-.734 2.775-1.428 4.471-.815.464.168.697.251.829.256.132.004.326-.053.714-.165a8 8 0 0 1 1.704-.307m0 0c-.67-.814-1.613-1.654-2.918-2.391"/></svg>