<svg xmlns="http://www.w3.org/2000/svg" width="196" height="153" fill="none" viewBox="0 0 196 153"><path fill="#e1497f" fill-rule="evenodd" d="m50.11.307 14.363 7.955-47.77 26.481-15.554-8.618L47.749.307c.73-.41 1.63-.41 2.36 0m16.72 9.267L19.045 36.055l13.157 7.283 47.785-26.48L66.83 9.634zm15.505 8.58L34.55 44.637l14.378 7.96 47.785-26.48-14.378-7.956zm15.52 9.922-47.77 26.481v52.962l46.628-25.855a2.17 2.17 0 0 0 1.142-1.951zm-50.182 79.443V54.557l-14.29-7.98V59.58c.005 1.039-.564 1.998-1.495 2.534a3.17 3.17 0 0 1-3.033.052L17.94 56.147c-1.47-.795-2.376-2.295-2.357-3.912V36.68L0 28.076v51.636a2.17 2.17 0 0 0 1.167 1.951l46.58 25.818zm-29.81-69.537 13.163 7.33V59.58c0 .578-.564.841-1.128.554l-10.85-6.018-.004-.005a2.16 2.16 0 0 1-1.181-1.96z" clip-rule="evenodd"/><path fill="#9730d8" fill-rule="evenodd" d="m145.598.307-14.364 7.955 47.77 26.481 15.554-8.618L147.959.307a2.42 2.42 0 0 0-2.361 0m-16.721 9.267 47.785 26.481-13.157 7.283-47.785-26.48 13.157-7.223zm-15.505 8.58 47.785 26.482-14.378 7.96-47.785-26.48 14.378-7.956zm-15.52 9.922 47.771 26.481v52.962L98.994 81.664a2.17 2.17 0 0 1-1.142-1.951zm50.182 79.443V54.557l14.29-7.98V59.58c-.005 1.039.564 1.998 1.495 2.534a3.17 3.17 0 0 0 3.033.052l10.914-6.018c1.47-.795 2.376-2.295 2.357-3.912V36.68l15.584-8.605v51.636a2.17 2.17 0 0 1-1.167 1.951l-46.579 25.818zm29.81-69.537-13.163 7.33V59.58c0 .578.564.841 1.128.554l10.849-6.018.005-.005c.745-.39 1.201-1.147 1.181-1.96z" clip-rule="evenodd"/><path fill="#436724" fill-rule="evenodd" d="m96.672 44.842-14.363 7.955 47.77 26.481 15.553-8.618-46.6-25.818c-.73-.41-1.63-.41-2.36 0m-16.72 9.267 47.784 26.481-13.157 7.284-47.785-26.482L79.95 54.17zM64.446 62.69l47.785 26.481-14.379 7.96-47.785-26.48 14.379-7.956zm-15.52 9.921 47.77 26.481v52.962l-46.629-25.855a2.17 2.17 0 0 1-1.141-1.951zm50.181 79.443V99.092l14.29-7.979v13.001c-.004 1.039.564 1.998 1.495 2.534a3.17 3.17 0 0 0 3.034.052l10.913-6.018c1.47-.795 2.377-2.295 2.357-3.912V81.216l15.584-8.605v51.636a2.17 2.17 0 0 1-1.166 1.951l-46.58 25.818zm29.81-69.537-13.162 7.33v14.267c0 .578.563.841 1.127.555l10.85-6.019.004-.005c.745-.39 1.201-1.147 1.181-1.96z" clip-rule="evenodd"/></svg>