<svg xmlns="http://www.w3.org/2000/svg" width="106" height="23" fill="none" viewBox="0 0 106 23"><rect width="10" height="10" y="6.5" fill="#eb5a1c" rx="5"/><path fill="#eb5a1c" d="M14.876 15V6.912h1.464l1.992 3.384q.552.948.996 1.752.456.804.624 1.128l.168.336q-.072-1.092-.072-3.204V6.912h1.236V15H19.82l-2.004-3.372q-.54-.912-.996-1.716a44 44 0 0 1-.624-1.176l-.18-.348q.096 1.2.096 3.228V15zm11.888-3.48v-.216q-.024-.684-.372-1.08-.348-.408-.996-.408-.6 0-1.032.444-.432.432-.54 1.26zm.756 2.1v1.056q-.672.384-1.776.384-1.416 0-2.256-.852t-.84-2.232q0-1.464.768-2.292.768-.84 1.956-.84 1.164 0 1.848.732.684.72.684 2.088 0 .372-.072.78h-3.996q.12.792.672 1.212t1.392.42q.972 0 1.62-.456M30.597 15l-1.908-6.084h1.248l.564 2.016q.276.96.468 1.692t.24.984l.048.252q.156-.756.792-2.94l.588-2.004h1.14l.6 2.004a133 133 0 0 1 .756 2.712l.048.24q.144-.708.816-2.952l.6-2.004h1.188L35.853 15h-1.344l-.564-1.992L33.5 11.4q-.18-.708-.24-.96l-.048-.24q-.168.78-.732 2.808L31.929 15zm12.48-7.056v2.952h1.116q.768 0 1.164-.396.396-.408.396-1.08 0-1.476-1.62-1.476zM46.04 15l-1.896-3.072h-1.068V15H41.84V6.912h2.256q1.392 0 2.148.684.756.672.756 1.836-.012.852-.432 1.452-.42.588-1.164.852L47.517 15zm6.352-3.48v-.216q-.024-.684-.372-1.08-.348-.408-.996-.408-.6 0-1.032.444-.432.432-.54 1.26zm.756 2.1v1.056q-.672.384-1.776.384-1.416 0-2.256-.852t-.84-2.232q0-1.464.768-2.292.768-.84 1.956-.84 1.164 0 1.848.732.684.72.684 2.088 0 .372-.072.78h-3.996q.12.792.672 1.212t1.392.42q.972 0 1.62-.456m4.265.432q.648 0 1.128-.528.492-.528.492-1.584 0-1.08-.492-1.572a1.57 1.57 0 0 0-1.164-.504q-.684 0-1.14.564-.444.564-.444 1.5 0 .996.456 1.56.468.564 1.164.564m1.62-5.136h1.188v8.412h-1.188v-3.264q-.648 1.02-1.836 1.02t-1.908-.888q-.708-.9-.708-2.28 0-1.344.696-2.208.708-.876 1.908-.876t1.848.996zm6.625 0h1.176V15h-1.176v-1.044q-.48 1.116-1.896 1.116-.9 0-1.428-.528-.528-.54-.528-1.476V8.916h1.188v3.864q0 .624.3.96.312.324.852.324.684 0 1.092-.48.42-.48.42-1.356zm6.61 2.604v-.216q-.024-.684-.373-1.08-.348-.408-.996-.408-.6 0-1.032.444-.432.432-.54 1.26zm.755 2.1v1.056q-.672.384-1.776.384-1.416 0-2.256-.852t-.84-2.232q0-1.464.768-2.292.768-.84 1.956-.84 1.164 0 1.848.732.684.72.684 2.088 0 .372-.072.78H69.34q.12.792.672 1.212t1.392.42q.972 0 1.62-.456m5.237-4.5v1.068q-.588-.348-1.512-.348-.42 0-.672.192a.61.61 0 0 0-.24.504q0 .084.012.168.024.072.072.156.048.072.084.132.048.048.144.108t.144.108q.06.036.18.096.132.06.192.096.06.024.204.096l.216.084q.708.312 1.104.708.408.384.408 1.032 0 .816-.576 1.284-.576.456-1.56.456-1.08 0-1.8-.36v-1.116q.84.516 1.74.516.468 0 .72-.192a.6.6 0 0 0 .264-.504.64.64 0 0 0-.204-.468 1.3 1.3 0 0 0-.42-.312q-.204-.108-.708-.324-1.428-.588-1.428-1.728 0-.804.6-1.26t1.5-.456q.984 0 1.536.264m3.083.708v3.348q0 .876.84.876.492 0 .828-.264v1.056q-.396.216-.972.216-1.884 0-1.884-1.908V9.828h-.948v-.912h.948V7.428h1.188v1.488h1.596v.912z"/></svg>