<svg xmlns="http://www.w3.org/2000/svg" width="104" height="98" fill="none" viewBox="0 0 104 98"><rect width="103" height="98" x=".5" fill="#f7f9c8" rx="49"/><path stroke="#bb9913" stroke-linecap="round" stroke-linejoin="round" stroke-width="2.5" d="M77.885 67.398a8.645 8.645 0 1 0 0-17.29 8.645 8.645 0 0 0 0 17.29"/><path stroke="#bb9913" stroke-linecap="round" stroke-linejoin="round" stroke-width="2.5" d="M77.885 61.935a3.182 3.182 0 1 0 0-6.365 3.182 3.182 0 0 0 0 6.365M26.114 67.398a8.645 8.645 0 1 0 0-17.29 8.645 8.645 0 0 0 0 17.29"/><path stroke="#bb9913" stroke-linecap="round" stroke-linejoin="round" stroke-width="2.5" d="M26.114 61.935a3.182 3.182 0 1 0 0-6.365 3.182 3.182 0 0 0 0 6.365M28.641 56.831l9.814-11.013m38.323 9.958L66.197 30.603h-6.018M22.935 44.367l22.739 11.41m5.757-3.11-26.733-14.11 6.365-1.659 15.927 3.81"/><path stroke="#bb9913" stroke-linecap="round" stroke-linejoin="round" stroke-width="2.5" d="M53.61 40.304s2.142 1.02 3.387 3.648h9.545m0 0-1.989-7.142H52.278c-3.078 0-5.639 2.871-5.88 6.38h10.188m9.956.762L57.188 55.45m7.02-3.545c.173-2.922 6.26-12.691 17.152-8.264M51.43 58.885c3.181 0 5.76-1.392 5.76-3.11s-2.579-3.109-5.76-3.109-5.758 1.392-5.758 3.11 2.578 3.11 5.759 3.11"/></svg>