<svg xmlns="http://www.w3.org/2000/svg" width="16" height="19" fill="none" viewBox="0 0 16 19"><path fill="#3bb758" d="M1.896 3.793h1.896A3.79 3.79 0 0 1 7.585 0a3.79 3.79 0 0 1 3.792 3.793h1.897c1.043 0 1.896.853 1.896 1.896v11.378a1.9 1.9 0 0 1-1.896 1.896H1.896A1.9 1.9 0 0 1 0 17.067V5.689c0-1.043.853-1.896 1.896-1.896M9.48 7.585a.95.95 0 0 0 .948.948.95.95 0 0 0 .948-.948V5.69H9.481zM7.585 1.896a1.9 1.9 0 0 0-1.897 1.897h3.793a1.9 1.9 0 0 0-1.896-1.897m-3.793 5.69a.95.95 0 0 0 .948.947.95.95 0 0 0 .948-.948V5.69H3.792z"/></svg>