<svg xmlns="http://www.w3.org/2000/svg" width="106" height="23" fill="none" viewBox="0 0 106 23"><rect width="10" height="10" y="6.5" fill="#eb5a1c" rx="5"/><path fill="#eb5a1c" d="M14.552 10.92q0-1.884 1.008-3.024t2.7-1.14q1.728 0 2.724 1.14.996 1.128.996 3.024t-1.008 3.036q-.996 1.14-2.7 1.14-1.692 0-2.712-1.14-1.008-1.14-1.008-3.036m1.932-2.196q-.636.804-.636 2.196t.66 2.208 1.764.816q1.14 0 1.776-.804t.636-2.22q0-1.404-.648-2.208-.636-.804-1.776-.804-1.128 0-1.776.816m8.051.192V9.96q.54-1.128 1.896-1.128.9 0 1.428.552t.528 1.5V15h-1.176v-3.84q0-.636-.324-.972-.312-.336-.84-.336-.624 0-1.068.492-.444.48-.444 1.356V15H23.36V8.916zm9.91.912v3.348q0 .876.84.876.493 0 .829-.264v1.056q-.396.216-.972.216-1.884 0-1.884-1.908V9.828h-.948v-.912h.948V7.428h1.188v1.488h1.596v.912zm4.141-3.312V9.96q.516-1.128 1.884-1.128.888 0 1.428.552t.54 1.536V15h-1.176v-3.84q0-.624-.324-.96-.312-.348-.828-.348-.6 0-1.068.456-.456.456-.456 1.392V15H37.41V6.516zm9.213 5.004v-.216q-.024-.684-.372-1.08-.348-.408-.996-.408-.6 0-1.032.444-.432.432-.54 1.26zm.756 2.1v1.056q-.672.384-1.776.384-1.416 0-2.256-.852t-.84-2.232q0-1.464.768-2.292.768-.84 1.956-.84 1.164 0 1.848.732.684.72.684 2.088 0 .372-.072.78h-3.996q.12.792.672 1.212t1.392.42q.972 0 1.62-.456m9.078-6.588h1.092l.852 2.88 1.092 3.804q.444-2.184.828-3.804l.708-3h1.248L61.473 15h-1.476l-.768-2.556-1.044-3.612q-.276 1.14-1.008 3.612L56.433 15h-1.488l-2.124-8.088h1.284l.756 2.988.888 3.792q.54-2.016 1.056-3.792zm10.215 5.256h-.912q-.672 0-1.02.264a.82.82 0 0 0-.336.672q0 .42.264.66t.768.24q.576 0 .9-.312.336-.324.336-.84zm-3.06-1.92v-1.14q.708-.408 1.872-.408 2.388 0 2.388 2.316V15h-1.164v-.72q-.468.768-1.644.768-.864 0-1.392-.492-.516-.504-.516-1.272 0-.876.66-1.356.66-.492 1.848-.492h1.008v-.348q0-.624-.3-.936-.3-.324-.996-.324-.972 0-1.764.54m7.525 4.5-2.424-5.952h1.308l.756 1.98.948 2.568q.108-.36.864-2.568l.684-1.98h1.248L73.5 14.832q-.876 2.34-2.676 2.34-.324 0-.552-.06v-1.008q.192.048.408.048 1.164 0 1.632-1.284"/></svg>