<svg xmlns="http://www.w3.org/2000/svg" width="26" height="26" fill="none" viewBox="0 0 26 26"><rect width="25.4" height="25.4" x=".3" y=".3" fill="#f7f9c8" rx="2.7"/><rect width="25.4" height="25.4" x=".3" y=".3" stroke="#d9c119" stroke-width=".6" rx="2.7"/><path fill="#d9c119" d="M17.038 9.568c-.309 1.408.83 2.816 2.276 2.777 3.066-.135 3.066-4.513 0-4.648a2.34 2.34 0 0 0-2.276 1.871m.713.386a.21.21 0 0 1 .29 0l.752.752 1.774-1.774a.21.21 0 0 1 .29 0 .21.21 0 0 1 0 .289l-1.91 1.91a.21.21 0 0 1-.29 0l-.906-.907c-.077-.058-.077-.193 0-.27M13.74 8.932l-1.235 1.234V6h2.835v4.127l-1.176-1.195V7.504a.214.214 0 0 0-.212-.212.214.214 0 0 0-.212.212zM8.783 11.65h-.02V6.27c0-.154.117-.27.27-.27H12.1v4.667c0 .116.097.213.193.213.058 0 .116-.02.155-.058l1.504-1.505 1.466 1.466a.205.205 0 0 0 .231.039c.077-.039.135-.116.135-.193V6h3.067c.154 0 .27.116.27.27v1.041c-3.356.406-3.337 5.054 0 5.459v1.446l-3.896 1.89a1.47 1.47 0 0 0-.637-1.794s-3.625-2.102-3.645-2.102c-.636-.463-1.388-.752-2.16-.559m13.81 3.356-6.558 4.918a2.03 2.03 0 0 1-1.582.386l-3.085-.521-4.109-.849v-6.364l1.35-.444.078-.02a1.86 1.86 0 0 1 1.562.174l4.089 2.373c1.176.733.173 2.488-1.061 1.832l-2.43-1.408c-.232-.135-.444.212-.212.366l2.43 1.408c.559.348 1.196.174 1.716-.096 1.697-.83 5.13-2.469 6.828-3.298 1.041-.502 1.87.868.983 1.543M6.391 11.593h-1.93a.47.47 0 0 0-.462.463v7.233c0 .25.212.462.463.462h1.929a.47.47 0 0 0 .462-.463v-7.232a.47.47 0 0 0-.462-.463M6.218 14.1a.346.346 0 0 1-.347.348h-.887a.346.346 0 0 1-.348-.348v-1.639c0-.193.155-.347.348-.347h.887c.193 0 .347.154.347.347zm-1.177-1.58h.772v1.524H5.04z"/></svg>