<svg xmlns="http://www.w3.org/2000/svg" width="26" height="26" fill="none" viewBox="0 0 26 26"><rect width="26" height="26" fill="#008cef" fill-opacity=".1" rx="3"/><rect width="25.4" height="25.4" x=".3" y=".3" stroke="#008cef" stroke-opacity=".8" stroke-width=".6" rx="2.7"/><path fill="#008cef" fill-opacity=".8" d="M10.977 5H4.854A.84.84 0 0 0 4 5.854v1.481c0 .142.114.285.285.285h6.692zm1.993 4.642V5h-1.423v4.642c.54-.37.57-.456.712-.456s.2.085.712.456"/><path fill="#008cef" fill-opacity=".8" d="M18.41 13.8c.513 0 .997.085 1.424.227v-5.81H13.54v1.994q0 .172-.171.256c-.086.057-.2.029-.285-.028l-.826-.626-.825.598c-.086.056-.2.085-.285.028a.3.3 0 0 1-.143-.256V8.189h-6.35v10.28c0 .484.37.854.855.854h8.628a5 5 0 0 1-.143-1.139c0-2.392 1.994-4.385 4.414-4.385M9.013 17.87H7.276a.285.285 0 0 1-.285-.284c0-.171.114-.285.285-.285h1.737c.17 0 .285.114.285.285a.306.306 0 0 1-.285.284m0-1.423H7.276a.285.285 0 0 1-.285-.285c0-.171.114-.285.285-.285h1.737c.17 0 .285.114.285.285a.306.306 0 0 1-.285.285"/><path fill="#008cef" fill-opacity=".8" d="M18.41 14.37a3.816 3.816 0 1 0 3.815 3.815c0-2.079-1.708-3.816-3.815-3.816m1.936 2.761-2.705 2.563a.275.275 0 0 1-.399 0l-.797-.797a.275.275 0 0 1 0-.399.275.275 0 0 1 .398 0l.57.598 2.506-2.363a.275.275 0 0 1 .398 0c.143.113.143.284.029.398m.141-9.766v-1.51A.84.84 0 0 0 19.633 5h-6.094v2.648h6.692c.142 0 .256-.142.256-.284"/></svg>