<svg xmlns="http://www.w3.org/2000/svg" width="26" height="26" fill="none" viewBox="0 0 26 26"><rect width="25.4" height="25.4" x=".3" y=".3" fill="#e0d4fc" rx="2.7"/><rect width="25.4" height="25.4" x=".3" y=".3" stroke="#6226ef" stroke-width=".6" rx="2.7"/><path fill="#6226ef" d="M3.313 6.625h2.812a.312.312 0 1 0 0-.625H3.313a.312.312 0 1 0 0 .625m1.875.938c0 .173.14.312.312.312h1.875a.312.312 0 1 0 0-.625H5.5a.31.31 0 0 0-.311.313m7.499 6.146h-.626v.937c0 .173-.14.313-.312.313H10.5a.31.31 0 0 1-.312-.313v-.937h-.626v3.125h3.126z"/><path fill="#6226ef" d="M10.813 13.709h.625v.625h-.626zm-2.188-3.75h.625v.625h-.625zm-2.779 7.5H3.625v.625h.313a.312.312 0 1 1 0 .626h-.313v.625H5.21c-.1-.7.139-1.39.636-1.876"/><path fill="#6226ef" d="M10.5 13.084V9.96h-.625v.937c0 .173-.14.313-.313.313h-1.25A.31.31 0 0 1 8 10.896V9.96h-.625v3.125zM7.688 19.02c0 .417-.625.417-.625 0s.625-.417.625 0m-1.875-5.311v3.125h3.125V13.71h-.626v.937c0 .173-.14.313-.312.313H6.75a.31.31 0 0 1-.313-.313v-.937zm11.875-.442.754.754h2.249l-.624-1.875h-2.38z"/><path fill="#6226ef" d="M7.063 13.709h.625v.625h-.625z"/><path fill="#6226ef" d="M5.188 13.395c0-.173.14-.313.313-.313h1.25V9.644c0-.173.14-.312.312-.312h3.75c.173 0 .313.14.313.312v3.438H13c.173 0 .313.14.313.313v3.438h2.5V8.708L3 8.707v8.125h2.187zm15 4.064a1.564 1.564 0 0 0 0 3.125 1.563 1.563 0 0 0 0-3.125m0 2.5a.938.938 0 1 1 .001-1.876.938.938 0 0 1-.001 1.876m2.164-.627h.647v-.625h-.647c.03.21.03.414 0 .625"/><path fill="#6226ef" d="M22.685 16.52h.313v-1.044l-1.94-.831h-2.747a.3.3 0 0 1-.221-.092l-.937-.937a.3.3 0 0 1-.092-.22v-1.563c0-.173.14-.313.313-.313h2.483l-.209-.625h-3.212v6.25c0 .173-.14.313-.312.313H8.902c.184.18.336.39.448.625h8.86a2.19 2.19 0 0 1 1.976-1.25 2.19 2.19 0 0 1 1.976 1.25h.836v-.937h-.313a.312.312 0 1 1 0-.626m-4.375-.312h-.312a.312.312 0 1 1 0-.626h.312a.312.312 0 1 1 0 .626M7.375 17.459a1.564 1.564 0 0 0 0 3.125 1.564 1.564 0 0 0 0-3.125m0 2.5a.938.938 0 1 1 .002-1.876.938.938 0 0 1-.002 1.876M20.5 19.02c0 .417-.625.417-.625 0s.625-.417.625 0m-10.96-.313c.03.21.03.414 0 .625h8.482c-.03-.21-.03-.414 0-.625z"/></svg>