<svg xmlns="http://www.w3.org/2000/svg" width="25" height="24" fill="none" viewBox="0 0 25 24"><path stroke="#fef5ee" stroke-linecap="round" stroke-linejoin="round" stroke-width="1.5" d="M12.5 22c-.818 0-1.6-.33-3.163-.99C5.446 19.366 3.5 18.543 3.5 17.16V7m9 15c.818 0 1.6-.33 3.163-.99 3.891-1.644 5.837-2.466 5.837-3.849V7m-9 15V11.355M8.826 9.691 5.905 8.278C4.302 7.502 3.5 7.114 3.5 6.5s.802-1.002 2.405-1.778l2.92-1.413C10.63 2.436 11.53 2 12.5 2s1.871.436 3.674 1.309l2.921 1.413C20.698 5.498 21.5 5.886 21.5 6.5s-.802 1.002-2.405 1.778l-2.92 1.413C14.37 10.564 13.47 11 12.5 11s-1.871-.436-3.674-1.309M6.5 12l2 1m9-9-10 5"/></svg>