<svg xmlns="http://www.w3.org/2000/svg" width="49" height="43" fill="none" viewBox="0 0 49 43"><rect width="49" height="42.764" fill="#fde9d7" rx="7.127"/><path fill="#f08047" d="m11.062 17.432 5.112-8.38c.606-1.012 1.733-1.294 2.6-.787l13.633 7.901c.75.422 1.068 1.294.722 2.166 1.184.73 3.119 7.93 3.119 7.93l1.675 1.35c.376.309.491.815.29 1.265l-2.947 5.343c-.26.45-.809.647-1.3.45-.924-.394-2.455-.956-3.841-1.153-1.069-.14-2.398-1.153-2.6-1.434-.693-.816-7.712-9.224-7.712-9.224a1.86 1.86 0 0 1 .405-2.728c.837-.562 1.993-.365 2.657.394l3.322 3.965c.52.619 1.473.534 1.877-.14l1.733-2.84-14.586-8.465-2.946 4.809a.576.576 0 0 0 .202.759l5.574 3.234v.056c0 .422.145.844.434 1.181l3.408 4.078-.087.14c-.346.619-1.155.816-1.79.478l-.203-.112c-.635-.338-.895-1.069-.722-1.716-.144.056-.289.056-.433.056-.26 0-.52-.056-.751-.196a1.484 1.484 0 0 1-.578-2.025c-.144.056-.289.056-.462.056-.26 0-.52-.056-.75-.197a1.445 1.445 0 0 1-.636-1.884l-3.668-2.109c-.867-.478-1.156-1.575-.751-2.221m20.131 1.8.78-1.266c.174-.253.058-.59-.202-.76l-13.633-7.9a.61.61 0 0 0-.78.197l-.78 1.265z"/><path fill="#f08047" d="m17.297 19.429-2.57-1.49a.536.536 0 0 1-.203-.732l.867-1.434c.144-.253.491-.337.751-.197l2.57 1.49c.26.142.347.479.203.732l-.867 1.434c-.144.253-.49.338-.75.197"/></svg>