<svg xmlns="http://www.w3.org/2000/svg" width="18" height="18" fill="none" viewBox="0 0 18 18"><path stroke="#fff" stroke-linejoin="round" stroke-width="1.5" d="m12.319 3.454.742-.743A1.575 1.575 0 0 1 15.29 4.94l-.743.742M12.32 3.454 7.324 8.448c-.38.381-.65.858-.781 1.38L6 12l2.172-.543c.522-.13.999-.4 1.38-.781l4.994-4.995M12.32 3.454l2.227 2.227"/><path stroke="#fff" stroke-linecap="round" stroke-linejoin="round" stroke-width="1.5" d="M14.25 10.125c0 2.466 0 3.698-.681 4.528a3 3 0 0 1-.416.416c-.83.681-2.062.681-4.528.681H8.25c-2.828 0-4.243 0-5.121-.879-.879-.878-.879-2.293-.879-5.121v-.375c0-2.466 0-3.698.681-4.528q.188-.228.416-.416c.83-.681 2.062-.681 4.528-.681"/></svg>