<svg xmlns="http://www.w3.org/2000/svg" width="82" height="54" fill="none" viewBox="0 0 82 54"><path fill="#a530f2" fill-opacity=".08" fill-rule="evenodd" d="M57.953 4.443c-.768-.122-1.44.449-1.188 1.01L69.177 33.08c.11.245.38.425.715.479l10.464 1.665c.767.123 1.44-.448 1.187-1.01L69.132 6.588c-.11-.244-.38-.425-.715-.478zm-2.117 25.68c.252.56-.42 1.13-1.187 1.009L42.525 29.2c-.334-.053-.604-.234-.714-.478l-12.41-27.63c-.251-.56.42-1.131 1.188-1.01l12.124 1.932c.334.053.604.234.714.479zM45.765 3.7c-.252-.56.42-1.132 1.188-1.01l6.766 1.079c.334.053.604.234.714.478l12.411 27.628c.252.56-.42 1.132-1.187 1.01l-6.766-1.079c-.335-.053-.605-.234-.714-.479zM20.99 48.51c-.355-.056-.728.04-.975.25l-4.183 3.554c-.516.439-.24 1.121.503 1.24l13.243 2.108q.063.006.13.02l10.969 1.745q.068.007.132.022l13.446 2.142c.355.056.73-.04.976-.25l4.182-3.554c.517-.438.24-1.12-.502-1.24zm.597-3.023c-.517.438-1.447.312-1.69-.23L7.455 17.563c-.117-.26-.036-.551.211-.761l18.39-15.63c.516-.439 1.447-.312 1.69.23l12.441 27.694c.116.26.035.55-.212.76zm-8.72 5.744c.244.542 1.174.668 1.69.23l4.183-3.555c.247-.21.328-.501.212-.76L6.51 19.45c-.244-.542-1.174-.669-1.69-.23L.637 22.776c-.247.21-.328.501-.211.76zm46.023-8.327c.306.068.653.002.88-.19l8.97-7.624c.248-.21.621-.306.977-.25l10.427 1.662c.743.118 1.02.8.503 1.239l-18.39 15.63c-.246.21-.62.305-.975.248l-37.919-6.04c-.742-.118-1.019-.8-.503-1.239l18.39-15.63c.247-.21.62-.305.976-.248l12.249 1.95c.742.118 1.019.8.502 1.24l-7.579 6.441c-.311.265-.28.672.072.908.132.088.29.14.453.156zm-8.101-3.76c-.517.44-.24 1.122.502 1.24l6.955 1.109c.355.056.729-.04.976-.249l6.853-5.825c.516-.438.24-1.12-.503-1.24l-6.954-1.107c-.355-.057-.729.038-.976.248z" clip-rule="evenodd"/></svg>