<svg xmlns="http://www.w3.org/2000/svg" width="57" height="56" fill="none" viewBox="0 0 57 56"><circle cx="28.616" cy="27.805" r="27.407" fill="#f3faeb" stroke="#56862a" stroke-width=".8"/><path fill="#56862a" d="M17.12 24.207c-1.438-2.664.014-5.604 2.779-7.136 1.33-.737 3.052-.417 3.97.739l2.037 2.564c.866 1.09 1 2.538.344 3.748l-.534.986c-.155.286-.18.616-.021.9.288.517.901 1.433 2.083 2.524s2.175 1.657 2.735 1.923c.307.146.665.124.974-.019l1.068-.493c1.312-.605 2.88-.483 4.062.318l2.777 1.88c1.252.847 1.599 2.436.8 3.664-1.66 2.553-4.844 3.892-7.73 2.565-2.433-1.12-5.541-2.97-8.833-6.01-3.292-3.038-5.298-5.908-6.51-8.153"/></svg>