<svg xmlns="http://www.w3.org/2000/svg" width="26" height="26" fill="none" viewBox="0 0 26 26"><rect width="25.4" height="25.4" x=".3" y=".3" fill="#ffeddd" rx="2.7"/><rect width="25.4" height="25.4" x=".3" y=".3" stroke="#ef7743" stroke-width=".6" rx="2.7"/><path fill="#eb5a1c" fill-opacity=".8" d="M9.194 5.81a1.968 1.968 0 1 0-3.833-.892 1.968 1.968 0 0 0 3.833.892M6.202 13.773a3.6 3.6 0 0 1-.64-.275 2.7 2.7 0 0 1-1.253-1.463 3.2 3.2 0 0 1-.177-1.086c.001-.493.09-1 .27-1.554.117-.352.232-.596.276-.685a.89.89 0 0 1 1.2-.398.894.894 0 0 1 .396 1.198l-.005.01-.005.01-.038.086c-.031.072-.079.19-.128.339-.055.164-.183.588-.181.993q0 .42.164.674a.9.9 0 0 0 .202.22c.11-.826.288-1.618.414-2.263a2.2 2.2 0 0 0 .08-.487l4.31.917a.7.7 0 0 0 .292-1.37L5.93 7.482a1 1 0 0 0-.121-.015c-.744-.149-1.78.269-2.208 1.515-.595 1.765-.723 2.914-.497 4.858.185.95.685 1.325 1.237 1.465.223.734.501 1.942.5 3.391-.001 1.157-.174 2.465-.68 3.833a1.094 1.094 0 1 0 2.051.76c.609-1.644.816-3.218.816-4.592-.003-2.192-.518-3.878-.796-4.633a6 6 0 0 1-.03-.29"/><path fill="#eb5a1c" fill-opacity=".8" d="M21.807 23.803v-7.991h.496v-.992H7.793v.992h.496v7.991h.816v-7.991H20.99v7.991zM8.72 12.61a.603.603 0 1 1 .015 1.022.9.9 0 0 1-.47.35 1.167 1.167 0 1 0 .598-2.016l1.4-1.505h2.02a.131.131 0 1 0 0-.262h-2.077a.13.13 0 0 0-.097.042l-1.886 2.027a.9.9 0 0 1 .496.341"/><path fill="#eb5a1c" fill-opacity=".8" d="M5.923 11.726c-.133-.206-.195-.471-.195-.777-.001-.362.092-.76.19-1.055a4 4 0 0 1 .176-.448l.01-.02.001-.003a.7.7 0 0 0-1.25-.63c-.01.022-.137.274-.266.661-.127.388-.26.91-.26 1.495 0 .326.042.675.166 1.022.18.522.57 1.031 1.165 1.359.594.33 1.358.5 2.339.5a.7.7 0 0 0 0-1.4c-.547 0-.964-.064-1.27-.16-.462-.148-.67-.34-.806-.544M10.344 14.471h5.191V10.68h-5.191zm3.292-3.381h1.487v2.1h-1.487z"/><path fill="#eb5a1c" fill-opacity=".8" d="M14.899 11.356h-1.036v.145H14.9zM14.899 11.729h-1.036v.145H14.9zM14.899 12.1h-1.036v.145H14.9zM14.45 12.47h-.587v.146h.587zM19.426 14.076h-1.969v.394h1.969zM20.786 12.692l-.222-.642-.186.065.2.577h-.2l-.333-.96-.186.065.31.895h-.187v1.779h1.342v-1.78h-.21l.223-.6-.184-.068-.25.669z"/></svg>