<svg xmlns="http://www.w3.org/2000/svg" width="25" height="19" fill="none" viewBox="0 0 25 19"><path fill="#fff" d="M23.131 18.926H2.495A2.497 2.497 0 0 1 0 16.433V2.499A2.5 2.5 0 0 1 2.495.004h4.693Q7.229.001 7.272 0h4.379q.043 0 .084.004h4.694-.002A2.497 2.497 0 0 1 18.923 2.5v4.358l4.21.003a1.84 1.84 0 0 1 1.84 1.839v8.387a1.84 1.84 0 0 1-1.84 1.84m-8.544-1.84a.16.16 0 0 0 .045.113q.047.045.113.044h8.386a.15.15 0 0 0 .113-.044q.046-.047.045-.112V8.699a.154.154 0 0 0-.158-.157H21.1v1.68l.001.002a1.206 1.206 0 0 1-1.625 1.116l-.543-.209c-.182.069-.395.17-.552.22l-.001-.002a1.205 1.205 0 0 1-1.6-1.125v-1.68h-2.033v-.002a.155.155 0 0 0-.158.157zM2.495 1.687a.806.806 0 0 0-.812.813v13.934a.805.805 0 0 0 .812.81h10.417a2 2 0 0 1-.007-.156V8.699a1.84 1.84 0 0 1 1.84-1.84h2.495l-.001-4.36a.8.8 0 0 0-.812-.812h-3.935v3.344a1.44 1.44 0 0 1-1.944 1.335l-1.086-.417c-.338.094-.824.34-1.125.43a1.437 1.437 0 0 1-1.906-1.348V1.687zM19.403 9.51l.013.005.001-.972h-.956v.971a1.27 1.27 0 0 1 .942-.003zM8.113 1.687v2.978a2.43 2.43 0 0 1 1.906-.305l.79.304V1.687zM5.718 15.291H4.33a.842.842 0 0 1 0-1.683h1.387a.841.841 0 0 1 0 1.683"/></svg>