<svg xmlns="http://www.w3.org/2000/svg" width="26" height="26" fill="none" viewBox="0 0 26 26"><rect width="25.4" height="25.4" x=".3" y=".3" fill="#dbefe5" rx="2.7"/><rect width="25.4" height="25.4" x=".3" y=".3" stroke="#46a072" stroke-width=".6" rx="2.7"/><path fill="#46a072" d="M5.308 21.46h15.384c.17 0 .308.17.308.309v.615c0 .17-.138.308-.308.308H5.308c-.17 0-.308-.17-.308-.308v-.615c0-.17.138-.308.308-.308M20.076 19.923a.31.31 0 0 0-.308-.308H6.23a.31.31 0 0 0-.308.308v.923h14.154zM11.154 11.923c0 .41-.615.41-.615 0s.615-.41.615 0"/><path fill="#46a072" d="M16.693 4.54H9.31V19h3.384v-5.846c0-.509.414-.923.923-.923h3.077zm-5.846 8.307a.924.924 0 1 1 .001-1.848.924.924 0 0 1-.001 1.848"/><path fill="#46a072" d="M16.248 14.11a.31.31 0 0 1 .275 0l.17.084v-1.348h-.615v1.348z"/><path fill="#46a072" d="M17.309 14.692a.307.307 0 0 1-.446.275l-.477-.238-.478.238a.308.308 0 0 1-.445-.275v-1.846h-1.847a.31.31 0 0 0-.307.307v5.539c0 .17.137.308.307.308h5.539c.17 0 .307-.138.307-.308v-5.539a.31.31 0 0 0-.307-.307h-1.846z"/><path fill="#46a072" d="M8.693 4.23c0-.17.137-.307.307-.307h8c.17 0 .308.138.308.308v8h.923V3.308A.31.31 0 0 0 17.923 3H8.077a.31.31 0 0 0-.307.308V19h.923z"/></svg>