<svg xmlns="http://www.w3.org/2000/svg" width="40" height="40" fill="none" viewBox="0 0 40 40"><rect width="40" height="40" fill="#3869ee" fill-opacity=".15" rx="20"/><path fill="#3869ee" fill-opacity=".7" d="M15.932 26.244c-1.065-.011-1.937.828-1.948 1.864-.012 1.036.841 1.893 1.907 1.904 1.065.011 1.946-.828 1.958-1.864.011-1.036-.851-1.893-1.917-1.904m-5.657-14.19c-.006.518.425.946.958.951l.969.01 3.409 7.187-1.333 2.285c-.721 1.255.192 2.8 1.664 2.815l10.656.11a.96.96 0 0 0 .979-.932c.005-.518-.426-.946-.959-.952l-10.655-.11 1.086-1.873 7.217.075a1.94 1.94 0 0 0 1.706-.953l3.535-6.078a.92.92 0 0 0-.002-.931.95.95 0 0 0-.348-.343 1 1 0 0 0-.478-.129l-14.336-.148-.635-1.354a.94.94 0 0 0-.35-.396 1 1 0 0 0-.516-.15l-1.588-.017c-.533-.005-.973.414-.98.932m15.344 14.29c-1.066-.01-1.937.828-1.948 1.864-.012 1.037.841 1.894 1.907 1.905 1.065.01 1.946-.828 1.957-1.864s-.85-1.894-1.916-1.905"/></svg>