<svg xmlns="http://www.w3.org/2000/svg" width="26" height="26" fill="none" viewBox="0 0 26 26"><rect width="25.4" height="25.4" x=".3" y=".3" fill="#f1d4ff" rx="2.7"/><rect width="25.4" height="25.4" x=".3" y=".3" stroke="#c54bff" stroke-width=".6" rx="2.7"/><path fill="#ba29ff" fill-opacity=".8" d="M8.444 13.614a.444.444 0 1 1-.889 0V9.446L4 7.668v9.357l8 3.726v-9.083L8.443 9.89zM15.466 4.511 12.442 3 4.547 6.946l3.44 1.72zM16.43 4.992 8.953 9.147l3.49 1.745 7.896-3.947zM19.111 16.28a2.889 2.889 0 1 0 0 5.777 2.889 2.889 0 0 0 0-5.778m1.778 3.332H19.11a.444.444 0 0 1-.444-.444v-1.555a.444.444 0 0 1 .889 0v1.11h1.333a.445.445 0 1 1 0 .89"/><path fill="#ba29ff" fill-opacity=".8" d="M19.108 15.392c.62-.001 1.231.151 1.778.444V7.668l-8 4v9.083l2.472-1.151a3.777 3.777 0 0 1 3.75-4.208"/></svg>