<svg xmlns="http://www.w3.org/2000/svg" width="40" height="40" fill="none" viewBox="0 0 40 40"><rect width="38.333" height="39.037" x=".834" y=".481" fill="#b42cf6" fill-opacity=".12" rx="19.167"/><path fill="#b42cf6" fill-opacity=".5" fill-rule="evenodd" d="M17.22 10.066a.248.248 0 0 0 0 .431l9.426 5.371c.076.044.17.044.245 0l2.658-1.515a.248.248 0 0 0 0-.43L20.123 8.55a.25.25 0 0 0-.245 0zm5.971 7.48a.248.248 0 0 1 0 .431l-3.068 1.749a.25.25 0 0 1-.245 0l-9.426-5.372a.248.248 0 0 1 0-.431l3.068-1.749a.25.25 0 0 1 .245 0zM14.5 12.049a.248.248 0 0 1 0-.431l1.743-.993a.25.25 0 0 1 .246 0l9.425 5.371a.248.248 0 0 1 0 .43l-1.743.994a.25.25 0 0 1-.245 0zm5.864 16.995a.25.25 0 0 0-.125.215v1.834c0 .19.205.31.37.215l3.314-1.888.032-.018 2.712-1.547q.015-.011.033-.018l3.343-1.906a.25.25 0 0 0 .125-.215V23.88c0-.19-.206-.31-.37-.215zm-.6-.9c0 .19-.205.31-.37.215L9.96 22.983a.25.25 0 0 1-.125-.215v-7.794c0-.19.205-.31.37-.216l9.434 5.376a.25.25 0 0 1 .125.215zm-.37 3.164a.248.248 0 0 0 .37-.215v-1.834a.25.25 0 0 0-.125-.215l-9.433-5.376a.248.248 0 0 0-.371.215v1.834c0 .09.048.171.125.215zm7.508-10.83a.24.24 0 0 0 .136-.215v-3.788c0-.09.048-.171.125-.215l2.635-1.502a.248.248 0 0 1 .37.216v7.794a.25.25 0 0 1-.125.216l-9.434 5.375a.248.248 0 0 1-.37-.215V20.35c0-.09.048-.172.125-.216l3.084-1.758a.248.248 0 0 1 .371.216v3.235a.238.238 0 0 0 .37.196zm-2.61.515c0 .19.206.31.371.216l1.776-1.012a.25.25 0 0 0 .125-.215v-2.955c0-.19-.206-.31-.37-.215l-1.776 1.011a.25.25 0 0 0-.125.216z" clip-rule="evenodd"/></svg>