<svg xmlns="http://www.w3.org/2000/svg" width="49" height="49" fill="none" viewBox="0 0 49 49"><rect width="48" height="48" x=".5" y=".5" fill="#dc2626" fill-opacity=".12" rx="24"/><path stroke="#dc2626" stroke-linecap="round" stroke-width="1.5" d="m32 18-.62 10.025c-.158 2.561-.237 3.842-.88 4.763a4 4 0 0 1-1.2 1.128c-.958.584-2.241.584-4.807.584-2.57 0-3.855 0-4.814-.585a4 4 0 0 1-1.2-1.13c-.642-.922-.72-2.205-.874-4.77L17 18M15.5 18h18m-4.944 0-.683-1.408c-.453-.936-.68-1.403-1.071-1.695a2 2 0 0 0-.275-.172c-.433-.225-.953-.225-1.992-.225-1.066 0-1.599 0-2.04.234q-.146.078-.278.18c-.395.303-.616.787-1.058 1.757L20.553 18"/></svg>