<svg xmlns="http://www.w3.org/2000/svg" width="29" height="29" fill="none" viewBox="0 0 29 29"><rect width="28" height="28" x=".5" y=".5" fill="#fbe9e9" rx="14"/><path fill="#c62020" d="M15.034 15.244a.533.533 0 0 0-.533-.533 1.87 1.87 0 0 1-1.867-1.867 1.87 1.87 0 0 1 1.156-1.725v-.852h1.422v.852a1.87 1.87 0 0 1 1.155 1.725h-1.422a.445.445 0 1 0-.444.445c1.078 0 1.955.877 1.955 1.955 0 .828-.517 1.535-1.244 1.82v.847H13.79v-.847a1.96 1.96 0 0 1-1.245-1.82h1.422a.534.534 0 0 0 1.067 0M14.501 6a7.9 7.9 0 0 0-3.053.606L11.076 6 9.725 8.493l2.835-.076-.356-.581a6.5 6.5 0 0 1 2.297-.414A6.585 6.585 0 0 1 21.078 14a6.585 6.585 0 0 1-6.577 6.578A6.585 6.585 0 0 1 7.923 14c0-1.325.392-2.602 1.133-3.693l-1.176-.8A7.96 7.96 0 0 0 6.5 14c0 4.411 3.589 8 8 8s8-3.589 8-8-3.588-8-8-8"/></svg>