<svg xmlns="http://www.w3.org/2000/svg" width="44" height="44" fill="none" viewBox="0 0 44 44"><rect width="44" height="44" fill="#cfeafd" fill-opacity=".8" rx="22"/><path fill="#008cef" d="M26.442 21.165a1 1 0 0 1-.696.331q-.181.01-.367.01h-.006q-.372 0-.73-.04a.504.504 0 0 0 .676.403l.956-.363 2.272 6.624a3.5 3.5 0 0 1 .835-.669q.294-.168.622-.28l.064-.02a3.5 3.5 0 0 1 1.06-.166c1.216 0 2.322.627 2.954 1.62.377-.017.473-.238-.132-1.026-.975-1.271-2.332-1.518-3.287-1.505q-.09-.242-.186-.509c-.585-1.617-1.899-2.387-2.672-2.713l-.213-.622h.813c.16.678.766 1.183 1.493 1.183.848 0 .848-3.07 0-3.07-.727 0-1.334.505-1.493 1.182H27.35l-.29-.847a.5.5 0 0 0-.368-.327l.008.078c.013.268-.078.526-.258.726m-1.599-7.432a2.265 2.265 0 1 0-4.411-1.027 2.265 2.265 0 0 0 4.411 1.027"/><path fill="#008cef" d="m19.7 24.602.01.002 3.818.594 1.43 3.625a1.26 1.26 0 0 0 2.342-.924l-1.695-4.296a1.26 1.26 0 0 0-.977-.781l-3.164-.492c-.015-.697.056-1.415.162-2.106a6.7 6.7 0 0 1-2.008-2.653l-.001-.002-.005-.01a1 1 0 0 1 .026-.77 1 1 0 0 1 .917-.592c.417 0 .795.262.942.652l.015.036q.024.058.08.172a5 5 0 0 0 .492.78c.23-.977-.15-2.096-.978-2.302-.86-.215-2.106.252-2.612 1.726-.686 2.032-.833 3.354-.572 5.59.251 1.295 1.011 1.662 1.777 1.75"/><path fill="#008cef" d="M21.412 17.147a4 4 0 0 1-.103-.223l-.002-.003a.805.805 0 1 0-1.507.567c.024.059.365.967 1.228 1.909q.278.303.633.598c.315.259.676.504 1.09.71a5.7 5.7 0 0 0 1.903.559q.345.04.716.041h.006a7 7 0 0 0 .357-.01.805.805 0 1 0-.083-1.608 6 6 0 0 1-.274.007 4.2 4.2 0 0 1-1.906-.43 4.4 4.4 0 0 1-1.444-1.176 5 5 0 0 1-.614-.94m-11.257 7.388h6.358a.54.54 0 0 0 .538-.538v-6.27a.537.537 0 0 0-.538-.537h-6.359a.537.537 0 0 0-.537.538v6.27c0 .296.24.537.537.537m8.901 5a3 3 0 1 0-5.68 1.926 3 3 0 0 0 5.68-1.926m-2.46 2.086a1.185 1.185 0 1 1-.76-2.245 1.185 1.185 0 0 1 .76 2.245"/><path fill="#008cef" d="M27.662 29.973h-6.42c-.554-1.12-.745-2.263-.808-3.006a.4.4 0 0 0 .285-.383v-1.108a.403.403 0 0 0-.403-.403h-8.205a.403.403 0 0 0-.403.403v1.108c0 .222.18.402.403.402h.044c-.437 1.073-1.112 2.934-1.112 4.195h1.736a3.48 3.48 0 0 1 .294-2.231 3.48 3.48 0 0 1 2.017-1.767 3.501 3.501 0 0 1 4.559 3.999h8.042a3.5 3.5 0 0 1-.029-1.209m5.742-1.429a3 3 0 0 0-2.192-1.044 3 3 0 0 0-1.046.158 3 3 0 0 0-1.99 2.314 3 3 0 0 0 .112 1.49 3 3 0 1 0 5.116-2.918m-1.895 3.077a1.185 1.185 0 1 1-.76-2.244 1.185 1.185 0 0 1 .76 2.244"/></svg>