<svg xmlns="http://www.w3.org/2000/svg" width="18" height="19" fill="none" viewBox="0 0 18 19"><path stroke="#0b0b0b" stroke-linecap="round" stroke-linejoin="round" stroke-width=".9" d="M6.482 2.689c1.24-.543 1.859-.814 2.518-.814s1.279.271 2.518.814l1.278.56c1.97.862 2.954 1.293 2.954 2.001s-.985 1.139-2.954 2.001l-1.278.56c-1.24.543-1.859.814-2.518.814s-1.279-.271-2.518-.814l-1.278-.56C3.234 6.39 2.25 5.958 2.25 5.25s.985-1.139 2.954-2.001z"/><path stroke="#0b0b0b" stroke-linecap="round" stroke-linejoin="round" stroke-width=".9" d="M15.75 5.25v8.25c0 .708-.985 1.139-2.954 2.001l-1.278.56c-1.24.543-1.859.814-2.518.814s-1.279-.271-2.518-.814l-1.278-.56C3.234 14.64 2.25 14.208 2.25 13.5V5.25"/><path stroke="#0b0b0b" stroke-linecap="round" stroke-linejoin="round" stroke-width=".9" d="M15.75 9.75 9 13.125l-6.75-3M9 16.875v-8.25"/><path stroke="#0b0b0b" stroke-linecap="round" stroke-linejoin="round" stroke-width=".9" d="M12.375 15.375v-8.25L5.25 3.375"/><path stroke="#0b0b0b" stroke-linecap="round" stroke-linejoin="round" stroke-width=".9" d="M5.625 15.375v-8.25l7.125-3.75"/></svg>