<svg xmlns="http://www.w3.org/2000/svg" width="18" height="18" fill="none" viewBox="0 0 18 18"><path stroke="#0b0b0b" stroke-linecap="round" stroke-linejoin="round" d="M14.326 13.5H5.972c-2.2 0-3.3 0-3.971-.838-1.273-1.59.178-5.82 1.056-7.412.298 1.8 3.364 1.75 4.481 1.5-.744-1.5.25-2 .746-2.25h0c2.216 2.625 6.952 4.053 8.113 6.914.501 1.236-.927 2.086-2.071 2.086"/><path stroke="#0b0b0b" stroke-linejoin="round" d="M1.5 10.5c3.124 1.072 5.048 1.383 7.516.603.748-.236 1.122-.355 1.355-.339s.709.238 1.66.682c1.187.553 2.817.872 4.469.073"/><path stroke="#0b0b0b" stroke-linecap="round" stroke-linejoin="round" d="M10.125 7.125 11.25 6M11.625 8.25l1.125-1.125"/></svg>