<svg xmlns="http://www.w3.org/2000/svg" width="44" height="44" fill="none" viewBox="0 0 44 44"><rect width="44" height="44" fill="#fbe2cf" fill-opacity=".8" rx="22"/><path fill="#dd4619" d="M28.911 11.5H15.09l-2.59 5.236h19zm-1.943 10.51a2.6 2.6 0 0 0 1.883.815c.253 0 .492-.047.723-.114v4.81H20.53V22.68c.387-.13.737-.34 1.023-.624v-4.44h-3.689v4.425c.368.374.842.635 1.373.736v8.406h-4.81V22.71c.23.067.47.114.721.114.726 0 1.378-.301 1.852-.784v-4.425h-4.5v2.512c0 .662.243 1.26.632 1.73v9.984c0 .364.29.66.647.66H30.22a.653.653 0 0 0 .647-.66v-9.984c.389-.47.632-1.068.632-1.73v-2.512h-4.532z"/><path fill="#dd4619" d="M24.283 22.824c.71 0 1.35-.29 1.822-.755v-4.454h-3.689v4.412a2.6 2.6 0 0 0 1.867.797M16.02 28.15a.84.84 0 0 0 .833-.849.84.84 0 0 0-.833-.848.84.84 0 0 0-.832.848.84.84 0 0 0 .832.848"/></svg>