<svg xmlns="http://www.w3.org/2000/svg" width="17" height="24" fill="none" viewBox="0 0 17 24"><path fill="#fff" fill-rule="evenodd" d="M8.404 1.483a5.686 5.686 0 0 0-4.69 8.899h2.768a.742.742 0 0 1 0-1.483h2.92a.486.486 0 0 0 0-.972H7.424a1.986 1.986 0 0 1 0-3.972h.362v-.742a.742.742 0 0 1 1.483 0v.742h1.36a.742.742 0 0 1 0 1.483H7.424a.503.503 0 1 0 0 1.006h1.978a1.969 1.969 0 1 1 0 3.938h3.693a5.686 5.686 0 0 0-4.69-8.899M1.236 7.168c0 1.156.273 2.247.759 3.214H1.73A1.73 1.73 0 0 0 0 12.112v9.393c0 .956.775 1.73 1.73 1.73h13.35a1.73 1.73 0 0 0 1.73-1.73v-9.393a1.73 1.73 0 0 0-1.73-1.73h-.265A7.169 7.169 0 1 0 1.236 7.169m14.09 6.922v-1.978a.25.25 0 0 0-.248-.247H1.73a.25.25 0 0 0-.247.247v9.393c0 .136.111.248.247.248h13.348a.25.25 0 0 0 .248-.248v-1.977h-4.697a1.73 1.73 0 0 1-1.73-1.73V15.82c0-.955.775-1.73 1.73-1.73zm0 3.955v-2.472h-4.697a.25.25 0 0 0-.247.247v1.977c0 .136.111.248.247.248z" clip-rule="evenodd"/></svg>