<svg xmlns="http://www.w3.org/2000/svg" width="18" height="18" fill="none" viewBox="0 0 18 18"><path stroke="#0b0b0b" stroke-linecap="round" d="M4.5 6.75v5.763c0 1.358 0 2.038.44 2.46.985.946 6.952 1.122 8.12 0 .44-.422.44-1.102.44-2.46V6.75"/><path stroke="#0b0b0b" stroke-linecap="round" stroke-linejoin="round" d="M4.306 9 2.282 7.042C1.761 6.537 1.5 6.285 1.5 5.97s.26-.566.782-1.071l1.501-1.453c.26-.251.39-.377.545-.47s.33-.149.678-.261l1.235-.399c.18-.058.27-.087.332-.052.061.035.08.136.12.338C6.894 3.658 7.85 4.456 9 4.456s2.105-.798 2.308-1.853c.038-.202.058-.303.12-.338.06-.035.15-.006.331.052l1.234.399c.35.112.524.169.679.261.155.093.285.219.545.47l1.5 1.453c.522.505.783.757.783 1.07 0 .315-.26.567-.782 1.072L13.694 9"/></svg>