<svg xmlns="http://www.w3.org/2000/svg" width="113" height="128" fill="none" viewBox="0 0 113 128"><path fill="#436724" fill-rule="evenodd" d="m57.463.364 16.47 9.44-54.78 31.424L1.318 31.001 54.755.364a2.7 2.7 0 0 1 2.708 0M76.637 11.36 21.839 42.785l15.089 8.643 54.797-31.424-15.088-8.57zm17.78 10.183L39.619 52.968l16.489 9.446 54.797-31.424-16.488-9.44zm17.797 11.772L57.434 64.74v62.848l53.471-30.681a2.59 2.59 0 0 0 1.309-2.316zm-57.545 94.272V64.74l-16.387-9.468V70.7a3.48 3.48 0 0 1-1.714 3.007 3.53 3.53 0 0 1-3.48.061l-12.514-7.142a5.26 5.26 0 0 1-2.703-4.642V43.527L.001 33.317V94.59a2.59 2.59 0 0 0 1.337 2.316l53.415 30.637zM20.484 45.072l15.094 8.698V70.7c0 .685-.646.998-1.292.657l-12.442-7.141-.006-.006a2.58 2.58 0 0 1-1.354-2.326z" clip-rule="evenodd"/></svg>