<svg xmlns="http://www.w3.org/2000/svg" width="13" height="14" fill="none" viewBox="0 0 13 14"><path stroke="#7f7f7f" stroke-linecap="round" stroke-linejoin="round" d="M11.869 3.658v3.158M.5 3.658v6.418c0 .873 1.229 1.392 3.687 2.43.987.417 1.48.626 1.997.626V6.409m1.895 4.828s.553 0 1.105 1.263c0 0 1.756-3.157 3.316-3.79"/><path stroke="#7f7f7f" stroke-linecap="round" stroke-linejoin="round" d="m3.864 5.358-1.845-.893C1.006 3.975.5 3.73.5 3.342s.506-.633 1.519-1.123l1.845-.893C5.003.776 5.572.5 6.184.5c.613 0 1.182.275 2.32.826l1.846.893c1.012.49 1.519.735 1.519 1.123s-.507.633-1.52 1.123l-1.844.893c-1.139.55-1.708.826-2.32.826-.613 0-1.182-.275-2.321-.826M2.395 6.815l1.263.632m5.684-5.683L3.026 4.922"/></svg>