<svg xmlns="http://www.w3.org/2000/svg" width="18" height="18" fill="none" viewBox="0 0 18 18"><path stroke="#0b0b0b" d="M3.375 9c0-2.466 0-3.698.681-4.528a3 3 0 0 1 .416-.416c.83-.681 2.062-.681 4.528-.681s3.698 0 4.528.681q.228.188.416.416c.681.83.681 2.062.681 4.528s0 3.698-.681 4.528a3 3 0 0 1-.416.416c-.83.681-2.062.681-4.528.681s-3.698 0-4.528-.681a3 3 0 0 1-.416-.416c-.681-.83-.681-2.062-.681-4.528Z"/><path stroke="#0b0b0b" stroke-linecap="round" d="M6.75 16.5h4.5M6.75 1.5h4.5"/><path stroke="#0b0b0b" stroke-linecap="round" stroke-linejoin="round" d="m7.5 7.5 2.25 2.25m1.5-3-3 3"/></svg>