<svg xmlns="http://www.w3.org/2000/svg" width="20" height="20" fill="none" viewBox="0 0 20 20"><path stroke="#e9d926" stroke-linecap="round" stroke-linejoin="round" d="m11.642 1.872 1.672 3.371c.228.47.836.92 1.349 1.006l3.03.507c1.938.326 2.394 1.744.997 3.142l-2.355 2.375c-.4.402-.618 1.178-.494 1.734l.674 2.94c.532 2.327-.693 3.227-2.735 2.011l-2.84-1.695c-.514-.307-1.359-.307-1.882 0l-2.84 1.695c-2.032 1.217-3.267.307-2.735-2.011l.674-2.94c.124-.556-.095-1.332-.494-1.734L1.307 9.898C-.079 8.5.367 7.082 2.305 6.756l3.03-.507c.503-.086 1.111-.536 1.34-1.006l1.671-3.371c.912-1.83 2.394-1.83 3.296 0"/></svg>