<svg xmlns="http://www.w3.org/2000/svg" width="16" height="16" fill="none" viewBox="0 0 16 16"><circle cx="8" cy="8" r="8" fill="#fff" fill-opacity=".8"/><path stroke="#56862a" stroke-linecap="round" stroke-linejoin="round" stroke-width=".873" d="M12.799 5.397c.155.435-.063.733-.484 1.026-.34.237-.773.494-1.232.932-.45.43-.89.948-1.28 1.458a19 19 0 0 0-1.314 1.934.8.8 0 0 1-.701.405.8.8 0 0 1-.691-.424c-.363-.66-.643-.921-.772-1.015-.357-.26-.749-.305-.749-.872 0-.465.362-.84.808-.84.32.012.612.149.868.335.166.12.341.28.524.49.215-.316.473-.682.763-1.06.42-.55.918-1.14 1.45-1.648.524-.5 1.13-.97 1.771-1.217a.8.8 0 0 1 1.039.496m-8.464 2.64a1.3 1.3 0 0 0-.29-.06l-.069-.003a.836.836 0 0 0-.824.847.84.84 0 0 0 .697.838q.02.01.067.042c.13.094.416.357.786 1.024a.81.81 0 0 0 1.244.23m3.51-6.106c-.655.25-1.272.722-1.806 1.226q-.28.266-.544.552"/></svg>