<svg xmlns="http://www.w3.org/2000/svg" width="16" height="16" fill="none" viewBox="0 0 16 16"><circle cx="8" cy="8" r="8" fill="#fff" fill-opacity=".9"/><path fill="#f08047" d="M13.31 6.45a.68.68 0 0 0-.542-.269h-.349v-.81a.68.68 0 0 0-.679-.677H7.173a.12.12 0 0 1-.079-.03l-.553-.491A.68.68 0 0 0 6.09 4H3.806C3.433 4 3 4.296 3 4.683l.013.664c.011.37.56.356.56-.01l-.014-.65c.016-.044.15-.127.247-.127H6.09q.046 0 .079.03l.553.492a.68.68 0 0 0 .452.172h4.567a.12.12 0 0 1 .119.118v.81H4.975c-.3 0-.569.202-.654.494L3.648 9.07l-.053-2.615c-.01-.365-.562-.357-.56.012 0 .002.092 4.544.091 4.546a.683.683 0 0 0 .68.676h3.707c.368-.008.368-.553 0-.56H3.806a.117.117 0 0 1-.114-.15L4.859 6.83a.12.12 0 0 1 .116-.088h7.793c.052 0 .082.03.095.047a.12.12 0 0 1 .02.103l-.195.688c-.096.355.434.505.539.152l.194-.688a.67.67 0 0 0-.111-.592z"/><path fill="#f08047" d="M12.721 10.407a.27.27 0 0 0-.284.274c-.02 1.567-1.978 2.348-3.077 1.23-1.169-1.155-.261-3.184 1.376-3.078.334.017.654.128.926.316l-.65.067c-.349.04-.32.555.028.559l.029-.002 1.251-.129a.28.28 0 0 0 .246-.332l-.242-1.235c-.076-.36-.613-.255-.549.108l.084.428a2.35 2.35 0 0 0-1.093-.34c-3.241-.042-3.329 4.598-.131 4.726 1.216.038 2.374-1.062 2.36-2.307a.28.28 0 0 0-.275-.285z"/><path fill="#f08047" d="M9.373 10.635c.007.392.59.392.597 0-.007-.392-.59-.392-.597 0m1.257-.299c-.392.006-.392.59 0 .597.392-.007.392-.59 0-.597m.661.299c.006.392.59.392.597 0-.006-.392-.59-.392-.597 0"/></svg>