<svg xmlns="http://www.w3.org/2000/svg" width="20" height="20" fill="none" viewBox="0 0 20 20"><path stroke="#7f7f7f" stroke-width="1.5" d="M2.5 9.156v3.755c0 2.36 0 3.54.732 4.273s1.911.733 4.268.733h5c2.357 0 3.535 0 4.268-.733s.732-1.913.732-4.273V9.156"/><path stroke="#7f7f7f" stroke-linecap="round" stroke-width="1.5" d="M12.5 14.148c-.57.505-1.478.833-2.5.833s-1.93-.328-2.5-.833"/><path stroke="#7f7f7f" stroke-linecap="round" stroke-linejoin="round" stroke-width="1.5" d="m14.833 2.085-9.705.024c-1.449-.074-1.82 1.043-1.82 1.589 0 .488-.063 1.2-.95 2.537-.889 1.338-.822 1.736-.321 2.662.415.768 1.472 1.069 2.023 1.12 1.75.039 2.602-1.474 2.602-2.538.868 2.673 3.337 2.673 4.437 2.367 1.103-.306 2.047-1.402 2.27-2.367.13 1.199.524 1.899 1.689 2.38 1.207.498 2.245-.264 2.765-.752.521-.488.855-1.57-.073-2.761-.64-.822-.907-1.595-.994-2.397-.051-.464-.096-.963-.422-1.281-.477-.464-1.162-.605-1.501-.583"/></svg>