<svg xmlns="http://www.w3.org/2000/svg" width="93" height="62" fill="none" viewBox="0 0 93 62"><path fill="#dd5781" fill-opacity=".08" d="M46.908 54.137c-3.75 1.423-5.239 4.89-3.351 7.72s6.465 3.994 10.215 2.57 5.272-4.904 3.385-7.734-6.5-3.98-10.25-2.556M.716 23.314c.944 1.415 3.25 1.99 5.125 1.278l3.408-1.294 25.295 14.866-.414 8.024c-.189 4.393 5.88 7.343 11.062 5.376l37.494-14.24c1.875-.711 2.636-2.451 1.692-3.866-.943-1.415-3.25-1.99-5.124-1.278L41.76 46.419l.317-6.57 25.394-9.643c2.556-.971 4.102-2.88 4.197-4.915l1.066-21.33a2.3 2.3 0 0 0-.423-1.439c-.305-.443-.758-.82-1.314-1.09A4.7 4.7 0 0 0 69.14.978a4.9 4.9 0 0 0-1.911.3l-50.447 19.16-4.738-2.812a4.55 4.55 0 0 0-1.965-.594 4.9 4.9 0 0 0-2.08.293l-5.59 2.123C.534 20.16-.228 21.9.716 23.315m80.277 17.878c-3.75 1.424-5.238 4.891-3.35 7.721 1.887 2.83 6.465 3.993 10.214 2.57s5.273-4.905 3.386-7.735c-1.888-2.83-6.5-3.98-10.25-2.556"/></svg>