<svg xmlns="http://www.w3.org/2000/svg" width="80" height="67" fill="none" viewBox="0 0 80 67"><path fill="#fff" fill-opacity=".15" fill-rule="evenodd" d="M39.265 8.105C47.309-1.49 61.61-2.748 71.205 5.297s10.853 22.346 2.808 31.941a22.57 22.57 0 0 1-11.759 7.402L49.59 34.02l1.214-1.448 1.473 1.235a6.58 6.58 0 0 0 9.27-.815 6.58 6.58 0 0 0-.815-9.269l-5.791-4.856a2.87 2.87 0 0 1-.355-4.039 2.87 2.87 0 0 1 4.039-.355l9.386 7.87a1.889 1.889 0 1 0 2.427-2.896l-4.705-3.946 2.428-2.895a1.889 1.889 0 1 0-2.896-2.428l-2.428 2.896-1.784-1.496a6.646 6.646 0 0 0-8.54 10.185l5.791 4.856a2.801 2.801 0 0 1-3.599 4.293l-8.55-7.168a1.89 1.89 0 0 0-2.661.234c-.671.8-.563 1.994.234 2.661l4.18 3.505-1.214 1.448-12.665-10.618a22.57 22.57 0 0 1 5.237-12.87m26.229 46.646-5.463 6.516-14.478-12.14a5.667 5.667 0 0 0-7.986.703l-4.855 5.791a5.667 5.667 0 0 0 .702 7.986l14.478 12.139-5.462 6.515c-.67.8-1.862.904-2.662.234L.675 49.719a1.89 1.89 0 0 1-.234-2.661l23.065-27.51c.67-.8 1.862-.905 2.662-.234L65.26 52.089c.8.67.904 1.863.234 2.663m-7.89 9.411L50.32 72.85 35.842 60.71a1.89 1.89 0 0 1-.234-2.661l4.855-5.792c.671-.8 1.862-.904 2.662-.233z" clip-rule="evenodd"/></svg>