<svg xmlns="http://www.w3.org/2000/svg" width="18" height="25" fill="none" viewBox="0 0 18 25"><path fill="#4377f1" fill-rule="evenodd" d="M1.488 7.143a7.143 7.143 0 1 1 12.945 4.167H9.226v-.596h.606a2.074 2.074 0 0 0 0-4.145h-2.38a.904.904 0 0 1 0-1.807h3.858a.595.595 0 1 0 0-1.19H9.375v-1.19a.595.595 0 1 0-1.19 0v1.19H7.45a2.094 2.094 0 0 0 0 4.187h2.381a.882.882 0 0 1 0 1.765H6.317a.596.596 0 0 0 0 1.19h1.719v.596H2.829a7.1 7.1 0 0 1-1.34-4.167m15.774 5.952v2.679H11.31c-.987 0-1.786.799-1.786 1.786v2.38c0 .987.8 1.786 1.786 1.786h5.952v2.679a.595.595 0 0 1-.595.595H.595A.595.595 0 0 1 0 24.405v-11.31c0-.329.266-.595.595-.595h16.072c.329 0 .595.266.595.595m0 3.87v3.57H11.31a.595.595 0 0 1-.596-.595v-2.38c0-.33.267-.596.596-.596z" clip-rule="evenodd"/></svg>