<svg xmlns="http://www.w3.org/2000/svg" width="92" height="59" fill="none" viewBox="0 0 92 59"><path fill="#396aef" fill-opacity=".08" d="m19.65 38.837-8.378 10.997c-.452.592-1.392.838-2.096.555l-5.122-2.061c-.704-.284-.91-1-.46-1.593l7.873-10.332c.439-.577 1.343-.826 2.047-.575a82 82 0 0 0 5.664 1.784c.62.17.843.737.472 1.224m15.521 3.508-10.1 13.284c-.448.59-1.388.842-2.088.56l-5.09-2.054c-.7-.282-.906-.996-.457-1.586l8.93-11.746c.379-.499 1.122-.76 1.785-.639q3.237.588 6.348.92c.75.08 1.091.714.675 1.262zm17.269 1.128L38.84 61.43c-.445.587-1.376.837-2.069.556l-5.042-2.042c-.693-.28-.897-.99-.452-1.578l11.49-15.171c.39-.516 1.104-.837 1.825-.833a91 91 0 0 0 6.893-.238c.923-.068 1.453.69.953 1.35zm20.127-2.755L52.593 67.232c-.44.584-1.36.833-2.045.553l-4.985-2.03c-.686-.28-.887-.986-.447-1.57L61.45 42.502c.358-.475.955-.818 1.612-.947a88 88 0 0 0 8.296-2.039c.981-.294 1.76.475 1.213 1.2zM84.4 33.351l4.037-8.94c.316-.727-.2-1.426-1.106-1.51l-11.403-1.073c-1.318-.122-2.418 1.07-1.772 1.94l1.712 2.332c-3.584 1.71-27.968 12.347-57.863.95-.735-.28-1.697-.029-2.164.582l-2.984 3.904c-.475.623-.25 1.379.498 1.666 34.197 13.09 62.557.424 66.596-1.536l1.565 2.134c.648.868 2.402.609 2.88-.442z"/><path fill="#396aef" fill-opacity=".08" d="M45.385 7.11c-6.522-2.613-15.197-.303-19.377 5.16s-2.282 12.009 4.24 14.621 15.198.302 19.378-5.16c4.18-5.464 2.282-12.01-4.24-14.622m-9.051 14.797c-.18.003-.35-.029-.525-.042l-.464.607c-.465.606-1.429.863-2.153.573-.725-.29-.936-1.018-.471-1.625l.415-.542a4.3 4.3 0 0 1-1.252-1.525c-.287-.6.133-1.331.941-1.636.81-.3 1.702-.063 1.995.54.532 1.106 1.482 1.218 1.866 1.216.431-.004.726-.146.78-.217.172-.224.034-.474-.615-1.12-.126-.128-.25-.247-.347-.357-.059-.069-.141-.143-.226-.228-.626-.62-2.096-2.07-.73-3.853.735-.961 2.208-1.589 3.755-1.603.183-.002.36.015.535.028l.454-.592c.464-.607 1.428-.864 2.153-.574.724.29.935 1.018.47 1.625l-.406.53c.522.407.947.925 1.241 1.539.288.6-.133 1.332-.94 1.636-.81.301-1.703.063-1.996-.539-.535-1.106-1.481-1.218-1.865-1.217-.431.004-.726.146-.78.217-.19.248.08.595.642 1.15q.185.18.32.328c.072.083.163.17.258.265.668.662 2.059 2.042.701 3.816-.736.962-2.209 1.59-3.756 1.604z"/></svg>