<svg xmlns="http://www.w3.org/2000/svg" width="95" height="84" fill="none" viewBox="0 0 95 84"><path fill="#fff" fill-opacity=".15" fill-rule="evenodd" d="M15.66 58.684c-3.557-1.926-6.508-4.2-8.406-6.311-.824-.915-1.455-1.82-1.867-2.681L2.015 55.92c-.012.022-.024.053-.035.075-.46.85.27 2.343 1.828 4.078 1.763 1.963 4.536 4.089 7.901 5.91 3.367 1.827 6.663 2.987 9.27 3.39 2.301.353 3.955.15 4.415-.699q.02-.037.047-.078l3.37-6.225c-.948.12-2.051.087-3.268-.103-2.808-.43-6.325-1.659-9.882-3.584m46.91-25.922 7.746 4.193L80.7 30.57a1.089 1.089 0 0 0 .389-1.446l-1.76-3.253a2.16 2.16 0 0 0-.739-.803 2.1 2.1 0 0 0-1.054-.299l-5.069-.138a.94.94 0 0 1-.747-.405l-2.888-4.168a2.14 2.14 0 0 0-.826-.72 2.1 2.1 0 0 0-1.077-.179l-3.685.305a1.09 1.09 0 0 0-.999 1.117zm-5.2 5.445a569 569 0 0 0 5.718 3.143c1.83.99 3.663 1.974 5.49 2.934.393.053.79.015 1.163-.093a2.77 2.77 0 0 0 1.87-3.456 2.76 2.76 0 0 0-1.337-1.657l-9.463-5.123a2.78 2.78 0 0 0-2.117-.217 2.77 2.77 0 0 0-1.87 3.456c.11.37.294.713.545 1.013M36.761 48.582a7.6 7.6 0 0 0-.62-1.223l.158-.083c.327-.17.669-.342 1.023-.503 5.777-2.054 11.664-4.293 17.474-6.198l.003.002 1.714-.565c.227.188.476.351.745.497l9.463 5.122c.262.142.527.258.802.34.184.7.377 1.402.565 2.104l4.284 17.7q.633 4.199-.63 8.168c-.847 2.667-2.343 5.274-4.48 7.807a21.3 21.3 0 0 1-5.793 4.045q-3.254 1.539-7.182 2.073a5 5 0 0 1-1.628-.027 5.1 5.1 0 0 1-1.535-.554l-11.168-6.074.002-.003-9.035-4.89a5.2 5.2 0 0 1-1.302-.978 5.2 5.2 0 0 1-.905-1.344l-.03-.058a26 26 0 0 1-.983-2.372 26 26 0 0 1-.64-2.027l.02-.045 4.748-8.77q.033-.058.07-.121.022-.038.038-.079l4.739-8.755q.036-.065.074-.129c.477-.873.456-1.917.009-3.06M50.814 62.88c1.008 1.372 2.014 2.747 2.055 3.834a2.94 2.94 0 0 1-.335 1.485 3.14 3.14 0 0 1-1.146 1.182 3.446 3.446 0 0 1-3.366.088l-.13-.08q-.052-.035-.106-.066l-.032-.018c-.964-.596-1.544-1.276-1.766-2.044l-.017-.056c-.216-.84-.036-1.84.536-3.01a.934.934 0 0 0-.428-1.255.95.95 0 0 0-1.265.428c-.78 1.596-1.007 3.04-.662 4.335l.02.077c.292 1.021.928 1.91 1.93 2.668l-1.06 1.96a.945.945 0 1 0 1.662.9l1.037-1.916a5.34 5.34 0 0 0 4.61-.4 4.95 4.95 0 0 0 1.846-1.911c.38-.71.586-1.533.56-2.438-.057-1.674-1.238-3.28-2.416-4.884-1.008-1.372-2.014-2.748-2.055-3.835a2.94 2.94 0 0 1 .335-1.485 3.14 3.14 0 0 1 1.146-1.181 3.446 3.446 0 0 1 3.366-.088l.129.074c.032.027.069.046.109.068l.032.017c.963.597 1.543 1.277 1.766 2.045.244.85.06 1.873-.52 3.06a.942.942 0 1 0 1.69.83c.791-1.626 1.016-3.091.64-4.407-.292-1.022-.928-1.91-1.926-2.676l1.061-1.96a.945.945 0 1 0-1.662-.9l-1.038 1.916a5.3 5.3 0 0 0-2.06-.346 5.4 5.4 0 0 0-2.548.743 4.9 4.9 0 0 0-1.842 1.913c-.38.71-.59 1.53-.56 2.438.056 1.682 1.232 3.29 2.41 4.895M23.58 44.05a12.9 12.9 0 0 0 9.855 1.026 12.92 12.92 0 0 0 7.69-6.247 12.9 12.9 0 0 0 1.024-9.851 12.9 12.9 0 0 0-6.247-7.69 12.9 12.9 0 0 0-9.851-1.024 12.9 12.9 0 0 0-7.689 6.243 12.92 12.92 0 0 0-1.026 9.855 12.92 12.92 0 0 0 6.244 7.689m6.874-4.314a4.5 4.5 0 0 1-2.118.618 4.3 4.3 0 0 1-1.557-.227l-.747 1.379a.94.94 0 0 1-1.279.378.944.944 0 0 1-.383-1.278l.768-1.42c-.752-.603-1.24-1.314-1.471-2.12-.316-1.09-.132-2.305.523-3.645a.941.941 0 1 1 1.69.831c-.441.902-.579 1.667-.4 2.3.16.555.592 1.057 1.307 1.505l.029.015q.056.029.105.066l.084.046c.404.214.84.304 1.264.29a2.6 2.6 0 0 0 1.222-.357c.354-.212.65-.507.842-.863.17-.312.259-.677.244-1.084-.023-.806-.807-1.873-1.594-2.942-.957-1.302-1.91-2.601-1.957-3.997-.026-.75.15-1.44.465-2.03l.004-.007a4.16 4.16 0 0 1 1.536-1.59 4.45 4.45 0 0 1 3.675-.39l.745-1.376a.945.945 0 1 1 1.663.9l-.767 1.415c.756.607 1.241 1.315 1.47 2.124.31 1.093.128 2.304-.523 3.646a.935.935 0 0 1-1.259.426.935.935 0 0 1-.432-1.257c.441-.902.579-1.668.4-2.3-.163-.557-.593-1.062-1.307-1.505l-.029-.015a1 1 0 0 1-.105-.067l-.087-.047a2.5 2.5 0 0 0-1.265-.29 2.6 2.6 0 0 0-1.221.357 2.3 2.3 0 0 0-.845.867 2.1 2.1 0 0 0-.241 1.08c.025.802.81 1.875 1.597 2.944.957 1.302 1.91 2.601 1.96 3.994a4 4 0 0 1-.47 2.036 4.1 4.1 0 0 1-1.536 1.59m-9.045 8.326c3.368 1.823 6.664 2.983 9.268 3.383 2.301.354 3.955.151 4.415-.698.192-.356.15-.867-.085-1.482-.268-.685-.762-1.455-1.448-2.267-3.532.941-7.41.588-10.877-1.288a14.78 14.78 0 0 1-7.026-8.403c-1.056-.13-1.968-.127-2.69.027-.645.134-1.092.38-1.287.74-.46.849.271 2.343 1.829 4.078 1.763 1.963 4.536 4.088 7.9 5.91M8.66 51.11c-1.555-1.733-2.29-3.229-1.83-4.078q.022-.039.036-.075l3.368-6.221c.414.857 1.046 1.762 1.867 2.681 1.896 2.115 4.85 4.385 8.407 6.31 3.557 1.926 7.074 3.154 9.88 3.589 1.217.19 2.32.223 3.266.097l-3.368 6.222a1 1 0 0 0-.047.078c-.46.849-2.11 1.054-4.414.698-2.608-.402-5.904-1.562-9.269-3.384-3.36-1.828-6.134-3.954-7.896-5.917" clip-rule="evenodd"/></svg>