<svg xmlns="http://www.w3.org/2000/svg" width="79" height="56" fill="none" viewBox="0 0 79 56"><path fill="#3bb758" fill-opacity=".08" d="m34.42 3.963 6.657 2.807c4.111-5.551 13.4-7.535 20.757-4.433 7.356 3.102 9.986 10.11 5.875 15.661l6.657 2.808c3.662 1.543 4.984 5.067 2.938 7.83L54.983 58.778c-2.046 2.763-6.717 3.76-10.378 2.217L4.658 44.152c-3.662-1.544-4.984-5.068-2.938-7.83L24.042 6.18c2.046-2.763 6.716-3.76 10.378-2.217m19.19 21.276c-1.023 1.381-.362 3.143 1.47 3.915 1.83.772 4.165.273 5.188-1.108l3.72-5.024-6.657-2.807zM58.113 7.36c-3.661-1.544-8.332-.547-10.378 2.216l13.316 5.614c2.046-2.763.724-6.286-2.938-7.83m-24.476 9.456c-1.023 1.382-.362 3.144 1.469 3.916s4.166.273 5.189-1.108l3.72-5.024-6.658-2.807z"/></svg>