<svg xmlns="http://www.w3.org/2000/svg" width="24" height="23" fill="none" viewBox="0 0 24 23"><path fill="#de5781" fill-rule="evenodd" d="M4.516 20.185c-1.372 0-2.62-.201-3.526-.525a4 4 0 0 1-.99-.498v2.402l.001.028c0 .327.46.655 1.204.92.843.302 2.013.488 3.31.488 1.3.001 2.47-.185 3.312-.486.744-.266 1.204-.593 1.204-.92l.002-.032v-2.4a4 4 0 0 1-.991.497c-.907.325-2.155.526-3.526.526M14.32 4.882h2.987l2.066-3.58a.37.37 0 0 0-.118-.495l-1.05-.686a.73.73 0 0 0-.35-.12.7.7 0 0 0-.362.08L15.96.86a.32.32 0 0 1-.289 0L14.138.082A.7.7 0 0 0 13.775 0a.7.7 0 0 0-.35.12l-1.05.686a.37.37 0 0 0-.117.494zm-.672 2.463a194 194 0 0 0 4.324.003.94.94 0 0 0 .332-1.548.94.94 0 0 0-.667-.279h-3.65a.94.94 0 0 0-.943.944c0 .26.107.495.277.666a1 1 0 0 0 .327.214m-4.471 6.42a2.6 2.6 0 0 0-.382-.264l.033-.05q.105-.157.224-.315c1.392-1.545 2.786-3.163 4.21-4.67h.002l.42-.445q.147.029.302.028h3.65q.15.001.294-.028.252.268.508.537l4.135 4.587a6.05 6.05 0 0 1 1.13 2.537q.267 1.4-.075 3.052a7.2 7.2 0 0 1-1.075 2.141 8.3 8.3 0 0 1-1.807 1.778q-.235.172-.49.255-.256.083-.547.082l-4.311-.008v-.002h-3.484q-.293 0-.546-.08-.253-.084-.487-.255l-.019-.013a9 9 0 0 1-1.194-1.05l-.001-.017v-3.381l.001-.048-.001-.03V14.73l.001-.05c.002-.337-.173-.645-.491-.914m6.499 1.997c.522.246 1.044.494 1.232.812a1 1 0 0 1 .14.497c0 .187-.055.373-.151.537a1.18 1.18 0 0 1-.99.57l-.052-.003-.042-.003h-.012c-.384-.022-.667-.131-.857-.325l-.014-.014q-.3-.323-.326-.983a.317.317 0 0 0-.33-.306.32.32 0 0 0-.309.332c.026.602.19 1.07.503 1.4l.018.02q.376.387 1.007.484v.756a.32.32 0 1 0 .64 0v-.74a1.81 1.81 0 0 0 1.31-.864c.156-.26.244-.558.243-.867a1.64 1.64 0 0 0-.227-.817c-.287-.49-.898-.779-1.509-1.067-.522-.246-1.044-.494-1.231-.812a1 1 0 0 1-.14-.497c0-.187.054-.373.15-.537a1.17 1.17 0 0 1 .99-.57l.05.002.044.002h.013q.573.035.856.325.313.323.34.997a.32.32 0 1 0 .637-.026c-.026-.613-.195-1.086-.52-1.417q-.376-.386-1.007-.488v-.755a.32.32 0 1 0-.64 0v.739a1.8 1.8 0 0 0-1.31.862 1.63 1.63 0 0 0-.015 1.685c.288.493.899.783 1.509 1.07m-11.161-1.22c1.212 0 2.31-.49 3.104-1.284a4.38 4.38 0 0 0 1.285-3.105c0-1.212-.491-2.31-1.285-3.103a4.38 4.38 0 0 0-3.104-1.285c-1.213 0-2.31.491-3.104 1.285a4.38 4.38 0 0 0-1.285 3.103c0 1.212.492 2.31 1.285 3.105a4.38 4.38 0 0 0 3.104 1.285m1.353-2.396a1.52 1.52 0 0 1-1.033.71v.532a.32.32 0 0 1-.641 0v-.547a1.4 1.4 0 0 1-.781-.395q-.403-.412-.433-1.172a.32.32 0 1 1 .639-.025q.02.51.252.75.205.21.632.238h.012q.021 0 .042.003h.032a.85.85 0 0 0 .424-.117.9.9 0 0 0 .306-.304.8.8 0 0 0 .112-.393.7.7 0 0 0-.102-.363c-.137-.237-.543-.428-.95-.62-.496-.234-.99-.468-1.23-.876a1.36 1.36 0 0 1-.188-.68v-.003c0-.258.073-.507.201-.723a1.5 1.5 0 0 1 1.033-.71v-.53a.32.32 0 1 1 .642 0v.546q.484.09.78.396c.27.276.41.666.433 1.172a.317.317 0 0 1-.306.33.317.317 0 0 1-.332-.305q-.02-.51-.252-.75-.208-.211-.633-.238h-.011l-.042-.003H4.44a.87.87 0 0 0-.73.421.77.77 0 0 0-.112.395q-.002.18.102.361c.137.235.544.428.952.62.495.234.99.468 1.229.875.129.221.189.454.189.683.001.256-.072.505-.202.722M4.516 16.09c1.299 0 2.469-.187 3.31-.488.743-.266 1.204-.593 1.204-.92 0-.138-.095-.283-.265-.429-.19-.16-.462-.31-.798-.442a5 5 0 0 1-3.451 1.371c-1.336 0-2.55-.52-3.452-1.371-.336.131-.608.28-.798.442-.17.144-.265.29-.265.428 0 .328.46.655 1.204.921.843.301 2.013.488 3.31.488m-3.31 2.967C.461 18.79 0 18.464 0 18.136v-2.428c.262.19.596.358.99.5.907.324 2.154.524 3.526.524s2.618-.202 3.525-.525a4 4 0 0 0 .99-.498v2.399l-.001.03c0 .328-.46.656-1.204.922-.843.3-2.013.487-3.31.487-1.298-.003-2.468-.19-3.31-.49" clip-rule="evenodd"/></svg>