<svg xmlns="http://www.w3.org/2000/svg" width="119" height="70" fill="none" viewBox="0 0 119 70"><path fill="#f3faeb" d="m85.634 10.857-13.76 2.81-3.405-7.46C66.596 2.101 60.111-.244 54.056.992l-66.048 13.49c-6.054 1.236-9.476 5.605-7.603 9.709l15.32 33.576c1.874 4.104 8.36 6.45 14.414 5.213 2.826 6.193 12.482 9.686 21.619 7.82s14.23-8.371 11.405-14.564l33.024-6.745c2.826 6.193 12.482 9.686 21.62 7.82 9.136-1.866 14.23-8.372 11.404-14.564l5.504-1.125c3.027-.618 4.738-2.803 3.802-4.854l-5.669-12.424c-.732-1.604-2.218-3.013-4.245-4.027L90.718 11.45c-1.471-.719-3.378-.941-5.084-.593M28.354 63.34c-3.028.618-6.271-.555-7.207-2.607-.937-2.052.774-4.236 3.801-4.855 3.028-.618 6.27.555 7.207 2.607.936 2.052-.775 4.236-3.802 4.855m59.833-46.887 15.044 7.124-24.548 5.013-4.256-9.326zM94.4 49.85c-3.027.619-6.27-.554-7.206-2.606s.774-4.237 3.802-4.855 6.27.555 7.206 2.607-.774 4.236-3.802 4.854"/></svg>