<svg xmlns="http://www.w3.org/2000/svg" width="17" height="17" fill="none" viewBox="0 0 17 17"><path fill="#396aef" d="M3.215 12.374v4.102a.4.4 0 0 1-.401.399H1.206a.403.403 0 0 1-.401-.402v-3.854a.4.4 0 0 1 .386-.399 21 21 0 0 0 1.687-.141.297.297 0 0 1 .337.295m4.016-.874v4.973c0 .22-.18.402-.402.402H5.222a.403.403 0 0 1-.402-.402v-4.398c0-.186.132-.347.314-.39a20 20 0 0 0 1.703-.47.3.3 0 0 1 .395.284zm4.019-1.788v6.76c0 .222-.18.402-.401.402H9.242a.403.403 0 0 1-.402-.401V10.76c0-.194.115-.37.291-.453a19 19 0 0 0 1.637-.873.32.32 0 0 1 .482.278m4.02-3.279v10.04c0 .222-.18.402-.402.402h-1.607a.403.403 0 0 1-.402-.401v-8.21c0-.18.084-.35.222-.465a18 18 0 0 0 1.668-1.57.3.3 0 0 1 .522.203zm1.595-3.206L16.219.315a.404.404 0 0 0-.523-.293L12.87.987a.403.403 0 0 0-.067.73l.807.454C13.084 3.04 9.325 8.668.398 8.832a.4.4 0 0 0-.398.4v1.407c0 .224.186.407.41.404 10.22-.173 14.54-6.802 15.128-7.789l.74.415a.402.402 0 0 0 .587-.44z"/><path fill="#396aef" d="M3.616 0a3.616 3.616 0 1 0 0 7.232 3.616 3.616 0 0 0 0-7.232m.532 5.155c-.041.021-.087.031-.13.047v.222a.402.402 0 0 1-.804 0v-.198a1.7 1.7 0 0 1-.566-.287.403.403 0 0 1-.073-.563.403.403 0 0 1 .564-.073c.323.25.566.175.655.132.1-.05.144-.122.144-.148 0-.082-.077-.137-.345-.245-.052-.022-.103-.04-.145-.06l-.094-.04c-.258-.102-.862-.343-.862-.995 0-.352.233-.693.593-.87q.064-.03.13-.052v-.217a.402.402 0 0 1 .804 0v.194c.195.056.387.153.566.292a.403.403 0 0 1 .073.563.403.403 0 0 1-.564.073c-.324-.25-.566-.175-.655-.132-.1.05-.144.123-.144.149 0 .09.125.157.356.249q.076.03.134.056.049.022.108.045c.276.11.849.34.849.99 0 .351-.233.692-.593.87z"/></svg>