<svg xmlns="http://www.w3.org/2000/svg" width="141" height="110" fill="none" viewBox="0 0 141 110"><rect width="140" height="109" x=".5" y=".5" fill="#f3faeb" fill-opacity=".5" rx="4.5"/><rect width="140" height="109" x=".5" y=".5" stroke="#e6f2d5" rx="4.5"/><path fill="#669934" fill-opacity=".7" fill-rule="evenodd" d="m81.99 32.082-8.56 7.336a1.46 1.46 0 0 1-1.572.202l-10.112-4.813-21.122 16.095c-.61.463-1.497.37-1.984-.211a1.3 1.3 0 0 1 .222-1.886l21.83-16.63a1.46 1.46 0 0 1 1.509-.153l10.058 4.789 8.23-7.055-1.794-.426c-.754-.181-1.216-.913-1.026-1.628.187-.721.952-1.158 1.71-.976l4.367 1.037c.27.063.514.204.704.406.233.248.36.567.36.896v4.158c0 .742-.631 1.343-1.41 1.343s-1.41-.601-1.41-1.343zm5.22 26.412c10.891 0 19.738 8.424 19.738 18.794s-8.847 18.794-19.737 18.794-19.737-8.424-19.737-18.794S76.32 58.494 87.21 58.494M73.114 71.247v10.74c0 .49.275.936.726 1.174l12.656 6.696q.015.006.032.016a1.47 1.47 0 0 0 1.399-.016l12.656-6.696c.451-.238.726-.684.726-1.174v-10.74c0-.456-.243-.88-.642-1.124a1.3 1.3 0 0 0-.197-.104l-12.688-5.37a1.5 1.5 0 0 0-1.142 0l-12.687 5.37q-.104.044-.197.104a1.32 1.32 0 0 0-.642 1.124m4.881 0 9.217-3.9 2.618 1.108-9.466 3.792zm.758 3.259v5.695c0 .742.63 1.343 1.41 1.343s1.41-.601 1.41-1.343v-4.504L85.8 77.49v8.927l-9.869-5.219v-7.886zm17.675-3.259-9.216 3.9-3.313-1.4 9.466-3.795zm2.062 2.064v7.887l-9.869 5.219v-8.928zM38.694 20.906c5.9 0 10.69 4.561 10.69 10.183 0 5.618-4.79 10.18-10.69 10.18C32.79 41.268 28 36.706 28 31.088c0-5.621 4.79-10.183 10.694-10.183M36.49 32.028a1.6 1.6 0 0 0-.405-.054c-.776 0-1.41.601-1.41 1.343 0 1.413 1.057 2.698 2.608 3.195v.527c0 .741.63 1.342 1.41 1.342.775 0 1.41-.6 1.41-1.342v-.527c1.547-.497 2.604-1.782 2.604-3.195 0-1.155-.709-2.229-1.815-2.85.127.037.268.058.405.058.78 0 1.41-.605 1.41-1.343 0-1.413-1.057-2.698-2.605-3.195v-.53c0-.739-.634-1.343-1.41-1.343-.778 0-1.41.604-1.41 1.343v.53c-1.55.497-2.607 1.782-2.607 3.195 0 1.155.708 2.225 1.815 2.846m3.95-1.782a4.5 4.5 0 0 0-1.747-.339c-.603 0-1.199-.248-1.199-.725 0-.48.596-.725 1.199-.725.599 0 1.194.245 1.194.725 0 .433.215.819.554 1.064m-1.747 2.346c.599 0 1.194.248 1.194.725 0 .476-.595.725-1.194.725-.603 0-1.199-.249-1.199-.725 0-.433-.215-.822-.553-1.068a4.6 4.6 0 0 0 1.752.343m29.21 36.474a1.3 1.3 0 0 1-.098-.504V45.694c0-.738.63-1.342 1.41-1.342h6.548c.779 0 1.41.604 1.41 1.342v13.871c-4.082 2.104-7.36 5.447-9.27 9.501m10.813-10.223V38.42c0-.739.634-1.343 1.41-1.343h6.552c.779 0 1.41.604 1.41 1.343v18.75q-.44-.016-.878-.017c-3.02 0-5.893.604-8.494 1.691M66.255 42.58v25.982c0 .742-.63 1.342-1.41 1.342h-6.548c-.78 0-1.41-.6-1.41-1.342V42.58c0-.742.63-1.343 1.41-1.343h6.548c.78 0 1.41.6 1.41 1.343m-10.912 8.313v17.669c0 .742-.634 1.342-1.41 1.342h-6.552c-.779 0-1.41-.6-1.41-1.342v-17.67c0-.741.631-1.342 1.41-1.342h6.552c.776 0 1.41.6 1.41 1.343" clip-rule="evenodd"/><rect width="54.402" height="54.402" x="43.299" y="27.299" fill="#fff" fill-opacity=".4" rx="27.201"/><rect width="54.402" height="54.402" x="43.299" y="27.299" stroke="#f9cfaf" stroke-width=".598" rx="27.201"/><path fill="#f08047" d="M84.927 53.558a1.196 1.196 0 0 1-.014 2.071L64.209 67.4a1.196 1.196 0 0 1-1.786-1.046l.158-23.816a1.196 1.196 0 0 1 1.8-1.023z"/></svg>