<svg xmlns="http://www.w3.org/2000/svg" width="20" height="20" fill="none" viewBox="0 0 20 20"><path stroke="#626262" stroke-linejoin="round" stroke-width="1.5" d="m13.689 3.838.825-.825a1.75 1.75 0 0 1 2.475 2.475l-.825.825m-2.475-2.475-5.55 5.549a3.3 3.3 0 0 0-.868 1.533l-.603 2.413 2.413-.603a3.3 3.3 0 0 0 1.533-.868l5.55-5.55m-2.475-2.474 2.475 2.475"/><path stroke="#626262" stroke-linecap="round" stroke-linejoin="round" stroke-width="1.5" d="M15.833 11.25c0 2.739 0 4.109-.756 5.03a3.3 3.3 0 0 1-.462.463c-.922.756-2.292.756-5.032.756h-.416c-3.143 0-4.714 0-5.69-.976-.977-.976-.977-2.548-.977-5.69v-.417c0-2.74 0-4.11.757-5.031q.208-.255.462-.462c.922-.757 2.291-.757 5.031-.757"/></svg>