<svg xmlns="http://www.w3.org/2000/svg" width="62" height="52" fill="none" viewBox="0 0 62 52"><path fill="#7f7f7f" d="M8.82 24.57H0v7.31h8.82zM8.82 0h-.837A7.984 7.984 0 0 0 0 7.983V9.3h8.82zm0 13.281H0v7.312h8.82zm0 22.575H0v1.316a7.984 7.984 0 0 0 7.983 7.984h.838zm49.586-4.886c-4.616-4.616-12.098-4.616-16.714 0s-4.615 12.097 0 16.713 12.1 4.616 16.714 0c4.615-4.616 4.615-12.098 0-16.713m-4.311 10.345h-2.057v2.057a1.989 1.989 0 0 1-3.978 0v-2.057h-2.057a1.989 1.989 0 0 1 0-3.977h2.057V35.28a1.989 1.989 0 0 1 3.977 0v2.057h2.058a1.989 1.989 0 0 1 0 3.977M47.06 9.3h8.821V7.983A7.984 7.984 0 0 0 47.898 0h-.84zm8.82 3.981h-8.821v7.312h8.82z"/><path fill="#7f7f7f" d="M38.883 28.154a15.8 15.8 0 0 1 4.198-2.996V0H12.8v45.153h22.575c-2.25-5.679-1.085-12.412 3.507-16.999m-5.851-3.372-4.937 3.49c-1.787 1.263-4.257-.016-4.257-2.206V19.09c0-2.19 2.47-3.47 4.257-2.206l4.937 3.49a2.7 2.7 0 0 1 0 4.41"/></svg>