<svg xmlns="http://www.w3.org/2000/svg" width="70" height="70" fill="none" viewBox="0 0 70 70"><path fill="#7f7f7f" d="M42.22 17.879a6.646 6.646 0 0 1 6.637 6.653 6.642 6.642 0 1 1-13.286-.016 6.64 6.64 0 0 1 6.65-6.637m-.088 38.187a13.96 13.96 0 0 0 4.082 9.852 13.94 13.94 0 0 0 9.855 4.08c3.697 0 7.24-1.469 9.852-4.083a13.94 13.94 0 0 0 0-19.706 13.94 13.94 0 0 0-9.855-4.08c-3.697 0-7.24 1.468-9.852 4.082a13.92 13.92 0 0 0-4.08 9.855zm16.532-6v3.402h3.407a2.597 2.597 0 1 1 0 5.196h-3.407v3.407a2.597 2.597 0 0 1-2.598 2.597 2.597 2.597 0 0 1-2.598-2.597v-3.407h-3.401a2.598 2.598 0 0 1 0-5.195h3.401v-3.402a2.596 2.596 0 0 1 2.598-2.598 2.597 2.597 0 0 1 2.598 2.598"/><path fill="#7f7f7f" d="M1.23 47.945c1.264 7.153 7.608 13.49 14.75 14.752h.027c4.933.82 10.15 1.22 15.958 1.23 2.8 0 5.469-.098 8.028-.29l-.002.003a17.77 17.77 0 0 1 12.942-25.066l-.22-.31c-2.644-3.727-7.636-3.841-10.016-.125l-.82 1.28c-1.592 2.45-4.974 2.444-6.623-.033-3.035-4.545-6.026-9.098-8.84-13.615-2.324-3.74-7.044-3.64-9.658.148-3.661 5.332-7.435 10.636-11.096 15.86a98 98 0 0 1-.465-9.812c0-5.513.383-10.451 1.154-15.093.429-2.41 1.75-4.824 3.724-6.798 1.974-1.977 4.388-3.298 6.797-3.724 4.649-.772 9.58-1.149 15.083-1.157 5.505-.008 10.446.383 15.092 1.157 2.409.426 4.823 1.75 6.797 3.724 1.975 1.974 3.298 4.388 3.725 6.797.77 4.649 1.148 9.582 1.156 15.089 0 2.259-.07 4.421-.197 6.508h.003a17.6 17.6 0 0 1 5.105 1.512c.189-2.56.285-5.223.29-8.023-.005-5.802-.41-11.02-1.23-15.952v-.027c-1.27-7.143-7.607-13.487-14.755-14.75h-.027C42.984.41 37.767.007 31.959 0c-5.808-.005-11.025.41-15.952 1.23h-.027C8.837 2.498 2.493 8.838 1.23 15.986v.027C.41 20.94.007 26.158 0 31.969c-.005 5.81.41 11.028 1.23 15.952z"/></svg>