<svg xmlns="http://www.w3.org/2000/svg" width="18" height="18" fill="none" viewBox="0 0 18 18"><path stroke="#0b0b0b" stroke-linecap="round" stroke-linejoin="round" d="M12.75 9.923s-.682-.346-1.364-.346C10.364 9.577 9 10.961 9 13.038s1.867 3.462 3.75 3.462 3.75-1.385 3.75-3.462-1.364-3.461-2.386-3.461c-.682 0-1.364.346-1.364.346m0 0c0-1.038.682-2.423 2.046-2.423M7.991 3.75c.672 0 1.217-.504 1.217-1.125S8.663 1.5 7.991 1.5H3.934c-.672 0-1.217.504-1.217 1.125S3.262 3.75 3.934 3.75m4.443-.058c.717 1.325 1.305 2.52 1.665 3.808q.044.157.083.317M7.821 16.5H4.746c-2.686 0-3.246-.518-3.246-3v-3.167c0-2.55.823-4.419 2.029-6.647"/></svg>