<svg xmlns="http://www.w3.org/2000/svg" width="49" height="43" fill="none" viewBox="0 0 49 43"><rect width="49" height="42.764" fill="#e6f2d5" rx="7.127"/><path fill="#e6f2d5" stroke="#669934" stroke-linejoin="round" stroke-width="1.2" d="M13.438 19.688h8.125c.519.518 1.354 1.24 1.354 2.046v1.775a.564.564 0 0 1-.478.572l-1.688.21h-6.5l-1.689-.21a.564.564 0 0 1-.478-.572v-1.775c0-.806.836-1.528 1.354-2.047Z"/><path stroke="#56862a" stroke-linecap="round" stroke-linejoin="round" stroke-width="1.2" d="m12.354 21.042 1.083.542m9.209-.271-1.084.27m-6.228 2.438.133-.332c.198-.495.297-.743.503-.882.207-.14.473-.14 1.006-.14h1.05c.532 0 .799 0 1.005.14s.305.387.503.882l.133.332m-7.583-.271v1.561c0 .205.13.393.337.485.134.06.262.12.416.12h.931c.155 0 .283-.06.417-.12a.54.54 0 0 0 .336-.485v-1.02m5.958.001v1.02c0 .204.13.392.336.483.134.06.262.122.417.122h.93c.155 0 .283-.062.417-.122a.54.54 0 0 0 .337-.484V23.75m-1.082-4.604.542-.271m-9.209.271-.542-.271"/><path fill="#e6f2d5" d="m13.438 19.688.589-1.769c.238-.715.357-1.073.641-1.277s.66-.204 1.415-.204h2.835c.753 0 1.13 0 1.414.204s.403.562.641 1.277l.59 1.768"/><path stroke="#56862a" stroke-linejoin="round" stroke-width="1.2" d="m13.438 19.688.589-1.769c.238-.715.357-1.073.641-1.277s.66-.204 1.415-.204h2.835c.753 0 1.13 0 1.414.204s.403.562.641 1.277l.59 1.768m-2.168-3.25c-.13-.653-.195-.98-.35-1.167s-.36-.187-.772-.187h-1.547c-.412 0-.618 0-.772.187s-.22.514-.35 1.167"/><path fill="#56862a" d="M40.064 17.125a.916.916 0 0 0 .915-.916v-2.747A3.66 3.66 0 0 0 37.317 9.8H11.678a3.663 3.663 0 0 0-3.662 3.662V29.03a3.663 3.663 0 0 0 3.662 3.662h25.639a3.663 3.663 0 0 0 3.662-3.662v-8.241a.916.916 0 1 0-1.831 0v8.24a1.83 1.83 0 0 1-1.831 1.832H11.678a1.83 1.83 0 0 1-1.831-1.831V13.462a1.83 1.83 0 0 1 1.831-1.83h25.639a1.83 1.83 0 0 1 1.831 1.83v2.747a.916.916 0 0 0 .916.916"/><path fill="#56862a" d="M36.401 15.294H24.498a.916.916 0 1 0 0 1.831H36.4a.916.916 0 1 0 0-1.831m-11.902 5.494h8.24a.916.916 0 1 0 0-1.831h-8.24a.916.916 0 1 0 0 1.831m.914 3.662H36.4a.916.916 0 1 0 0-1.832H25.412a.915.915 0 1 0 0 1.832"/></svg>