<svg xmlns="http://www.w3.org/2000/svg" width="20" height="20" fill="none" viewBox="0 0 20 20"><path stroke="#626262" stroke-linecap="round" stroke-linejoin="round" stroke-width="1.5" d="M15.833 10.837V8.883c0-.681 0-1.022-.127-1.329-.126-.306-.367-.547-.849-1.029L10.91 2.576c-.416-.416-.624-.624-.881-.747a2 2 0 0 0-.165-.068c-.269-.095-.563-.095-1.15-.095-2.705 0-4.057 0-4.973.739q-.278.224-.503.503C2.5 3.824 2.5 5.177 2.5 7.882v3.788c0 3.144 0 4.716.976 5.693.786.786 1.958.94 4.024.97M10 2.083V2.5c0 2.358 0 3.537.732 4.27s1.911.732 4.268.732h.417"/><path stroke="#626262" stroke-linejoin="round" stroke-width="1.5" d="M13.335 18.334c2.3 0 4.166-2.5 4.166-2.5s-1.865-2.5-4.166-2.5-4.167 2.5-4.167 2.5 1.866 2.5 4.167 2.5Z"/><path stroke="#626262" stroke-linecap="round" stroke-linejoin="round" stroke-width="2" d="M13.324 15.834h.008"/></svg>