<svg xmlns="http://www.w3.org/2000/svg" width="206" height="206" fill="none" viewBox="0 0 206 206"><ellipse cx="102.709" cy="199.256" fill="#7c7b91" opacity=".1" rx="102.709" ry="6.163"/><path fill="#7c7b91" fill-rule="evenodd" d="M18.483 49.298c0-13.614 11.037-24.65 24.65-24.65 13.614 0 24.65 11.036 24.65 24.65s-11.036 24.65-24.65 24.65-24.65-11.036-24.65-24.65m24.65-28.759c-15.882 0-28.758 12.876-28.758 28.759 0 14.488 10.713 26.473 24.65 28.467v61.916c0 9.076 7.358 16.434 16.434 16.434h94.492c9.076 0 16.433-7.358 16.433-16.434v-18.487h2.054a8.217 8.217 0 0 0 8.217-8.217v-10.271a8.217 8.217 0 0 0-8.217-8.216h-2.054V76.002c0-9.076-7.357-16.433-16.433-16.433h-4.109V55.46c0-7.941-6.437-14.38-14.379-14.38H70.701c-3.535-11.878-14.54-20.54-27.567-20.54m28.468 24.65q.29 2.015.291 4.109c0 3.618-.668 7.08-1.888 10.27h71.73V55.46c0-5.672-4.598-10.27-10.271-10.27zm-3.556 18.488c-4.973 8.596-14.267 14.38-24.912 14.38v61.624c0 6.807 5.519 12.326 12.326 12.326h94.492c6.807 0 12.325-5.519 12.325-12.326v-18.487h-28.759a8.216 8.216 0 0 1-8.216-8.217v-10.271a8.216 8.216 0 0 1 8.216-8.216h28.759V76.002c0-6.807-5.518-12.325-12.325-12.325zm8.494 30.813c-1.793 0-3.324.342-4.638.979l-.01.005c-1.316.63-2.313 1.49-3.044 2.578-.69 1.041-1.063 2.283-1.063 3.805 0 1.833.541 3.107 1.483 4.041 1.102 1.071 2.683 1.952 4.862 2.56h.002l3.343.934.003.001c1.135.314 2.166.683 3.08 1.117 1.01.464 1.902 1.096 2.582 1.943.784.965 1.118 2.125 1.132 3.326v.045c-.014 1.306-.385 2.529-1.154 3.588l-.009.012c-.742 1.006-1.738 1.747-2.901 2.254l-.012.005c-1.178.506-2.48.729-3.857.729-.898 0-2.055-.307-2.895-.56l-.192-.059-.314 1.065c1.01.254 2.152.39 3.444.39 2.133 0 3.82-.358 5.135-.984 1.354-.651 2.313-1.508 2.966-2.554.656-1.062 1.013-2.326 1.013-3.861 0-1.147-.199-2.046-.527-2.752a5.9 5.9 0 0 0-1.452-1.963l-.01-.008a9.1 9.1 0 0 0-2.266-1.477l-.007-.003a16 16 0 0 0-2.84-1.008l-.035-.01-2.748-.745a19 19 0 0 1-2.009-.646 10 10 0 0 1-2.042-1.061l-.024-.017a6 6 0 0 1-1.755-1.888l-.015-.026c-.483-.851-.685-1.791-.685-2.747v-.024c.014-1.176.338-2.285.999-3.263.665-.984 1.59-1.704 2.673-2.2 1.126-.515 2.386-.732 3.715-.732.934 0 1.833.11 2.675.353l.283-.802c-.858-.222-1.817-.34-2.886-.34m-6.426-2.72a13.7 13.7 0 0 1 3.843-1.191 2 2 0 0 1-.01-.198v-2.054a2.054 2.054 0 0 1 4.109 0v2.054l-.001.065c1.767.155 3.41.59 4.899 1.34a2.054 2.054 0 0 1 1.014 2.518l-1.71 4.851a2.054 2.054 0 0 1-3.19.945c-.541-.416-1.348-.712-2.6-.712-.894 0-1.54.146-2.006.36-.508.232-.8.5-.978.763-.18.268-.288.58-.295 1 .002.356.073.565.142.692.129.213.305.408.554.586.346.233.741.44 1.194.614q.783.301 1.572.505l.024.007 2.743.744q1.843.466 3.55 1.263a13.2 13.2 0 0 1 3.273 2.137 10 10 0 0 1 2.453 3.305c.63 1.353.91 2.867.91 4.485 0 2.208-.524 4.24-1.63 6.026l-.003.006c-1.11 1.781-2.698 3.137-4.677 4.087l-.006.003c-1.558.743-3.314 1.169-5.233 1.321v2.119a2.054 2.054 0 0 1-4.108 0v-2.055q0-.071.005-.142c-1.577-.193-3.046-.585-4.388-1.197a2.055 2.055 0 0 1-1.118-2.45l1.477-5.008a2.054 2.054 0 0 1 2.74-1.324c.394.159 1.168.443 1.966.683.88.265 1.496.385 1.71.385.938 0 1.666-.151 2.23-.392.594-.26.975-.577 1.229-.919.222-.308.356-.679.365-1.188-.009-.445-.121-.65-.213-.763l-.012-.014v-.001c-.198-.247-.533-.526-1.105-.787l-.029-.014c-.654-.311-1.457-.606-2.423-.873l-.006-.001-3.348-.936c-2.666-.743-4.916-1.909-6.632-3.58l-.01-.011c-1.853-1.832-2.709-4.227-2.709-6.967 0-2.24.565-4.294 1.752-6.081l.005-.008c1.165-1.737 2.743-3.07 4.68-3.998m99.832 63.595a5.41 5.41 0 0 0 5.412 5.412h11.133a5.412 5.412 0 1 0 0-10.824h-11.133a5.41 5.41 0 0 0-5.412 5.412m5.412 1.304a1.304 1.304 0 0 1 0-2.608h11.133a1.304 1.304 0 0 1 0 2.608zm-17.189 21.005a5.412 5.412 0 1 0 10.823 0v-11.133a5.412 5.412 0 1 0-10.823 0zm5.411 1.304a1.304 1.304 0 0 1-1.303-1.304v-11.133a1.304 1.304 0 0 1 2.607 0v11.133c0 .72-.584 1.304-1.304 1.304M37.999 35.945a5.135 5.135 0 0 1 10.27 0V48.27a5.135 5.135 0 0 1-10.27 0zm5.134-1.027c-.567 0-1.027.46-1.027 1.027V48.27a1.027 1.027 0 0 0 2.055 0V35.945c0-.567-.46-1.027-1.028-1.027m0 32.867a5.135 5.135 0 1 1 0-10.27 5.135 5.135 0 0 1 0 10.27m-1.027-5.135a1.027 1.027 0 1 0 2.055 0 1.027 1.027 0 0 0-2.055 0" clip-rule="evenodd"/></svg>