<svg xmlns="http://www.w3.org/2000/svg" width="25" height="25" fill="none" viewBox="0 0 25 25"><path stroke="#7f7f7f" stroke-linecap="round" stroke-linejoin="round" stroke-width="1.5" d="M14.5 3.5h-9a2 2 0 1 0 0 4h13c0-.93 0-1.395-.102-1.776a3 3 0 0 0-2.122-2.122C15.895 3.5 15.43 3.5 14.5 3.5"/><path stroke="#7f7f7f" stroke-linecap="round" stroke-linejoin="round" stroke-width="1.5" d="M3.5 5.5v10c0 2.828 0 4.243.879 5.121.878.879 2.293.879 5.121.879h6c2.828 0 4.243 0 5.121-.879.879-.878.879-2.293.879-5.121v-2c0-2.828 0-4.243-.879-5.121C19.743 7.5 18.328 7.5 15.5 7.5h-8"/><path stroke="#7f7f7f" stroke-linecap="round" stroke-linejoin="round" stroke-width="1.5" d="M21.5 12.5h-2c-.465 0-.698 0-.888.051a1.5 1.5 0 0 0-1.06 1.06c-.052.191-.052.424-.052.889s0 .697.051.888a1.5 1.5 0 0 0 1.06 1.06c.191.052.424.052.889.052h2"/></svg>