<svg xmlns="http://www.w3.org/2000/svg" width="24" height="23" fill="none" viewBox="0 0 24 23"><path fill="#ac2ef4" d="M16.228 2.613c-.183.041-.443.147-.443.417 0 .208.167.313.443.396zM17.193 4.538c0-.185-.211-.278-.486-.358v.797c.433-.058.486-.276.486-.439"/><path fill="#ac2ef4" d="M22.877 15.065c-.365-.701-1.237-1.15-2.196-.653l-.438.221c.06-.137.095-.287.095-.447v-1.073c0-.29-.114-.55-.296-.748.182-.198.296-.46.296-.749v-1.073c0-.29-.114-.55-.296-.749.182-.197.296-.459.296-.748V7.973a1.11 1.11 0 0 0-1.108-1.11h-.544a3.79 3.79 0 0 0 1.577-3.07A3.797 3.797 0 0 0 16.47 0a3.797 3.797 0 0 0-3.792 3.792c0 1.264.624 2.382 1.577 3.072h-.54a1.11 1.11 0 0 0-1.11 1.109v1.073c0 .19.054.368.14.525a1.1 1.1 0 0 0-.523-.137H6.707a1.11 1.11 0 0 0-1.109 1.109v1.073c0 .29.114.551.296.749-.182.198-.296.46-.296.75v.047c-.499.054-.99.17-1.462.347a1.07 1.07 0 0 0-1.058-.938H1.072c-.59 0-1.072.481-1.072 1.073v8.218c0 .591.481 1.073 1.072 1.073h2.006c.591 0 1.072-.482 1.072-1.073v-.377a4.85 4.85 0 0 1 3-.1l3.431 1.01a5.49 5.49 0 0 0 4.48-.63l7.128-4.517c.932-.488 1.05-1.489.688-2.183m-7.696-12c0-.559.41-.962 1.054-1.045v-.25c0-.132.102-.236.232-.236.132 0 .236.104.236.237v.24q.426.028.764.157c.122.044.19.14.19.273 0 .098-.048.19-.125.243a.27.27 0 0 1-.263.02 2.2 2.2 0 0 0-.566-.116v.958c.562.139 1.091.344 1.091 1.02 0 .45-.338.925-1.09 1v.252c0 .134-.1.232-.238.232a.224.224 0 0 1-.231-.232v-.252a3 3 0 0 1-.9-.222.3.3 0 0 1-.18-.216.29.29 0 0 1 .072-.261.29.29 0 0 1 .331-.062q.324.144.677.175v-.92c-.522-.144-1.054-.361-1.054-.995m4.436 10.048v1.073a.39.39 0 0 1-.387.388H15.16a1.96 1.96 0 0 0-.975-.26h-.833a.4.4 0 0 1-.024-.117l.002-.012v-1.07l-.002-.014a.387.387 0 0 1 .386-.376h5.515c.213 0 .387.174.387.388m-6.29-5.14c0-.214.174-.388.388-.388h5.515c.213 0 .387.174.387.388v1.073a.39.39 0 0 1-.387.388h-5.515a.39.39 0 0 1-.388-.388zm-7.008 2.57c0-.214.174-.388.388-.388h5.515c.21 0 .378.168.385.376l-.001.012v1.073l.001.012a.387.387 0 0 1-.385.376H6.707a.39.39 0 0 1-.388-.388zm-3.522 4.251a.72.72 0 1 1-1.442 0 .72.72 0 0 1 1.442 0m19.032 1.83-7.153 4.532a4.76 4.76 0 0 1-3.892.546l-3.432-1.008a5.5 5.5 0 0 0-3.202.03v-6.447a5.28 5.28 0 0 1 3.33-.289c1.979.63 2.594 1.047 3.798 1.047h2.908c.69 0 1.25.56 1.25 1.25 0 .689-.56 1.25-1.25 1.25H9.794a.36.36 0 0 0 0 .72h4.392a1.96 1.96 0 0 0 1.006-.276l5.817-2.924c.61-.317 1.043-.013 1.229.343.2.382.164.925-.41 1.226"/></svg>