<svg xmlns="http://www.w3.org/2000/svg" width="131" height="105" fill="none" viewBox="0 0 131 105"><path fill="#fff" fill-opacity=".15" d="M97.95 42.21c-.719-.192-1.828-.3-2.326.65-.382.73.01 1.405.829 2.207zm-.199 8.522c.342-.652-.23-1.366-1.047-2.154l-1.467 2.801c1.628.593 2.214-.073 2.514-.647"/><path fill="#fff" fill-opacity=".15" d="M98.37 98.198c.008-3.136-2.233-6.319-6.515-6.336l-1.948-.032c.465-.37.865-.835 1.158-1.394l1.976-3.772a4.37 4.37 0 0 0 .338-3.175 4.37 4.37 0 0 0 2.418-2.085l1.977-3.773a4.37 4.37 0 0 0 .337-3.175 4.37 4.37 0 0 0 2.419-2.085l1.976-3.772a4.405 4.405 0 0 0-1.855-5.94l-1.91-1c4.618-.669 8.869-3.45 11.196-7.891 3.849-7.348 1.002-16.46-6.345-20.31-7.348-3.85-16.46-1.002-20.31 6.345-2.326 4.44-2.194 9.52-.113 13.697l-1.898-.994a4.405 4.405 0 0 0-5.94 1.856l-1.976 3.772a4.34 4.34 0 0 0-.48 2.1 4.35 4.35 0 0 0-1.585-1.444L51.91 48.636a4.404 4.404 0 0 0-5.939 1.856l-1.976 3.772a4.37 4.37 0 0 0-.337 3.176 4.38 4.38 0 0 0-2.422 2.09l-.087.166a23.8 23.8 0 0 0-5.776-1.472c.735-1.976-.078-4.241-1.994-5.245l-7.047-3.692a4.26 4.26 0 0 0-5.744 1.794L5.456 79.965a4.26 4.26 0 0 0 1.794 5.744l7.048 3.692a4.26 4.26 0 0 0 5.743-1.795l.694-1.326c4.003.555 7.792 2.34 10.723 5.172l10.205 9.864a21.76 21.76 0 0 0 16.905 6.039l33.364-2.753c4.172.004 6.43-3.298 6.439-6.404m-4.95-56.343c1.027-1.962 3.212-2.623 5.624-1.731l.46-.878a.92.92 0 0 1 1.25-.404c.466.244.64.8.395 1.267l-.442.845c.96.586 1.764 1.244 2.395 1.958.348.378.409.845.165 1.31-.18.343-.52.58-.887.622-.36.04-.701-.107-.961-.413a8.8 8.8 0 0 0-1.775-1.447l-1.764 3.365c1.72 1.521 3.2 3.219 1.956 5.594-.83 1.583-2.89 2.626-5.674 1.504l-.465.886c-.247.472-.776.632-1.258.38a.89.89 0 0 1-.388-1.242l.464-.886a11.8 11.8 0 0 1-2.75-2.437c-.25-.3-.34-.709-.237-1.089.1-.37.367-.657.732-.788.448-.16.962-.002 1.279.395a8.4 8.4 0 0 0 2.055 1.86l1.695-3.235c-1.569-1.464-3.038-3.207-1.87-5.436m-2.912 43.482-1.977 3.772a1.54 1.54 0 0 1-2.077.649l-14.298-7.49a7.76 7.76 0 0 0-2.948-2.712l-2.928-1.534c.022-.153.06-.306.132-.452.008-.015.02-.027.028-.041l1.97-3.763c.009-.015.012-.032.02-.048a1.536 1.536 0 0 1 2.049-.612l19.38 10.153a1.54 1.54 0 0 1 .649 2.078M77.865 55.689a1.54 1.54 0 0 1 2.079-.65l19.38 10.154a1.54 1.54 0 0 1 .648 2.078l-1.976 3.772a1.54 1.54 0 0 1-2.078.65l-19.38-10.154a1.54 1.54 0 0 1-.65-2.078zm-29.36-3.87a1.54 1.54 0 0 1 2.078-.649l19.38 10.153a1.536 1.536 0 0 1 .663 2.031c-.008.015-.02.026-.027.04l-1.976 3.773c-.008.014-.01.03-.018.045a1.536 1.536 0 0 1-2.047.61l-.005-.002-19.37-10.148-.005-.003a1.54 1.54 0 0 1-.65-2.077zM28.3 60.276a2.87 2.87 0 0 1-3.861 1.206 2.86 2.86 0 0 1-1.206-3.861 2.85 2.85 0 0 1 3.86-1.207 2.86 2.86 0 0 1 1.207 3.862m63.516 41.471-33.482 2.758a18.9 18.9 0 0 1-14.684-5.246l-10.204-9.864c-3.072-2.968-6.915-4.974-11.309-5.79l11.87-22.657c4.542.337 8.913 2.179 12.232 5.115 5.797 5.858 7.19 8.455 11.424 10.673L67.88 82.09a4.965 4.965 0 0 1 2.09 6.694 4.964 4.964 0 0 1-6.693 2.091l-15.436-8.087a1.43 1.43 0 0 0-1.327 2.534l15.436 8.087a7.8 7.8 0 0 0 4.047.88l25.827.433c2.727.012 3.689 1.876 3.685 3.469-.004 1.712-1.124 3.553-3.695 3.556"/></svg>