<svg xmlns="http://www.w3.org/2000/svg" width="66.667" height="66.667" viewBox="0 0 50 50"><path d="M13.9 6.9C9 8.5 7.2 10 3.9 15.7 2 18.9.5 21.9.5 22.4s2.7 1.9 6 3.1c6.9 2.4 7.6 3.9 5.1 11.2-1.8 5.4-1.8 5.5 5.8 7.8 6.2 1.9 9 1.9 15.2 0 7.6-2.3 7.6-2.4 5.8-7.8-2.5-7.3-1.8-8.8 5.1-11.2 3.3-1.2 6-2.6 6-3.1-.1-2.3-7-12.6-9.4-13.8-5.3-2.7-7.6-2.7-10.1-.1-3 3.2-7 3.2-10 0-1.3-1.4-2.6-2.5-2.9-2.4-.3 0-1.8.4-3.2.8M25 13c1.6 0 4.1-1.1 5.7-2.4 2.1-1.8 3.3-2.1 5.1-1.5 1.9.7 2.2 1.6 2.2 6.2 0 3-.7 7.2-1.6 9.3-1.5 3.7-1.5 8.7.1 14 .5 1.7 0 2.4-2.7 3.5-4.2 1.8-13.4 1.8-17.6 0-2.7-1.1-3.2-1.8-2.7-3.5 1.6-5.3 1.6-10.3.1-14-.9-2.1-1.6-6.3-1.6-9.3 0-4.6.3-5.5 2.3-6.2 1.7-.6 2.9-.3 5 1.5 1.6 1.3 4.1 2.4 5.7 2.4M9.7 18.6c-.8.8-3.7-.8-3.7-2 0-.6.8-2.3 1.8-3.6l1.7-2.5.3 3.9c.2 2.1.1 4-.1 4.2M44 16.5c0 1.1-2 2.5-3.6 2.5-.2 0-.4-1.9-.4-4.3l.1-4.2 1.9 2.4c1.1 1.3 2 2.9 2 3.6m-33.2 6.8c.2 1.2-.2 1.4-2 .9-3.8-1.1-6.1-2.9-5.4-4 .9-1.5 7 1.1 7.4 3.1m34.7-1c-1.1.7-3 1.5-4.2 1.9-3.7 1-2.8-2 1-3.6s6.4-.2 3.2 1.7"/></svg>