<svg xmlns="http://www.w3.org/2000/svg" width="18" height="18" fill="none" viewBox="0 0 18 18"><path stroke="#0b0b0b" d="M15.269 10.018c-.892.891-2.57.857-5.145.857a3 3 0 0 1-2.999-3c0-2.572-.035-4.252.858-5.144.892-.892 1.286-.856 5.238-.856a.428.428 0 0 1 .304.73L11.49 4.64a1.323 1.323 0 1 0 1.87 1.87l2.034-2.034a.428.428 0 0 1 .73.304c0 3.952.037 4.346-.855 5.238Z"/><path stroke="#0b0b0b" stroke-linecap="round" d="m10.125 10.875-4.629 4.629a2.121 2.121 0 0 1-3-3l4.629-4.629"/><path stroke="#0b0b0b" stroke-linecap="round" stroke-linejoin="round" d="M4.132 13.875h-.007"/></svg>