<svg xmlns="http://www.w3.org/2000/svg" width="50" height="50" fill="none" viewBox="0 0 50 50"><path fill="#436724" d="M37.41 17.084c-.825.356-1.693.604-2.582.737.416-.071 1.027-.82 1.27-1.123a4.7 4.7 0 0 0 .831-1.539c0-.041.042-.1 0-.13a.14.14 0 0 0-.136 0c-.965.523-1.992.922-3.057 1.188a.21.21 0 0 1-.214-.054 3 3 0 0 0-.267-.279 5.6 5.6 0 0 0-1.46-.945 5.1 5.1 0 0 0-2.274-.374 5.5 5.5 0 0 0-2.161.594 5.6 5.6 0 0 0-1.71 1.45 5.5 5.5 0 0 0-1.038 2.08 5.7 5.7 0 0 0-.054 2.198c0 .125 0 .142-.107.125-4.232-.624-7.705-2.127-10.543-5.354-.124-.142-.19-.142-.29 0-1.235 1.878-.636 4.849.908 6.316q.31.295.647.565a5.3 5.3 0 0 1-2.03-.565c-.12-.077-.185-.035-.19.107a3.5 3.5 0 0 0 0 .594 5.4 5.4 0 0 0 3.324 4.302q.324.14.67.208c-.654.13-1.326.15-1.988.06-.143-.03-.196.047-.143.184.873 2.376 2.767 3.101 4.156 3.505.19.03.38.03.594.078l-.036.035c-.41.749-2.066 1.254-2.826 1.515-1.387.499-2.865.69-4.333.559-.232-.036-.285-.03-.345 0-.059.03 0 .095.066.154.297.196.593.369.902.535.919.502 1.89.9 2.897 1.188 5.212 1.438 11.077.38 14.99-3.511 3.075-3.054 4.155-7.267 4.155-11.485 0-.16.196-.256.308-.34a10.2 10.2 0 0 0 2.037-2.126.62.62 0 0 0 .142-.428c0-.09 0-.071-.113-.024"/></svg>